<svg class='arrow' aria-hidden='true' focusable='false' xmlns="http://www.w3.org/2000/svg" width="24" height="24" viewBox="0 0 24 24">
  <defs>
    <style>.wind-1,.wind-2,.wind-3{fill:#003c71;}.wind-2{opacity:0.2;}.wind-3{opacity:0.35;}</style>
  </defs>
  <g id="Icons">
    <path class="wind-1" d="M17,16.25a.78.78,0,0,1,.48.17.75.75,0,0,1,.09,1.06l-5,6,0,0a.75.75,0,0,1-.55.25.73.73,0,0,1-.55-.25l0,0-5-6a.76.76,0,0,1,.1-1.06.75.75,0,0,1,1.05.1l3.68,4.41V1a.75.75,0,0,1,1.5,0V20.93l3.67-4.41A.74.74,0,0,1,17,16.25Z"/>
    <path class="wind-2" d="M6,9.75A.75.75,0,0,1,5.25,9V5a.75.75,0,0,1,1.5,0V9A.76.76,0,0,1,6,9.75Z"/>
    <path class="wind-3" d="M21.29,12.6a4,4,0,0,1-5.59,0A5.12,5.12,0,0,1,14.25,9V3a.75.75,0,0,1,1.5,0V9a3.65,3.65,0,0,0,1,2.57,2.29,2.29,0,0,0,1.74.68,2.29,2.29,0,0,0,1.71-.67,2.22,2.22,0,0,0,.55-1.67,1.73,1.73,0,0,0-.58-1.2A1.68,1.68,0,0,0,19,8.25a.73.73,0,0,1-.79-.71A.75.75,0,0,1,19,6.75a3.3,3.3,0,0,1,3.28,3.08A3.74,3.74,0,0,1,21.29,12.6Z"/>
    <path class="wind-3" d="M5,12.75a.75.75,0,0,1,0-1.5c2.25,0,3.25-1,3.25-3.25V3a.75.75,0,0,1,1.5,0V8C9.75,11.06,8.06,12.75,5,12.75Z"/>
  </g>
</svg>
