<svg class='calm' aria-hidden='true' focusable='false' xmlns="http://www.w3.org/2000/svg" width="24" height="24" viewBox="0 0 24 24">
  <defs>
    <style>.wind-1,.wind-2,.wind-3{fill:#003c71;}.wind-1{opacity:0.35;}.wind-3{opacity:0.2;}</style>
  </defs>
  <g id="Icons">
    <path class="wind-1" d="M19.72,11.32A7.75,7.75,0,0,0,4.28,12.68a.75.75,0,1,0,1.49-.14,6.25,6.25,0,1,1,6.77,5.69.75.75,0,1,0,.14,1.49A7.75,7.75,0,0,0,19.72,11.32Z"/>
    <path class="wind-1" d="M16,11.25a.76.76,0,0,0-.75.75A3.25,3.25,0,1,1,12,8.75a.75.75,0,0,0,0-1.5A4.75,4.75,0,1,0,16.75,12,.76.76,0,0,0,16,11.25Z"/>
    <path class="wind-2" d="M19,11.25a.76.76,0,0,0-.75.75,6.25,6.25,0,0,1-12.5,0,.75.75,0,0,0-1.5,0,7.75,7.75,0,0,0,15.5,0A.76.76,0,0,0,19,11.25Z"/>
    <circle class="wind-2" cx="12" cy="12" r="1"/>
    <path class="wind-3" d="M21.7,11.25A.76.76,0,0,0,21,12,9,9,0,1,1,12,3.05a.75.75,0,1,0,0-1.5A10.45,10.45,0,1,0,22.45,12,.75.75,0,0,0,21.7,11.25Z"/>
  </g>
</svg>
