<?xml version="1.0" encoding="UTF-8"?>
<svg width="32px" height="32px" viewBox="0 0 32 32" version="1.1" xmlns="http://www.w3.org/2000/svg" xmlns:xlink="http://www.w3.org/1999/xlink">
    <!-- Generator: Sketch 50.2 (55047) - http://www.bohemiancoding.com/sketch -->
    <title>Slice</title>
    <desc>Created with Sketch.</desc>
    <defs></defs>
    <g id="Icons" stroke="none" stroke-width="1" fill="none" fill-rule="evenodd">
        <g id="Group-Copy">
            <g id="Warning-Copy">
                <g id="Group-10" transform="translate(6.000000, 6.000000)">
                    <path d="M17.9644075,18 L2.03528639,18 C0.930716889,18 0.0352863891,17.1045695 0.0352863891,16 C0.0352863891,15.6507566 0.126738611,15.307601 0.300543582,15.0046772 L8.26510414,1.12328649 C8.81480572,0.165214493 10.0370977,-0.165835139 10.9951697,0.383866442 C11.3028559,0.560403894 11.5580523,0.815600292 11.7345898,1.12328649 L19.6991503,15.0046772 C20.2488519,15.9627492 19.9178023,17.1850412 18.9597303,17.7347428 C18.6568065,17.9085478 18.3136509,18 17.9644075,18 Z" id="Stroke-3993" fill="#FFBE00"></path>
                    <path d="M11,12 C11,12.5522847 10.5522847,13 10,13 C9.44771525,13 9,12.5522847 9,12 L9,5 C9,4.44771525 9.44771525,4 10,4 C10.5522847,4 11,4.44771525 11,5 L11,12 Z" id="Stroke-3991" fill="#000000" fill-rule="nonzero"></path>
                    <path d="M9,15.047017 C9,15.6260782 9.48051609,16.0940341 10.0738636,16.0940341 C10.6660885,16.0940341 11.1477273,15.6260782 11.1477273,15.047017 C11.1477273,14.4695978 10.6660885,14 10.0738636,14 C9.48051609,14 9,14.4695978 9,15.047017 Z" id="Fill-3992" fill="#000000"></path>
                </g>
            </g>
        </g>
    </g>
</svg>