<?xml version="1.0" encoding="UTF-8"?>
<svg width="32px" height="32px" viewBox="0 0 32 32" version="1.1" xmlns="http://www.w3.org/2000/svg" xmlns:xlink="http://www.w3.org/1999/xlink">
    <!-- Generator: Sketch 51.3 (57544) - http://www.bohemiancoding.com/sketch -->
    <title>06 Warnings – 2 Cancelled Expanded – XS – Mobile 320</title>
    <desc>Created with Sketch.</desc>
    <defs></defs>
    <g id="Warnings-v1.1" stroke="none" stroke-width="1" fill="none" fill-rule="evenodd">
        <g id="06-Warnings-–-2-Cancelled-Expanded-–-XS-–-Mobile-320" transform="translate(-251.000000, -223.000000)" fill="#878787">
            <g id="All-Warnings" transform="translate(245.000000, 217.000000)">
                <g id="Label">
                    <g id="Warning-Icon" transform="translate(6.000000, 6.000000)">
                        <g id="Warning-Copy">
                            <path d="M23.9644075,24 L8.03528639,24 C6.93071689,24 6.03528639,23.1045695 6.03528639,22 C6.03528639,21.6507566 6.12673861,21.307601 6.30054358,21.0046772 L14.2651041,7.12328649 C14.8148057,6.16521449 16.0370977,5.83416486 16.9951697,6.38386644 C17.3028559,6.56040389 17.5580523,6.81560029 17.7345898,7.12328649 L25.6991503,21.0046772 C26.2488519,21.9627492 25.9178023,23.1850412 24.9597303,23.7347428 C24.6568065,23.9085478 24.3136509,24 23.9644075,24 Z M17,18 L17,11 C17,10.4477153 16.5522847,10 16,10 C15.4477153,10 15,10.4477153 15,11 L15,18 C15,18.5522847 15.4477153,19 16,19 C16.5522847,19 17,18.5522847 17,18 Z M15,21.047017 C15,21.6260782 15.4805161,22.0940341 16.0738636,22.0940341 C16.6660885,22.0940341 17.1477273,21.6260782 17.1477273,21.047017 C17.1477273,20.4695978 16.6660885,20 16.0738636,20 C15.4805161,20 15,20.4695978 15,21.047017 Z" id="Stroke-3993"></path>
                        </g>
                    </g>
                </g>
            </g>
        </g>
    </g>
</svg>