<?xml version="1.0" encoding="UTF-8"?>
<svg width="24px" height="24px" viewBox="0 0 24 24" version="1.1" xmlns="http://www.w3.org/2000/svg" xmlns:xlink="http://www.w3.org/1999/xlink">
    <defs>
        <path d="M12,11.2928932 L15.6464466,7.64644661 C15.8417088,7.45118446 16.1582912,7.45118446 16.3535534,7.64644661 C16.5488155,7.84170876 16.5488155,8.15829124 16.3535534,8.35355339 L12.7071068,12 L16.3535534,15.6464466 C16.5488155,15.8417088 16.5488155,16.1582912 16.3535534,16.3535534 C16.1582912,16.5488155 15.8417088,16.5488155 15.6464466,16.3535534 L12,12.7071068 L8.35355339,16.3535534 C8.15829124,16.5488155 7.84170876,16.5488155 7.64644661,16.3535534 C7.45118446,16.1582912 7.45118446,15.8417088 7.64644661,15.6464466 L11.2928932,12 L7.64644661,8.35355339 C7.45118446,8.15829124 7.45118446,7.84170876 7.64644661,7.64644661 C7.84170876,7.45118446 8.15829124,7.45118446 8.35355339,7.64644661 L12,11.2928932 Z" id="path-1"></path>
    </defs>
    <g id="Icons/Proton/24/Exit" stroke="none" stroke-width="1" fill="none" fill-rule="evenodd">
        <mask id="mask-2" fill="white">
            <use xlink:href="#path-1"></use>
        </mask>
        <use id="Combined-Shape" fill="#FFFFFF" fill-rule="nonzero" xlink:href="#path-1"></use>
    </g>
</svg>
