<?xml version="1.0" encoding="UTF-8"?>
<svg width="24px" height="24px" viewBox="0 0 24 24" version="1.1" xmlns="http://www.w3.org/2000/svg" xmlns:xlink="http://www.w3.org/1999/xlink">
    <!-- Generator: Sketch 52.5 (67469) - http://www.bohemiancoding.com/sketch -->
    <title>Icons/Proton/24/No location</title>
    <desc>Created with Sketch.</desc>
    <defs>
        <path d="M17.1017617,18.1624218 C15.7170064,19.3101227 13.939068,20 12,20 C10.060932,20 8.28299358,19.3101227 6.89823832,18.1624218 L5.64392282,19.4167373 C5.34667547,19.7139847 4.86827202,19.7175144 4.5753788,19.4246212 C4.28248558,19.131728 4.2860153,18.6533245 4.58326265,18.3560772 L5.83757815,17.1017617 C4.6898773,15.7170064 4,13.939068 4,12 C4,10.060932 4.6898773,8.28299358 5.83757815,6.89823832 L4.56517311,5.62583328 C4.27791634,5.33857651 4.28248558,4.86827202 4.5753788,4.5753788 C4.86827202,4.28248558 5.33857651,4.27791634 5.62583328,4.56517311 L6.89823832,5.83757815 C8.28299358,4.6898773 10.060932,4 12,4 C13.939068,4 15.7170064,4.6898773 17.1017617,5.83757815 L18.3560772,4.58326265 C18.6533245,4.2860153 19.131728,4.28248558 19.4246212,4.5753788 C19.7175144,4.86827202 19.7139847,5.34667547 19.4167373,5.64392282 L18.1624218,6.89823832 C19.3101227,8.28299358 20,10.060932 20,12 C20,13.939068 19.3101227,15.7170064 18.1624218,17.1017617 L19.4348269,18.3741667 C19.7220837,18.6614235 19.7175144,19.131728 19.4246212,19.4246212 C19.131728,19.7175144 18.6614235,19.7220837 18.3741667,19.4348269 L17.1017617,18.1624218 Z M16.0009045,17.0615646 L12,13.0606602 L7.99909555,17.0615646 C9.09873288,17.9319515 10.4886797,18.4516129 12,18.4516129 C13.5113203,18.4516129 14.9012671,17.9319515 16.0009045,17.0615646 Z M17.0615646,16.0009045 C17.9319515,14.9012671 18.4516129,13.5113203 18.4516129,12 C18.4516129,10.4886797 17.9319515,9.09873288 17.0615646,7.99909555 L13.0606602,12 L17.0615646,16.0009045 Z M6.93843538,7.99909555 C6.06804855,9.09873288 5.5483871,10.4886797 5.5483871,12 C5.5483871,13.5113203 6.06804855,14.9012671 6.93843538,16.0009045 L10.9393398,12 L6.93843538,7.99909555 Z M7.99909555,6.93843538 L12,10.9393398 L16.0009045,6.93843538 C14.9012671,6.06804855 13.5113203,5.5483871 12,5.5483871 C10.4886797,5.5483871 9.09873288,6.06804855 7.99909555,6.93843538 Z" id="path-1"></path>
    </defs>
    <g id="Icons/Proton/24/No-location" stroke="none" stroke-width="1" fill="none" fill-rule="evenodd">
        <mask id="mask-2" fill="white">
            <use xlink:href="#path-1"></use>
        </mask>
        <use id="Combined-Shape" fill="#191E50" xlink:href="#path-1"></use>
    </g>
</svg>