<?xml version="1.0" encoding="UTF-8"?>
<svg width="24px" height="24px" viewBox="0 0 24 24" version="1.1" xmlns="http://www.w3.org/2000/svg" xmlns:xlink="http://www.w3.org/1999/xlink">
    <!-- Generator: Sketch 49.3 (51167) - http://www.bohemiancoding.com/sketch -->
    <title>Map Target</title>
    <desc>Created with Sketch.</desc>
    <defs></defs>
    <g id="Map-Target" stroke="none" stroke-width="1" fill="none" fill-rule="evenodd">
        <path d="M12.751259,5.03984188 C12.5044472,5.01350717 12.253801,5 12,5 C11.7470621,5 11.4972575,5.01341546 11.2512591,5.03957366 L11.2514847,1.99994432 C11.2515155,1.58573076 11.5873268,1.24996925 12.0015404,1.25 C12.4157539,1.25003075 12.7515155,1.58584212 12.7514847,2.00005568 L12.751259,5.03984188 Z M5.03968362,11.2502257 C5.01345306,11.4965579 5,11.7467079 5,12 C5,12.2534468 5.0134695,12.5037476 5.0397317,12.7502257 L1.99994432,12.75 C1.58573076,12.7499692 1.24996925,12.4141579 1.25,11.9999443 C1.25003075,11.5857308 1.58584212,11.2499693 2.00005568,11.25 L5.03968362,11.2502257 Z M11.2502257,18.9603164 C11.4965579,18.9865469 11.7467079,19 12,19 C12.2534468,19 12.5037476,18.9865305 12.7502257,18.9602683 L12.75,22.0000556 C12.7499692,22.4142692 12.4141579,22.7500307 11.9999443,22.7499999 C11.5857308,22.7499692 11.2499693,22.4141578 11.25,21.9999443 L11.2502257,18.9603164 Z M18.9601581,12.751259 C18.9864928,12.5044472 19,12.253801 19,12 C19,11.7470621 18.9865845,11.4972575 18.9604263,11.2512591 L22.0000557,11.2514847 C22.4142692,11.2515155 22.7500307,11.5873268 22.75,12.0015404 C22.7499692,12.4157539 22.4141579,12.7515155 21.9999443,12.7514847 L18.9601581,12.751259 Z" id="Combined-Shape" fill="#FFFFFF"></path>
        <circle id="Oval-2" stroke="#FFFFFF" stroke-width="1.5" cx="12" cy="12" r="7"></circle>
        <circle id="Oval-2" fill="#FFFFFF" cx="12" cy="12" r="3"></circle>
    </g>
</svg>