<?xml version="1.0" encoding="UTF-8"?>
<svg width="24px" height="24px" viewBox="0 0 24 24" version="1.1" xmlns="http://www.w3.org/2000/svg" xmlns:xlink="http://www.w3.org/1999/xlink">
    <!-- Generator: Sketch 51.2 (57519) - http://www.bohemiancoding.com/sketch -->
    <title>Search / Map Target BOM Blue</title>
    <desc>Created with Sketch.</desc>
    <defs></defs>
    <g id="Search-/-Map-Target-BOM-Blue" stroke="none" stroke-width="1" fill="none" fill-rule="evenodd">
        <path d="M4.2858244,11.25 C4.63939783,7.56800652 7.56928897,4.63856281 11.2514847,4.28568197 L11.2514847,2 C11.2514847,1.58578644 11.5872711,1.25 12.0014847,1.25 C12.4156983,1.25 12.7514847,1.58578644 12.7514847,2 L12.7514847,4.28596712 C16.4322861,4.64013787 19.3606972,7.56899633 19.7141756,11.25 L22,11.25 C22.4142136,11.25 22.75,11.5857864 22.75,12 C22.75,12.4142136 22.4142136,12.75 22,12.75 L19.7141756,12.75 C19.3606972,16.4310037 16.4322861,19.3598621 12.7514847,19.7140329 L12.7514847,22 C12.7514847,22.4142136 12.4156983,22.75 12.0014847,22.75 C11.5872711,22.75 11.2514847,22.4142136 11.2514847,22 L11.2514847,19.714318 C7.56928897,19.3614372 4.63939783,16.4319935 4.2858244,12.75 L2,12.75 C1.58578644,12.75 1.25,12.4142136 1.25,12 C1.25,11.5857864 1.58578644,11.25 2,11.25 L4.2858244,11.25 Z M12,18.25 C15.4517797,18.25 18.25,15.4517797 18.25,12 C18.25,8.54822031 15.4517797,5.75 12,5.75 C8.54822031,5.75 5.75,8.54822031 5.75,12 C5.75,15.4517797 8.54822031,18.25 12,18.25 Z" id="Crosshair" fill="#003C71" fill-rule="nonzero"></path>
        <circle id="Detect-Circle" fill="#003C71" cx="12" cy="12" r="3"></circle>
    </g>
</svg>