<svg xmlns="http://www.w3.org/2000/svg" width="24" height="24" viewBox="0 0 24 24">
    <path fill="#4A4A4A" fill-rule="nonzero" d="M5.818 17.086a8.008 8.008 0 0 1 0-10.172L4.222 5.317a.775.775 0 1 1 1.095-1.095l1.597 1.596a8.008 8.008 0 0 1 10.172 0l1.597-1.596a.775.775 0 1 1 1.095 1.095l-1.596 1.597a8.008 8.008 0 0 1 0 10.172l1.596 1.597a.775.775 0 1 1-1.095 1.095l-1.597-1.596a8.008 8.008 0 0 1-10.172 0l-1.597 1.596a.775.775 0 1 1-1.095-1.095l1.596-1.597zm1.102-1.101L10.904 12 6.92 8.015a6.459 6.459 0 0 0 0 7.97zm1.095 1.095a6.459 6.459 0 0 0 7.97 0L12 13.096 8.015 17.08zm7.97-10.16a6.459 6.459 0 0 0-7.97 0L12 10.904l3.985-3.984zm1.095 1.095L13.096 12l3.984 3.985a6.459 6.459 0 0 0 0-7.97z"/>
</svg>
