<?xml version="1.0" encoding="UTF-8"?>
<svg width="24px" height="24px" viewBox="0 0 24 24" version="1.1" xmlns="http://www.w3.org/2000/svg" xmlns:xlink="http://www.w3.org/1999/xlink">
    <!-- Generator: Sketch 52.5 (67469) - http://www.bohemiancoding.com/sketch -->
    <title>Combined Shape Copy 53</title>
    <desc>Created with Sketch.</desc>
    <g id="Notifications-v3.0" stroke="none" stroke-width="1" fill="none" fill-rule="evenodd">
        <g id="Notification-Scenarios-" transform="translate(-716.000000, -739.000000)" fill="#5E75E7">
            <path d="M728,763 C721.372583,763 716,757.627417 716,751 C716,744.372583 721.372583,739 728,739 C734.627417,739 740,744.372583 740,751 C740,757.627417 734.627417,763 728,763 Z M728,759 C728.828427,759 729.5,758.328427 729.5,757.5 C729.5,756.671573 728.828427,756 728,756 C727.171573,756 726.5,756.671573 726.5,757.5 C726.5,758.328427 727.171573,759 728,759 Z M728,744 C727.447715,744 727,744.447715 727,745 L727,753 C727,753.552285 727.447715,754 728,754 C728.552285,754 729,753.552285 729,753 L729,745 C729,744.447715 728.552285,744 728,744 Z" id="Combined-Shape-Copy-53" transform="translate(728.000000, 751.000000) scale(1, -1) translate(-728.000000, -751.000000) "></path>
        </g>
    </g>
</svg>