<?xml version="1.0" encoding="UTF-8"?>
<svg width="24px" height="24px" viewBox="0 0 24 24" version="1.1" xmlns="http://www.w3.org/2000/svg" xmlns:xlink="http://www.w3.org/1999/xlink">
    <!-- Generator: Sketch 51.2 (57519) - http://www.bohemiancoding.com/sketch -->
    <title>Combined Shape Copy 59</title>
    <desc>Created with Sketch.</desc>
    <defs></defs>
    <g id="Symbols" stroke="none" stroke-width="1" fill="none" fill-rule="evenodd">
        <g id="Notification-/-Mobile-" transform="translate(-8.000000, -23.000000)" fill="#F0A000">
            <g id="Notification-Mobile">
                <g id="Icon" transform="translate(8.000000, 18.000000)">
                    <path d="M12,29 C5.372583,29 0,23.627417 0,17 C0,10.372583 5.372583,5 12,5 C18.627417,5 24,10.372583 24,17 C24,23.627417 18.627417,29 12,29 Z M12,25 C12.8284271,25 13.5,24.3284271 13.5,23.5 C13.5,22.6715729 12.8284271,22 12,22 C11.1715729,22 10.5,22.6715729 10.5,23.5 C10.5,24.3284271 11.1715729,25 12,25 Z M12,10 C11.4477153,10 11,10.4477153 11,11 L11,19 C11,19.5522847 11.4477153,20 12,20 C12.5522847,20 13,19.5522847 13,19 L13,11 C13,10.4477153 12.5522847,10 12,10 Z" id="Combined-Shape-Copy-59"></path>
                </g>
            </g>
        </g>
    </g>
</svg>