<?xml version="1.0" encoding="UTF-8"?>
<svg width="64px" height="55px" viewBox="0 0 64 55" version="1.1" xmlns="http://www.w3.org/2000/svg" xmlns:xlink="http://www.w3.org/1999/xlink">
    <!-- Generator: Sketch 49.3 (51167) - http://www.bohemiancoding.com/sketch -->
    <title>wind</title>
    <desc>Created with Sketch.</desc>
    <defs></defs>
    <g id="Search" stroke="none" stroke-width="1" fill="none" fill-rule="evenodd">
        <g id="Search-Input-–-XS-–-Mobile-320" transform="translate(-123.000000, -220.000000)" fill-rule="nonzero">
            <g id="Group-2" transform="translate(26.000000, 220.000000)">
                <g id="wind" transform="translate(97.000000, 0.000000)">
                    <path d="M54.1915,23.89675 C53.970125,22.91975 53.5075,21.791375 53.052625,20.719375 C52.850375,20.24275 53.07275,19.69225 53.549375,19.49 C54.026125,19.28825 54.5765,19.510125 54.77875,19.986875 C55.26675,21.137 55.76475,22.354375 56.02025,23.482375 C56.13475,23.987375 55.818,24.489625 55.312875,24.604 C54.812625,24.718125 54.306625,24.40575 54.1915,23.89675 Z" id="Shape" fill="#6B5445"></path>
                    <path d="M25.287375,13.401 C24.876625,15.74725 26.82925,17.828625 29.197875,17.5665 C29.83975,17.4955 30.361,17.006 30.472375,16.37 C31.167125,12.402375 25.72875,10.880125 25.287375,13.401 Z" id="Shape" fill="#9AD14B"></path>
                    <path d="M26.942875,12.183375 C26.81575,12.183875 26.6885,12.1905 26.562,12.2045 C24.0065,12.48725 25.2245,18.00625 29.198,17.5665 C29.83575,17.496 30.388375,17.0275 30.49475,16.217625 C28.3395,16.226 26.660375,14.33775 26.942875,12.183375 Z" id="Shape" fill="#8DC133"></path>
                    <path d="M21.237625,3.151125 C21.1835,2.55725 20.81225,2.038875 20.26725,1.796625 C16.413125,0.083375 12.134125,3.14225 12.517125,7.348875 C12.57125,7.94275 12.9425,8.461125 13.4875,8.703375 C17.34175,10.416625 21.6205,7.357625 21.237625,3.151125 Z" id="Shape" fill="#F6B138"></path>
                    <path d="M21.253625,3.901125 C21.26475,3.65175 21.26025,3.40125 21.237625,3.15125 C21.1835,2.557375 20.81225,2.039 20.26725,1.79675 C16.413125,0.0835 12.134125,3.142375 12.517125,7.349 C12.613875,8.4115 13.49425,8.8145 14.526625,9.046125 C14.68075,5.600875 17.90075,3.149125 21.253625,3.901125 Z" id="Shape" fill="#F2902F"></path>
                    <path d="M63.047125,30.551375 C63.4285,34.424 58.122375,35.754125 57.79775,33.064375 C57.3275,29.169625 62.765625,27.69375 63.047125,30.551375 Z" id="Shape" fill="#9AD14B"></path>
                    <path d="M63.04825,30.56675 C62.782,27.6805 57.3275,29.169625 57.79775,33.064375 C57.88875,33.8185 58.497875,34.482875 59.539125,34.470125 C59.34275,32.3825 60.96875,30.59175 63.04825,30.56675 Z" id="Shape" fill="#8DC133"></path>
                    <path d="M54.759125,19.64875 C54.51175,20.124625 54.029875,20.4415 53.494875,20.47975 C49.07175,20.7965 45.99575,16.168875 47.99925,12.2135 C48.26075,11.697125 48.77275,11.360625 49.350375,11.325375 C53.77675,11.054875 56.804,15.7145 54.759125,19.64875 Z" id="Shape" fill="#9AD14B"></path>
                    <path d="M50.350125,11.354375 C49.347625,11.2395 48.458625,11.306625 47.999375,12.2135 C45.995625,16.1695 49.0725,20.7965 53.495,20.47975 C54.03,20.441375 54.511875,20.12475 54.75925,19.64875 C54.92625,19.327375 55.06075,18.991375 55.163625,18.64675 C51.63575,18.242875 49.333875,14.761 50.350125,11.354375 Z" id="Shape" fill="#8DC133"></path>
                    <circle id="Oval" fill="#F6B138" cx="37.814625" cy="9.63125" r="1.683875"></circle>
                    <circle id="Oval" fill="#9AD14B" cx="34.868" cy="1.318375" r="1.262625"></circle>
                    <circle id="Oval" fill="#F6B138" cx="18.13975" cy="17.5885" r="1.262625"></circle>
                    <path d="M57.578625,40.05675 C57.081375,39.91 56.56025,40.193125 56.413375,40.689625 C54.221875,48.090375 46.001,52.59975 38.119875,52.59975 C35.993,52.59975 3.17325,52.59975 0.937625,52.59975 C0.419625,52.59975 -2.84217094e-14,53.019375 -2.84217094e-14,53.537375 C-2.84217094e-14,54.055375 0.419625,54.475 0.937625,54.475 L38.117625,54.475 C38.404375,54.421625 46.683125,54.949625 53.6235,48.522875 C55.81,46.498 57.396625,43.9735 58.211375,41.222375 C58.358375,40.725625 58.075125,40.204 57.578625,40.05675 Z" id="Shape" fill="#91ABC1"></path>
                    <path d="M7.68425,40.57775 C24.101625,40.577125 23.284875,40.5795 23.339875,40.57575 C29.02725,40.209125 33.893875,35.073125 32.59675,29.31475 C31.678875,25.239 27.793625,22.113125 23.55125,23.069125 C20.211125,23.8215 17.62125,27.014875 18.412875,30.52975 C19.494625,35.332875 25.282625,36.353875 27.62175,32.654875 C27.8985,32.21725 27.768,31.638 27.3305,31.36125 C26.893125,31.0845 26.313625,31.214875 26.036875,31.6525 C25.61625,32.317875 24.9615,32.779625 24.1935,32.9525 C21.388625,33.58525 18.971125,29.9805 20.753125,27.162375 C21.485875,26.003625 22.625875,25.199625 23.963375,24.898375 C27.17825,24.174625 30.077875,26.6655 30.7675,29.72675 C31.7965,34.29525 27.82425,38.391625 23.248625,38.7025 L7.684125,38.7025 C7.166125,38.7025 6.7465,39.122125 6.7465,39.640125 C6.7465,40.158 7.16625,40.57775 7.68425,40.57775 Z" id="Shape" fill="#91ABC1"></path>
                    <path d="M30.523875,18.155125 C30.73575,18.06775 30.9085,17.905625 31.009125,17.6995 C32.82075,13.988125 29.06475,9.977125 25.239625,11.553625 C25.02775,11.641 24.855125,11.803125 24.754375,12.00925 C22.92825,15.750375 26.727625,19.719125 30.523875,18.155125 Z M26.3025,13.171875 C28.311625,12.6595 30.10075,14.56 29.46125,16.536625 C27.452,17.049 25.663125,15.148625 26.3025,13.171875 Z" id="Shape" fill="#91ABC1"></path>
                    <path d="M12.160875,9.008625 C13.23875,9.724625 14.48775,10.080875 15.736,10.080875 C20.02025,10.080875 23.05775,6.0215 21.985375,1.97025 C21.92675,1.748625 21.788875,1.556125 21.59775,1.429 C19.37525,-0.047 16.42525,0.00525 14.257,1.5585 C12.08875,3.112 11.090625,5.8885 11.7735,8.467375 C11.832125,8.689125 11.969875,8.881625 12.160875,9.008625 Z M20.251125,2.80325 C20.937125,6.60025 16.89775,9.51375 13.5075,7.6345 C12.821375,3.83775 16.862125,0.923875 20.251125,2.80325 Z" id="Shape" fill="#91ABC1"></path>
                    <path d="M63.5475,28.892125 C63.446875,28.686125 63.27425,28.524 63.06225,28.4365 C59.24425,26.863875 55.477625,30.86325 57.292625,34.582375 C57.39325,34.788375 57.565875,34.950375 57.777875,35.037875 C59.494625,35.7455 61.506875,35.31525 62.783125,33.95575 C64.0565,32.5995 64.363625,30.5645 63.5475,28.892125 Z M58.840625,33.41975 C58.202375,31.446375 59.986875,29.54175 61.9995,30.055 C62.637375,32.027375 60.853875,33.934 58.840625,33.41975 Z" id="Shape" fill="#91ABC1"></path>
                    <path d="M35.195,9.599625 C35.195,11.045125 36.370875,12.221125 37.8165,12.221125 C39.262,12.221125 40.438,11.04525 40.438,9.599625 C40.438,8.154 39.262125,6.978 37.8165,6.978 C36.370875,6.978125 35.195,8.15425 35.195,9.599625 Z M37.816375,8.853375 C38.22775,8.853375 38.562625,9.188125 38.562625,9.59975 C38.562625,10.011125 38.227875,10.346 37.816375,10.346 C37.405,10.346 37.070125,10.01125 37.070125,9.59975 C37.070125,9.188125 37.405,8.853375 37.816375,8.853375 Z" id="Shape" fill="#91ABC1"></path>
                    <circle id="Oval" fill="#91ABC1" cx="34.86925" cy="1.28775" r="1.262625"></circle>
                    <circle id="Oval" fill="#91ABC1" cx="18.14225" cy="17.55725" r="1.262625"></circle>
                    <path d="M3.9405,47.518875 L12.50375,47.518875 C13.02175,47.518875 13.441375,47.09925 13.441375,46.58125 C13.441375,46.06325 13.02175,45.643625 12.50375,45.643625 L3.9405,45.643625 C3.4225,45.643625 3.002875,46.06325 3.002875,46.58125 C3.002875,47.099125 3.4225,47.518875 3.9405,47.518875 Z" id="Shape" fill="#91ABC1"></path>
                    <path d="M39.13725,22.02375 C38.921875,22.494625 39.129125,23.051 39.599875,23.26625 C45.79675,26.1005 47.9975,35.5885 42.22325,41.362625 C37.526,46.060125 31.9015,45.640625 31.887,45.6435 L16.879375,45.6435 C16.361375,45.6435 15.94175,46.063125 15.94175,46.581125 C15.94175,47.099 16.361375,47.51875 16.879375,47.51875 C16.91525,47.51875 32.144375,47.51875 31.888625,47.51875 C36.293375,47.51875 40.434625,45.803375 43.549375,42.688625 C50.17675,36.061 47.9015,25.0005 40.37975,21.560875 C39.9085,21.34525 39.352375,21.552875 39.13725,22.02375 Z" id="Shape" fill="#91ABC1"></path>
                    <path d="M53.414375,21.39075 C53.755875,22.26125 54.018375,23.091875 54.1935,23.8655 C54.292,24.30075 54.678625,24.596375 55.107125,24.596375 C55.70725,24.596375 56.155625,24.039625 56.022375,23.4515 C55.829125,22.59775 55.543875,21.689375 55.175,20.7445 C55.9295,19.64725 56.333375,18.3645 56.342625,17.022875 C56.346125,16.505 55.929375,16.0825 55.4115,16.07875 C54.8765,16.07875 54.470875,16.50525 54.467375,17.009875 C54.461375,17.8775 54.2135,18.741 53.763375,19.477375 C49.780625,20.04575 46.92025,15.707875 49.025625,12.26925 C50.50225,12.059375 52.028125,12.562125 53.081875,13.623875 C53.44675,13.9915 54.0405,13.993375 54.40775,13.628875 C54.77525,13.264125 54.7775,12.670375 54.41275,12.303 C52.8245,10.703 50.468125,10.0135 48.26325,10.50325 C48.0395,10.552875 47.841625,10.683 47.707,10.86875 C44.4735,15.3375 47.81325,21.65525 53.414375,21.39075 Z" id="Shape" fill="#91ABC1"></path>
                </g>
            </g>
        </g>
    </g>
</svg>