<?xml version="1.0" encoding="UTF-8"?>
<svg aria-hidden='true' focusable='false' width="24px" height="23px" viewBox="0 0 24 23" version="1.1" xmlns="http://www.w3.org/2000/svg" xmlns:xlink="http://www.w3.org/1999/xlink">
    <g stroke="none" stroke-width="1" fill="none" fill-rule="evenodd">
        <g transform="translate(-155.000000, -1643.000000)" fill-rule="nonzero">
            <g transform="translate(148.000000, 1613.000000)">
                <g>
                    <g transform="translate(6.500000, 30.000000)">
                        <path d="M15.9472726,9.07016871 L17.6406581,12.3420096 C18.7346242,15.2715425 17.2468477,18.5329722 14.3172087,19.6270016 C13.7327049,19.8451492 13.124131,19.9632872 12.479013,19.9819515 C11.8638083,19.9630837 11.2553443,19.8450232 10.6711726,19.6269653 C7.74152338,18.5328737 6.25385004,15.2715093 7.37255011,12.2867159 L12.0509684,3.26945021 C12.2373644,2.91018717 12.7512727,2.91018221 12.9376757,3.26944166 L14.915624,7.08159414 L15.9472726,9.07016871 Z" fill="#5BAFE4"></path>
                        <path d="M12.6887166,19.0171362 C13.1959144,19.001742 13.6976031,18.9044236 14.1800264,18.7245049 C16.597008,17.8225747 17.8244551,15.1337787 16.9464901,12.7738961 L15.2746864,9.55394754 L14.2412176,7.56330989 L14.130448,7.34997559 C15.1418469,12.4882237 14.4442498,16.3626849 12,18.9401925 C12.2319078,18.9841614 12.4630235,19.0097792 12.6887166,19.0171362 Z" fill-opacity="0.700000048" fill="#FFFFFF"></path>
                    </g>
                </g>
            </g>
        </g>
    </g>
</svg>
