<?xml version="1.0" encoding="UTF-8"?>
<svg width="24px" height="24px" viewBox="0 0 24 24" version="1.1" xmlns="http://www.w3.org/2000/svg" xmlns:xlink="http://www.w3.org/1999/xlink">
    <!-- Generator: Sketch 52.5 (67469) - http://www.bohemiancoding.com/sketch -->
    <title>Icons/Proton/24/Recent</title>
    <desc>Created with Sketch.</desc>
    <defs>
        <path d="M8.75,4 L8.75,7.68933983 L11.2995609,10.2389007 C11.5924541,10.5317939 11.5924541,11.0066676 11.2995609,11.2995609 C11.0066676,11.5924541 10.5317939,11.5924541 10.2389007,11.2995609 L7.46966991,8.53033009 C7.32901763,8.3896778 7.25,8.19891237 7.25,8 L7.25,4 C7.25,3.58578644 7.58578644,3.25 8,3.25 C8.41421356,3.25 8.75,3.58578644 8.75,4 Z M2.51992245,13.4800776 C-0.506640815,10.4535143 -0.506640815,5.54648571 2.51992245,2.51992245 C5.54648571,-0.506640815 10.4535143,-0.506640815 13.4800776,2.51992245 C16.5066408,5.54648571 16.5066408,10.4535143 13.4800776,13.4800776 C10.4535143,16.5066408 5.54648571,16.5066408 2.51992245,13.4800776 Z M3.58058262,12.4194174 C6.02135944,14.8601942 9.97864056,14.8601942 12.4194174,12.4194174 C14.8601942,9.97864056 14.8601942,6.02135944 12.4194174,3.58058262 C9.97864056,1.13980579 6.02135944,1.13980579 3.58058262,3.58058262 C1.13980579,6.02135944 1.13980579,9.97864056 3.58058262,12.4194174 Z" id="path-1"></path>
    </defs>
    <g id="Icons/Proton/24/Recent" stroke="none" stroke-width="1" fill="none" fill-rule="evenodd">
        <g id="Mixins/Fill/Neutral/Black" transform="translate(4.000000, 4.000000)">
            <mask id="mask-2" fill="white">
                <use xlink:href="#path-1"></use>
            </mask>
            <use id="Mask" fill="#5E75E7" fill-rule="nonzero" xlink:href="#path-1"></use>
        </g>
    </g>
</svg>