<?xml version="1.0" encoding="UTF-8"?>
<svg aria-hidden='true' focusable='false' width="24px" height="24px" viewBox="0 0 24 24" version="1.1" xmlns="http://www.w3.org/2000/svg" xmlns:xlink="http://www.w3.org/1999/xlink">
    <defs>
        <path d="M10.0269631,14 C12.2460297,14 14.0449386,12.209139 14.0449386,10 C14.0449386,7.790861 12.2460297,6 10.0269631,6 C7.80789658,6 6.00898771,7.790861 6.00898771,10 C6.00898771,12.209139 7.80789658,14 10.0269631,14 Z M10.0269631,16 C6.69836331,16 4,13.3137085 4,10 C4,6.6862915 6.69836331,4 10.0269631,4 C13.355563,4 16.0539263,6.6862915 16.0539263,10 C16.0539263,13.3137085 13.355563,16 10.0269631,16 Z M18.2743085,19.6292841 L14.7939148,16.1488905 L14.755223,14.6959851 L16.2081284,14.7346769 C18.513383,17.0399315 19.6735142,18.2000628 19.688522,18.2150706 C20.1857211,18.7122696 19.9958253,19.3993646 19.7272139,19.667976 C19.2558094,20.1393805 18.7715076,20.1264832 18.2743085,19.6292841 Z" id="path-1"></path>
    </defs>
    <g id="Icons/Proton/24/Search" stroke="none" stroke-width="1" fill="none" fill-rule="evenodd">
        <mask id="mask-2" fill="white">
            <use xlink:href="#path-1"></use>
        </mask>
        <use id="Combined-Shape" fill="#191E50" xlink:href="#path-1"></use>
    </g>
</svg>
