<?xml version="1.0" encoding="UTF-8"?>
<svg width="24px" height="24px" viewBox="0 0 24 24" version="1.1" xmlns="http://www.w3.org/2000/svg" xmlns:xlink="http://www.w3.org/1999/xlink">
    <!-- Generator: Sketch 52.6 (67491) - http://www.bohemiancoding.com/sketch -->
    <title>Icons/Proton/24/Pause</title>
    <desc>Created with Sketch.</desc>
    <defs>
        <path d="M7,7 L9.08988764,7 C9.64217239,7 10.0898876,7.44771525 10.0898876,8 L10.0898876,17 C10.0898876,17.5522847 9.64217239,18 9.08988764,18 L7,18 C6.44771525,18 6,17.5522847 6,17 L6,8 C6,7.44771525 6.44771525,7 7,7 Z M14.1573034,7 L16.247191,7 C16.7994758,7 17.247191,7.44771525 17.247191,8 L17.247191,17 C17.247191,17.5522847 16.7994758,18 16.247191,18 L14.1573034,18 C13.6050186,18 13.1573034,17.5522847 13.1573034,17 L13.1573034,8 C13.1573034,7.44771525 13.6050186,7 14.1573034,7 Z" id="path-1"></path>
    </defs>
    <g id="Icons/Proton/24/Pause" stroke="none" stroke-width="1" fill="none" fill-rule="evenodd">
        <mask id="mask-2" fill="white">
            <use xlink:href="#path-1"></use>
        </mask>
        <use id="Combined-Shape" fill="#fff" xlink:href="#path-1"></use>
    </g>
</svg>
