<?xml version="1.0" encoding="UTF-8"?>
<svg aria-hidden='true' focusable='false' width="24px" height="24px" viewBox="0 0 24 24" version="1.1" xmlns="http://www.w3.org/2000/svg" xmlns:xlink="http://www.w3.org/1999/xlink">
    <defs>
        <path d="M17.2907356,7.41637121 L15.8714727,8.83563412 C16.5768174,9.69756941 17,10.7993649 17,12 C17,14.7614237 14.7614237,17 12,17 C9.23857625,17 7,14.7614237 7,12 C7,9.23857625 9.23857625,7 12,7 C13.2006351,7 14.3024306,7.42318265 15.1643659,8.12852734 L16.5836288,6.70926443 C15.3555678,5.64440769 13.7530386,5 12,5 C8.13400675,5 5,8.13400675 5,12 C5,15.8659932 8.13400675,19 12,19 C15.8659932,19 19,15.8659932 19,12 C19,10.2469614 18.3555923,8.64443222 17.2907356,7.41637121 Z M15.1599287,9.54717807 L13.7230905,10.9840163 C13.8990353,11.281773 14,11.6290957 14,12 C14,13.1045695 13.1045695,14 12,14 C10.8954305,14 10,13.1045695 10,12 C10,10.8954305 10.8954305,10 12,10 C12.3709043,10 12.718227,10.1009647 13.0159837,10.2769095 L14.4528219,8.84007129 C13.7754801,8.3135408 12.9243557,8 12,8 C9.790861,8 8,9.790861 8,12 C8,14.209139 9.790861,16 12,16 C14.209139,16 16,14.209139 16,12 C16,11.0756443 15.6864592,10.2245199 15.1599287,9.54717807 Z M12,20 C7.581722,20 4,16.418278 4,12 C4,7.581722 7.581722,4 12,4 C16.418278,4 20,7.581722 20,12 C20,16.418278 16.418278,20 12,20 Z M12,13 C12.5522847,13 13,12.5522847 13,12 C13,11.4477153 12.5522847,11 12,11 C11.4477153,11 11,11.4477153 11,12 C11,12.5522847 11.4477153,13 12,13 Z" id="path-1"></path>
    </defs>
    <g id="Icons/Proton/24/Radar" stroke="none" stroke-width="1" fill="none" fill-rule="evenodd">
        <mask id="mask-2" fill="white">
            <use xlink:href="#path-1"></use>
        </mask>
        <use id="Mask" fill="#5EB4E9" fill-rule="nonzero" xlink:href="#path-1"></use>
    </g>
</svg>
