<svg xmlns="http://www.w3.org/2000/svg" width="24" height="24" viewBox="0 0 24 24"><title>crosshair-disabled</title><g id="Icons"><path d="M18.16,17.1a8,8,0,0,0,0-10.2L19.6,5.46A.75.75,0,1,0,18.54,4.4L17.1,5.84a8,8,0,0,0-10.2,0L5.46,4.4A.75.75,0,1,0,4.4,5.46L5.84,6.9a8,8,0,0,0,0,10.2L4.4,18.54A.75.75,0,1,0,5.46,19.6L6.9,18.16a8,8,0,0,0,10.2,0l1.44,1.44a.75.75,0,0,0,1.06-1.06ZM18.5,12a6.47,6.47,0,0,1-1.41,4l-4-4,4-4A6.47,6.47,0,0,1,18.5,12ZM12,5.5a6.47,6.47,0,0,1,4,1.41l-4,4-4-4A6.47,6.47,0,0,1,12,5.5ZM5.5,12A6.47,6.47,0,0,1,6.91,8l4,4-4,4A6.47,6.47,0,0,1,5.5,12ZM12,18.5a6.47,6.47,0,0,1-4-1.41l4-4,4,4A6.47,6.47,0,0,1,12,18.5Z"/></g></svg>