<svg xmlns="http://www.w3.org/2000/svg" width="24" height="24" viewBox="0 0 24 24"><title>user-profile</title><g id="Icons"><path d="M11.84,13.88h.32a4,4,0,0,0,4-4V8a4,4,0,0,0-4-4h-.32a4,4,0,0,0-4,4V9.88A4,4,0,0,0,11.84,13.88ZM9.34,8a2.5,2.5,0,0,1,2.5-2.5h.32A2.5,2.5,0,0,1,14.66,8V9.88a2.5,2.5,0,0,1-2.5,2.5h-.32a2.5,2.5,0,0,1-2.5-2.5Z"/><path d="M16.58,15.19H7.42A3.42,3.42,0,0,0,4,18.61v.64a.76.76,0,0,0,.75.75h0a.76.76,0,0,0,.75-.75v-.64a1.92,1.92,0,0,1,1.92-1.92h9.16a1.92,1.92,0,0,1,1.92,1.92v.64a.76.76,0,0,0,.75.75h0a.76.76,0,0,0,.75-.75v-.64A3.42,3.42,0,0,0,16.58,15.19Z"/></g></svg>