<?xml version="1.0" encoding="utf-8"?>
<!-- Generator: Adobe Illustrator 22.1.0, SVG Export Plug-In . SVG Version: 6.00 Build 0)  -->
<svg version="1.1" id="Layer_1" xmlns="http://www.w3.org/2000/svg" xmlns:xlink="http://www.w3.org/1999/xlink" x="0px" y="0px"
	 viewBox="0 0 40 120" style="enable-background:new 0 0 40 120;" xml:space="preserve">
<style type="text/css">
	.st0{filter:url(#Adobe_OpacityMaskFilter);}
	.st1{fill:#FFFFFF;}
	.st2{mask:url(#mask-2_1_);}
	.st3{opacity:0.8;}
	.st4{fill:none;}
	.st5{fill:#046EAF;}
	.st6{opacity:0.2;}
	.st7{opacity:0.5;}
</style>
<title>Rain Nowcast Icon / XS Light</title>
<desc>Created with Sketch.</desc>
<g id="Rain-Nowcast-Icon-_x2F_-XS-Light">
	<g id="Mask">
	</g>
	<defs>
		<filter id="Adobe_OpacityMaskFilter" filterUnits="userSpaceOnUse" x="-183.1" y="-57.4" width="223.6" height="146.9">
			<feColorMatrix  type="matrix" values="1 0 0 0 0  0 1 0 0 0  0 0 1 0 0  0 0 0 1 0"/>
		</filter>
	</defs>
	<mask maskUnits="userSpaceOnUse" x="-183.1" y="-57.4" width="223.6" height="146.9" id="mask-2_1_">
		<g class="st0">
			<rect id="path-1_1_" class="st1" width="40" height="120"/>
		</g>
	</mask>
	<g id="Rain-Nowcaast-_x2F_-Icon-1-Light" class="st2">
		
			<g id="Group-_x2B_-Group-2-Mask" transform="translate(-75.000000, 49.931379) rotate(30.000000) translate(75.000000, -49.931379) translate(-178.000000, -75.068621)">
			<g>
				<g id="Group-2" transform="translate(1.000000, 22.000000)">
					<g id="Rain-_x2013_-B3" transform="translate(75.000000, 59.000000)" class="st3">
						<g id="B3">
							
								<rect id="Rectangle-Copy-5" x="-10" y="10" transform="matrix(2.729302e-06 1 -1 2.729302e-06 14.0001 9.9999)" class="st4" width="24" height="4"/>
							<path id="Rectangle-9-Copy-6" class="st5" d="M2,0L2,0c0.4,0,0.7,0.3,0.7,0.7L3.9,22c0.1,1-0.7,1.9-1.8,2c0,0-0.1,0-0.1,0
								l0,0c-1,0-1.9-0.8-1.9-1.9c0,0,0-0.1,0-0.1L1.3,0.7C1.3,0.3,1.6,0,2,0z"/>
						</g>
					</g>
					<g id="Rain-_x2013_-B3_1_" transform="translate(165.000000, 32.000000)" class="st3">
						<g id="B3_1_">
							
								<rect id="Rectangle-Copy-5_1_" x="-10" y="10" transform="matrix(2.729302e-06 1 -1 2.729302e-06 14.0001 9.9999)" class="st4" width="24" height="4"/>
							<path id="Rectangle-9-Copy-6_1_" class="st5" d="M2,0L2,0c0.4,0,0.7,0.3,0.7,0.7L3.9,22c0.1,1-0.7,1.9-1.8,2c0,0-0.1,0-0.1,0
								l0,0c-1,0-1.9-0.8-1.9-1.9c0,0,0-0.1,0-0.1L1.3,0.7C1.3,0.3,1.6,0,2,0z"/>
						</g>
					</g>
					<g id="Rain-_x2013_-D2" transform="translate(75.000000, 117.000000)" class="st3">
						<path id="Oval-4-Copy-8" class="st5" d="M2,6.9c1.1,0,2-0.9,2-2c0-0.6-0.5-2-1.6-4.1l0,0C2.3,0.5,2,0.4,1.8,0.6
							c-0.1,0-0.2,0.1-0.2,0.2C0.5,2.9,0,4.2,0,4.9C0,6,0.9,6.9,2,6.9z"/>
					</g>
					<g id="Rain-_x2013_-D2_1_" transform="translate(165.000000, 104.000000)" class="st3">
						<path id="Oval-4-Copy-8_1_" class="st5" d="M2,6.9c1.1,0,2-0.9,2-2c0-0.6-0.5-2-1.6-4.1l0,0C2.3,0.5,2,0.4,1.8,0.6
							c-0.1,0-0.2,0.1-0.2,0.2C0.5,2.9,0,4.2,0,4.9C0,6,0.9,6.9,2,6.9z"/>
					</g>
					<g id="Rain-_x2013_-C3" transform="translate(31.000000, 110.000000)" class="st3">
						<g id="C3">
							<path id="Rectangle-9-Copy-14" class="st5" d="M1,0L1,0c0.6,0,1,0.4,1,1l0,22c0,0.6-0.4,1-1,1l0,0c-0.6,0-1-0.4-1-1L0,1
								C0,0.4,0.4,0,1,0z"/>
						</g>
					</g>
					<g id="Rain-_x2013_-B2" transform="translate(45.000000, 79.000000)" class="st3">
						<g id="B2">
							
								<rect id="Rectangle-Copy-6" x="-6" y="6" transform="matrix(2.729302e-06 1 -1 2.729302e-06 10.0001 6)" class="st4" width="16" height="4"/>
							<path id="Rectangle-9-Copy-5" class="st5" d="M2,0L2,0c0.4,0,0.7,0.3,0.7,0.7L3.8,14c0.1,1-0.7,1.9-1.7,2c-0.1,0-0.1,0-0.2,0
								l0,0c-1,0-1.8-0.8-1.8-1.8c0-0.1,0-0.1,0-0.2L1.3,0.7C1.3,0.3,1.6,0,2,0z"/>
						</g>
					</g>
					<g id="Rain-_x2013_-B2_1_" transform="translate(135.000000, 44.000000)" class="st3">
						<g id="B2_1_">
							
								<rect id="Rectangle-Copy-6_1_" x="-6" y="6" transform="matrix(2.729302e-06 1 -1 2.729302e-06 10.0001 5.9999)" class="st4" width="16" height="4"/>
							<path id="Rectangle-9-Copy-5_1_" class="st5" d="M2,0L2,0c0.4,0,0.7,0.3,0.7,0.7L3.8,14c0.1,1-0.7,1.9-1.7,2
								c-0.1,0-0.1,0-0.2,0l0,0c-1,0-1.8-0.8-1.8-1.8c0-0.1,0-0.1,0-0.2L1.3,0.7C1.3,0.3,1.6,0,2,0z"/>
						</g>
					</g>
					<g id="Rain-_x2013_-B2_2_" transform="translate(105.000000, 14.000000)" class="st3">
						<g id="B2_2_">
							
								<rect id="Rectangle-Copy-6_2_" x="-6" y="6" transform="matrix(2.729302e-06 1 -1 2.729302e-06 10 5.9999)" class="st4" width="16" height="4"/>
							<path id="Rectangle-9-Copy-5_2_" class="st5" d="M2,0L2,0c0.4,0,0.7,0.3,0.7,0.7L3.8,14c0.1,1-0.7,1.9-1.7,2
								c-0.1,0-0.1,0-0.2,0l0,0c-1,0-1.8-0.8-1.8-1.8c0-0.1,0-0.1,0-0.2L1.3,0.7C1.3,0.3,1.6,0,2,0z"/>
						</g>
					</g>
					<g id="Rain-_x2013_-B2_3_" transform="translate(60.000000, 38.000000)" class="st3">
						<g id="B2_3_">
							
								<rect id="Rectangle-Copy-6_3_" x="-6" y="6" transform="matrix(2.729302e-06 1 -1 2.729302e-06 10 6)" class="st4" width="16" height="4"/>
							<path id="Rectangle-9-Copy-5_3_" class="st5" d="M2,0L2,0c0.4,0,0.7,0.3,0.7,0.7L3.8,14c0.1,1-0.7,1.9-1.7,2
								c-0.1,0-0.1,0-0.2,0l0,0c-1,0-1.8-0.8-1.8-1.8c0-0.1,0-0.1,0-0.2L1.3,0.7C1.3,0.3,1.6,0,2,0z"/>
						</g>
					</g>
					<g id="Rain-_x2013_-B3_2_" transform="translate(150.000000, 50.000000)" class="st3">
						<g id="B3_2_">
							
								<rect id="Rectangle-Copy-5_2_" x="-10" y="10" transform="matrix(2.729302e-06 1 -1 2.729302e-06 14.0001 9.9999)" class="st4" width="24" height="4"/>
							<path id="Rectangle-9-Copy-6_2_" class="st5" d="M2,0L2,0c0.4,0,0.7,0.3,0.7,0.7L3.9,22c0.1,1-0.7,1.9-1.8,2c0,0-0.1,0-0.1,0
								l0,0c-1,0-1.9-0.8-1.9-1.9c0,0,0-0.1,0-0.1L1.3,0.7C1.3,0.3,1.6,0,2,0z"/>
						</g>
					</g>
					<g id="_x34_0" transform="translate(0.000000, 8.000000)" class="st6">
						<g id="Rain-_x2013_-C2" transform="translate(61.000000, 61.000000)">
							<g id="C2">
								<path id="Rectangle-9-Copy-13" class="st5" d="M1,0L1,0c0.6,0,1,0.4,1,1l0,14c0,0.6-0.4,1-1,1l0,0c-0.6,0-1-0.4-1-1L0,1
									C0,0.4,0.4,0,1,0z"/>
							</g>
						</g>
						<g id="Rain-_x2013_-C2_1_" transform="translate(151.000000, 10.000000)">
							<g id="C2_1_">
								<path id="Rectangle-9-Copy-13_1_" class="st5" d="M1,0L1,0c0.6,0,1,0.4,1,1l0,14c0,0.6-0.4,1-1,1l0,0c-0.6,0-1-0.4-1-1L0,1
									C0,0.4,0.4,0,1,0z"/>
							</g>
						</g>
						<g id="Rain-_x2013_-C2_2_" transform="translate(1.000000, 29.000000)">
							<g id="C2_2_">
								<path id="Rectangle-9-Copy-13_2_" class="st5" d="M1,0L1,0c0.6,0,1,0.4,1,1l0,14c0,0.6-0.4,1-1,1l0,0c-0.6,0-1-0.4-1-1L0,1
									C0,0.4,0.4,0,1,0z"/>
							</g>
						</g>
						<g id="Rain-_x2013_-B2_4_" transform="translate(90.000000, 67.000000)">
							<g id="B2_4_">
								
									<rect id="Rectangle-Copy-6_4_" x="-6" y="6" transform="matrix(2.729302e-06 1 -1 2.729302e-06 10.0001 5.9999)" class="st4" width="16" height="4"/>
								<path id="Rectangle-9-Copy-5_4_" class="st5" d="M2,0L2,0c0.4,0,0.7,0.3,0.7,0.7L3.8,14c0.1,1-0.7,1.9-1.7,2
									c-0.1,0-0.1,0-0.2,0l0,0c-1,0-1.8-0.8-1.8-1.8c0-0.1,0-0.1,0-0.2L1.3,0.7C1.3,0.3,1.6,0,2,0z"/>
							</g>
						</g>
						<g id="Rain-_x2013_-B4" transform="translate(15.000000, 57.000000)">
							<g id="B4">
								
									<rect id="Rectangle" x="-18" y="18" transform="matrix(2.729302e-06 1 -1 2.729302e-06 22.0001 18)" class="st4" width="40" height="4"/>
								<path id="Rectangle-9-Copy-7" class="st5" d="M2,0L2,0c0.4,0,0.7,0.3,0.7,0.7L3.9,38c0,1.1-0.8,2-1.9,2c0,0,0,0-0.1,0l0,0
									c-1.1,0-1.9-0.9-1.9-1.9c0,0,0,0,0-0.1L1.3,0.7C1.3,0.3,1.6,0,2,0z"/>
							</g>
						</g>
						<g id="Rain-_x2013_-B4_1_" transform="translate(90.000000, 90.000000)">
							<g id="B4_1_">
								
									<rect id="Rectangle_1_" x="-18" y="18" transform="matrix(2.729302e-06 1 -1 2.729302e-06 22.0001 17.9999)" class="st4" width="40" height="4"/>
								<path id="Rectangle-9-Copy-7_1_" class="st5" d="M2,0L2,0c0.4,0,0.7,0.3,0.7,0.7L3.9,38c0,1.1-0.8,2-1.9,2c0,0,0,0-0.1,0
									l0,0c-1.1,0-1.9-0.9-1.9-1.9c0,0,0,0,0-0.1L1.3,0.7C1.3,0.3,1.6,0,2,0z"/>
							</g>
						</g>
						<g id="Rain-_x2013_-B2_5_" transform="translate(180.000000, 64.000000)">
							<g id="B2_5_">
								
									<rect id="Rectangle-Copy-6_5_" x="-6" y="6" transform="matrix(2.729302e-06 1 -1 2.729302e-06 10.0001 5.9999)" class="st4" width="16" height="4"/>
								<path id="Rectangle-9-Copy-5_5_" class="st5" d="M2,0L2,0c0.4,0,0.7,0.3,0.7,0.7L3.8,14c0.1,1-0.7,1.9-1.7,2
									c-0.1,0-0.1,0-0.2,0l0,0c-1,0-1.8-0.8-1.8-1.8c0-0.1,0-0.1,0-0.2L1.3,0.7C1.3,0.3,1.6,0,2,0z"/>
							</g>
						</g>
						<g id="Rain-_x2013_-B2_6_" transform="translate(0.000000, 118.000000)">
							<g id="B2_6_">
								
									<rect id="Rectangle-Copy-6_6_" x="-6" y="6" transform="matrix(2.729302e-06 1 -1 2.729302e-06 10.0001 6)" class="st4" width="16" height="4"/>
								<path id="Rectangle-9-Copy-5_6_" class="st5" d="M2,0L2,0c0.4,0,0.7,0.3,0.7,0.7L3.8,14c0.1,1-0.7,1.9-1.7,2
									c-0.1,0-0.1,0-0.2,0l0,0c-1,0-1.8-0.8-1.8-1.8c0-0.1,0-0.1,0-0.2L1.3,0.7C1.3,0.3,1.6,0,2,0z"/>
							</g>
						</g>
						<g id="Rain-_x2013_-B3_3_" transform="translate(30.000000, 35.000000)">
							<g id="B3_3_">
								
									<rect id="Rectangle-Copy-5_3_" x="-10" y="10" transform="matrix(2.729302e-06 1 -1 2.729302e-06 14 10)" class="st4" width="24" height="4"/>
								<path id="Rectangle-9-Copy-6_3_" class="st5" d="M2,0L2,0c0.4,0,0.7,0.3,0.7,0.7L3.9,22c0.1,1-0.7,1.9-1.8,2
									c0,0-0.1,0-0.1,0l0,0c-1,0-1.9-0.8-1.9-1.9c0,0,0-0.1,0-0.1L1.3,0.7C1.3,0.3,1.6,0,2,0z"/>
							</g>
						</g>
						<g id="Rain-_x2013_-C4" transform="translate(16.000000, 123.000000)">
							<g id="C4">
								<path id="Rectangle-9-Copy-15" class="st5" d="M1,0L1,0c0.6,0,1,0.4,1,1l0,38c0,0.6-0.4,1-1,1l0,0c-0.6,0-1-0.4-1-1L0,1
									C0,0.4,0.4,0,1,0z"/>
							</g>
						</g>
						<g id="Rain-_x2013_-B3_4_" transform="translate(120.000000, 0.000000)">
							<g id="B3_4_">
								
									<rect id="Rectangle-Copy-5_4_" x="-10" y="10" transform="matrix(2.729302e-06 1 -1 2.729302e-06 14 9.9999)" class="st4" width="24" height="4"/>
								<path id="Rectangle-9-Copy-6_4_" class="st5" d="M2,0L2,0c0.4,0,0.7,0.3,0.7,0.7L3.9,22c0.1,1-0.7,1.9-1.8,2
									c0,0-0.1,0-0.1,0l0,0c-1,0-1.9-0.8-1.9-1.9c0,0,0-0.1,0-0.1L1.3,0.7C1.3,0.3,1.6,0,2,0z"/>
							</g>
						</g>
						<g id="Rain-_x2013_-C4_1_" transform="translate(121.000000, 59.000000)">
							<g id="C4_1_">
								<path id="Rectangle-9-Copy-15_1_" class="st5" d="M1,0L1,0c0.6,0,1,0.4,1,1l0,38c0,0.6-0.4,1-1,1l0,0c-0.6,0-1-0.4-1-1L0,1
									C0,0.4,0.4,0,1,0z"/>
							</g>
						</g>
						<g id="Rain-_x2013_-C2_3_" transform="translate(91.000000, 46.000000)">
							<g id="C2_3_">
								<path id="Rectangle-9-Copy-13_3_" class="st5" d="M1,0L1,0c0.6,0,1,0.4,1,1l0,14c0,0.6-0.4,1-1,1l0,0c-0.6,0-1-0.4-1-1L0,1
									C0,0.4,0.4,0,1,0z"/>
							</g>
						</g>
						<g id="Rain-_x2013_-B3_5_" transform="translate(105.000000, 35.000000)">
							<g id="B3_5_">
								
									<rect id="Rectangle-Copy-5_5_" x="-10" y="10" transform="matrix(2.729302e-06 1 -1 2.729302e-06 14.0001 9.9999)" class="st4" width="24" height="4"/>
								<path id="Rectangle-9-Copy-6_5_" class="st5" d="M2,0L2,0c0.4,0,0.7,0.3,0.7,0.7L3.9,22c0.1,1-0.7,1.9-1.8,2
									c0,0-0.1,0-0.1,0l0,0c-1,0-1.9-0.8-1.9-1.9c0,0,0-0.1,0-0.1L1.3,0.7C1.3,0.3,1.6,0,2,0z"/>
							</g>
						</g>
						<g id="Rain-_x2013_-C2_4_" transform="translate(181.000000, 43.000000)">
							<g id="C2_4_">
								<path id="Rectangle-9-Copy-13_4_" class="st5" d="M1,0L1,0c0.6,0,1,0.4,1,1l0,14c0,0.6-0.4,1-1,1l0,0c-0.6,0-1-0.4-1-1L0,1
									C0,0.4,0.4,0,1,0z"/>
							</g>
						</g>
						<g id="Rain-_x2013_-C2_5_" transform="translate(1.000000, 97.000000)">
							<g id="C2_5_">
								<path id="Rectangle-9-Copy-13_5_" class="st5" d="M1,0L1,0c0.6,0,1,0.4,1,1l0,14c0,0.6-0.4,1-1,1l0,0c-0.6,0-1-0.4-1-1L0,1
									C0,0.4,0.4,0,1,0z"/>
							</g>
						</g>
					</g>
					<g id="_x37_0" class="st7">
						<g id="Rain-_x2013_-B4_2_" transform="translate(60.000000, 96.000000)">
							<g id="B4_2_">
								
									<rect id="Rectangle_2_" x="-18" y="18" transform="matrix(2.729302e-06 1 -1 2.729302e-06 22.0001 17.9999)" class="st4" width="40" height="4"/>
								<path id="Rectangle-9-Copy-7_2_" class="st5" d="M2,0L2,0c0.4,0,0.7,0.3,0.7,0.7L3.9,38c0,1.1-0.8,2-1.9,2c0,0,0,0-0.1,0
									l0,0c-1.1,0-1.9-0.9-1.9-1.9c0,0,0,0,0-0.1L1.3,0.7C1.3,0.3,1.6,0,2,0z"/>
							</g>
						</g>
						<g id="Rain-_x2013_-B3_6_" transform="translate(105.000000, 78.000000)">
							<g id="B3_6_">
								
									<rect id="Rectangle-Copy-5_6_" x="-10" y="10" transform="matrix(2.729302e-06 1 -1 2.729302e-06 14.0001 9.9999)" class="st4" width="24" height="4"/>
								<path id="Rectangle-9-Copy-6_6_" class="st5" d="M2,0L2,0c0.4,0,0.7,0.3,0.7,0.7L3.9,22c0.1,1-0.7,1.9-1.8,2
									c0,0-0.1,0-0.1,0l0,0c-1,0-1.9-0.8-1.9-1.9c0,0,0-0.1,0-0.1L1.3,0.7C1.3,0.3,1.6,0,2,0z"/>
							</g>
						</g>
						<g id="Rain-_x2013_-B4_3_" transform="translate(150.000000, 77.000000)">
							<g id="B4_3_">
								
									<rect id="Rectangle_3_" x="-18" y="18" transform="matrix(2.729302e-06 1 -1 2.729302e-06 22.0001 17.9999)" class="st4" width="40" height="4"/>
								<path id="Rectangle-9-Copy-7_3_" class="st5" d="M2,0L2,0c0.4,0,0.7,0.3,0.7,0.7L3.9,38c0,1.1-0.8,2-1.9,2c0,0,0,0-0.1,0
									l0,0c-1.1,0-1.9-0.9-1.9-1.9c0,0,0,0,0-0.1L1.3,0.7C1.3,0.3,1.6,0,2,0z"/>
							</g>
						</g>
						<g id="Rain-_x2013_-B2_7_" transform="translate(90.000000, 33.000000)">
							<g id="B2_7_">
								
									<rect id="Rectangle-Copy-6_7_" x="-6" y="6" transform="matrix(2.729302e-06 1 -1 2.729302e-06 10 5.9999)" class="st4" width="16" height="4"/>
								<path id="Rectangle-9-Copy-5_7_" class="st5" d="M2,0L2,0c0.4,0,0.7,0.3,0.7,0.7L3.8,14c0.1,1-0.7,1.9-1.7,2
									c-0.1,0-0.1,0-0.2,0l0,0c-1,0-1.8-0.8-1.8-1.8c0-0.1,0-0.1,0-0.2L1.3,0.7C1.3,0.3,1.6,0,2,0z"/>
							</g>
						</g>
						<g id="Rain-_x2013_-B2_8_" transform="translate(180.000000, 30.000000)">
							<g id="B2_8_">
								
									<rect id="Rectangle-Copy-6_8_" x="-6" y="6" transform="matrix(2.729302e-06 1 -1 2.729302e-06 10.0001 5.9999)" class="st4" width="16" height="4"/>
								<path id="Rectangle-9-Copy-5_8_" class="st5" d="M2,0L2,0c0.4,0,0.7,0.3,0.7,0.7L3.8,14c0.1,1-0.7,1.9-1.7,2
									c-0.1,0-0.1,0-0.2,0l0,0c-1,0-1.8-0.8-1.8-1.8c0-0.1,0-0.1,0-0.2L1.3,0.7C1.3,0.3,1.6,0,2,0z"/>
							</g>
						</g>
						<g id="Rain-_x2013_-B2_9_" transform="translate(75.000000, 91.000000)">
							<g id="B2_9_">
								
									<rect id="Rectangle-Copy-6_9_" x="-6" y="6" transform="matrix(2.729302e-06 1 -1 2.729302e-06 10.0001 6)" class="st4" width="16" height="4"/>
								<path id="Rectangle-9-Copy-5_9_" class="st5" d="M2,0L2,0c0.4,0,0.7,0.3,0.7,0.7L3.8,14c0.1,1-0.7,1.9-1.7,2
									c-0.1,0-0.1,0-0.2,0l0,0c-1,0-1.8-0.8-1.8-1.8c0-0.1,0-0.1,0-0.2L1.3,0.7C1.3,0.3,1.6,0,2,0z"/>
							</g>
						</g>
						<g id="Rain-_x2013_-B2_10_" transform="translate(165.000000, 80.000000)">
							<g id="B2_10_">
								
									<rect id="Rectangle-Copy-6_10_" x="-6" y="6" transform="matrix(2.729302e-06 1 -1 2.729302e-06 10.0001 5.9999)" class="st4" width="16" height="4"/>
								<path id="Rectangle-9-Copy-5_10_" class="st5" d="M2,0L2,0c0.4,0,0.7,0.3,0.7,0.7L3.8,14c0.1,1-0.7,1.9-1.7,2
									c-0.1,0-0.1,0-0.2,0l0,0c-1,0-1.8-0.8-1.8-1.8c0-0.1,0-0.1,0-0.2L1.3,0.7C1.3,0.3,1.6,0,2,0z"/>
							</g>
						</g>
						<g id="Rain-_x2013_-D2_2_" transform="translate(60.000000, 58.000000)">
							<path id="Oval-4-Copy-8_2_" class="st5" d="M2,6.9c1.1,0,2-0.9,2-2c0-0.6-0.5-2-1.6-4.1l0,0C2.3,0.5,2,0.4,1.8,0.6
								c-0.1,0-0.2,0.1-0.2,0.2C0.5,2.9,0,4.2,0,4.9C0,6,0.9,6.9,2,6.9z"/>
						</g>
						<g id="Rain-_x2013_-D2_3_" transform="translate(15.000000, 116.000000)">
							<path id="Oval-4-Copy-8_3_" class="st5" d="M2,6.9c1.1,0,2-0.9,2-2c0-0.6-0.5-2-1.6-4.1l0,0C2.3,0.5,2,0.4,1.8,0.6
								c-0.1,0-0.2,0.1-0.2,0.2C0.5,2.9,0,4.2,0,4.9C0,6,0.9,6.9,2,6.9z"/>
						</g>
						<g id="Rain-_x2013_-D2_4_" transform="translate(150.000000, 7.000000)">
							<path id="Oval-4-Copy-8_4_" class="st5" d="M2,6.9c1.1,0,2-0.9,2-2c0-0.6-0.5-2-1.6-4.1l0,0C2.3,0.5,2,0.4,1.8,0.6
								c-0.1,0-0.2,0.1-0.2,0.2C0.5,2.9,0,4.2,0,4.9C0,6,0.9,6.9,2,6.9z"/>
						</g>
						<g id="Rain-_x2013_-B3_7_" transform="translate(45.000000, 101.000000)" class="st3">
							<g id="B3_7_">
								
									<rect id="Rectangle-Copy-5_7_" x="-10" y="10" transform="matrix(2.729302e-06 1 -1 2.729302e-06 14.0001 10)" class="st4" width="24" height="4"/>
								<path id="Rectangle-9-Copy-6_7_" class="st5" d="M2,0L2,0c0.4,0,0.7,0.3,0.7,0.7L3.9,22c0.1,1-0.7,1.9-1.8,2
									c0,0-0.1,0-0.1,0l0,0c-1,0-1.9-0.8-1.9-1.9c0,0,0-0.1,0-0.1L1.3,0.7C1.3,0.3,1.6,0,2,0z"/>
							</g>
						</g>
						<g id="Rain-_x2013_-B3_8_" transform="translate(30.000000, 74.000000)">
							<g id="B3_8_">
								
									<rect id="Rectangle-Copy-5_8_" x="-10" y="10" transform="matrix(2.729302e-06 1 -1 2.729302e-06 14.0001 10)" class="st4" width="24" height="4"/>
								<path id="Rectangle-9-Copy-6_8_" class="st5" d="M2,0L2,0c0.4,0,0.7,0.3,0.7,0.7L3.9,22c0.1,1-0.7,1.9-1.8,2
									c0,0-0.1,0-0.1,0l0,0c-1,0-1.9-0.8-1.9-1.9c0,0,0-0.1,0-0.1L1.3,0.7C1.3,0.3,1.6,0,2,0z"/>
							</g>
						</g>
						<g id="Rain-_x2013_-B3_9_" transform="translate(120.000000, 39.000000)">
							<g id="B3_9_">
								
									<rect id="Rectangle-Copy-5_9_" x="-10" y="10" transform="matrix(2.729302e-06 1 -1 2.729302e-06 14.0001 9.9999)" class="st4" width="24" height="4"/>
								<path id="Rectangle-9-Copy-6_9_" class="st5" d="M2,0L2,0c0.4,0,0.7,0.3,0.7,0.7L3.9,22c0.1,1-0.7,1.9-1.8,2
									c0,0-0.1,0-0.1,0l0,0c-1,0-1.9-0.8-1.9-1.9c0,0,0-0.1,0-0.1L1.3,0.7C1.3,0.3,1.6,0,2,0z"/>
							</g>
						</g>
						<g id="Rain-_x2013_-B4_4_" transform="translate(45.000000, 35.000000)">
							<g id="B4_4_">
								
									<rect id="Rectangle_4_" x="-18" y="18" transform="matrix(2.729302e-06 1 -1 2.729302e-06 22 17.9999)" class="st4" width="40" height="4"/>
								<path id="Rectangle-9-Copy-7_4_" class="st5" d="M2,0L2,0c0.4,0,0.7,0.3,0.7,0.7L3.9,38c0,1.1-0.8,2-1.9,2c0,0,0,0-0.1,0
									l0,0c-1.1,0-1.9-0.9-1.9-1.9c0,0,0,0,0-0.1L1.3,0.7C1.3,0.3,1.6,0,2,0z"/>
							</g>
						</g>
						<g id="Rain-_x2013_-B4_5_" transform="translate(135.000000, 0.000000)">
							<g id="B4_5_">
								
									<rect id="Rectangle_5_" x="-18" y="18" transform="matrix(2.729302e-06 1 -1 2.729302e-06 22 17.9999)" class="st4" width="40" height="4"/>
								<path id="Rectangle-9-Copy-7_5_" class="st5" d="M2,0L2,0c0.4,0,0.7,0.3,0.7,0.7L3.9,38c0,1.1-0.8,2-1.9,2c0,0,0,0-0.1,0
									l0,0c-1.1,0-1.9-0.9-1.9-1.9c0,0,0,0,0-0.1L1.3,0.7C1.3,0.3,1.6,0,2,0z"/>
							</g>
						</g>
						<g id="Rain-_x2013_-B3_10_" transform="translate(195.000000, 40.000000)">
							<g id="B3_10_">
								
									<rect id="Rectangle-Copy-5_10_" x="-10" y="10" transform="matrix(2.729302e-06 1 -1 2.729302e-06 14.0001 9.9999)" class="st4" width="24" height="4"/>
								<path id="Rectangle-9-Copy-6_10_" class="st5" d="M2,0L2,0c0.4,0,0.7,0.3,0.7,0.7L3.9,22c0.1,1-0.7,1.9-1.8,2
									c0,0-0.1,0-0.1,0l0,0c-1,0-1.9-0.8-1.9-1.9c0,0,0-0.1,0-0.1L1.3,0.7C1.3,0.3,1.6,0,2,0z"/>
							</g>
						</g>
						<g id="Rain-_x2013_-B4_6_" transform="translate(0.000000, 59.000000)">
							<g id="B4_6_">
								
									<rect id="Rectangle_6_" x="-18" y="18" transform="matrix(2.729302e-06 1 -1 2.729302e-06 22 18)" class="st4" width="40" height="4"/>
								<path id="Rectangle-9-Copy-7_6_" class="st5" d="M2,0L2,0c0.4,0,0.7,0.3,0.7,0.7L3.9,38c0,1.1-0.8,2-1.9,2c0,0,0,0-0.1,0
									l0,0c-1.1,0-1.9-0.9-1.9-1.9c0,0,0,0,0-0.1L1.3,0.7C1.3,0.3,1.6,0,2,0z"/>
							</g>
						</g>
						<g id="Rain-_x2013_-C3_1_" transform="translate(76.000000, 32.000000)">
							<g id="C3_1_">
								<path id="Rectangle-9-Copy-14_1_" class="st5" d="M1,0L1,0c0.6,0,1,0.4,1,1l0,22c0,0.6-0.4,1-1,1l0,0c-0.6,0-1-0.4-1-1L0,1
									C0,0.4,0.4,0,1,0z"/>
							</g>
						</g>
						<g id="Rain-_x2013_-C3_2_" transform="translate(166.000000, 5.000000)">
							<g id="C3_2_">
								<path id="Rectangle-9-Copy-14_2_" class="st5" d="M1,0L1,0c0.6,0,1,0.4,1,1l0,22c0,0.6-0.4,1-1,1l0,0c-0.6,0-1-0.4-1-1L0,1
									C0,0.4,0.4,0,1,0z"/>
							</g>
						</g>
						<g id="Rain-_x2013_-D2_5_" transform="translate(195.000000, 67.000000)">
							<path id="Oval-4-Copy-8_5_" class="st5" d="M2,6.9c1.1,0,2-0.9,2-2c0-0.6-0.5-2-1.6-4.1l0,0C2.3,0.5,2,0.4,1.8,0.6
								c-0.1,0-0.2,0.1-0.2,0.2C0.5,2.9,0,4.2,0,4.9C0,6,0.9,6.9,2,6.9z"/>
						</g>
					</g>
				</g>
			</g>
		</g>
	</g>
</g>
</svg>
