<?xml version="1.0" encoding="UTF-8"?>
<svg width="40px" height="120px" viewBox="0 0 40 120" version="1.1" xmlns="http://www.w3.org/2000/svg" xmlns:xlink="http://www.w3.org/1999/xlink">
    <!-- Generator: Sketch 51.2 (57519) - http://www.bohemiancoding.com/sketch -->
    <title>Rain Nowcast Icon / XS Moderate</title>
    <desc>Created with Sketch.</desc>
    <defs>
        <rect id="path-1" x="0" y="-3.60822483e-14" width="40" height="120"></rect>
    </defs>
    <g id="Rain-Nowcast-Icon-/-XS-Moderate" stroke="none" stroke-width="1" fill="none" fill-rule="evenodd">
        <mask id="mask-2" fill="white">
            <use xlink:href="#path-1"></use>
        </mask>
        <g id="Mask" fill-rule="nonzero"></g>
        <g id="Rain-Nowcaast-/-Icon-2-Moderate" mask="url(#mask-2)">
            <g transform="translate(-85.000000, 70.931379) rotate(30.000000) translate(85.000000, -70.931379) translate(-188.000000, -54.068621)" id="Group-+-Group-2-Mask">
                <g>
                    <g id="Group-2" transform="translate(1.000000, 2.000000)">
                        <g id="Rain-–-B2" transform="translate(0.000000, 132.000000)">
                            <g id="B2">
                                <rect id="Rectangle-Copy-6" fill-rule="nonzero" x="0" y="0" width="4" height="16"></rect>
                                <path d="M2,0 L2,0 C2.37868474,-6.95632574e-17 2.69413235,0.29031399 2.72550233,0.667697156 L3.83432141,14.0068742 C3.91853267,15.0199419 3.16554571,15.9094623 2.15247797,15.9936735 C2.10176129,15.9978894 2.05089159,16 2,16 L2,16 C0.983438251,16 0.15935213,15.1759139 0.15935213,14.1593521 C0.15935213,14.1084605 0.161462762,14.0575908 0.165678585,14.0068742 L1.27449767,0.667697156 C1.30586765,0.29031399 1.62131526,6.95632574e-17 2,0 Z" id="Rectangle-9-Copy-5" fill="#5EB4E9" fill-rule="nonzero"></path>
                            </g>
                        </g>
                        <g id="Rain-–-B2" transform="translate(65.000000, 92.000000)">
                            <g id="B2">
                                <rect id="Rectangle-Copy-6" fill-rule="nonzero" x="0" y="0" width="4" height="16"></rect>
                                <path d="M2,0 L2,0 C2.37868474,-6.95632574e-17 2.69413235,0.29031399 2.72550233,0.667697156 L3.83432141,14.0068742 C3.91853267,15.0199419 3.16554571,15.9094623 2.15247797,15.9936735 C2.10176129,15.9978894 2.05089159,16 2,16 L2,16 C0.983438251,16 0.15935213,15.1759139 0.15935213,14.1593521 C0.15935213,14.1084605 0.161462762,14.0575908 0.165678585,14.0068742 L1.27449767,0.667697156 C1.30586765,0.29031399 1.62131526,6.95632574e-17 2,0 Z" id="Rectangle-9-Copy-5" fill="#5EB4E9" fill-rule="nonzero"></path>
                            </g>
                        </g>
                        <g id="Rain-–-B2" transform="translate(156.000000, 36.000000)">
                            <g id="B2">
                                <rect id="Rectangle-Copy-6" fill-rule="nonzero" x="0" y="0" width="4" height="16"></rect>
                                <path d="M2,0 L2,0 C2.37868474,-6.95632574e-17 2.69413235,0.29031399 2.72550233,0.667697156 L3.83432141,14.0068742 C3.91853267,15.0199419 3.16554571,15.9094623 2.15247797,15.9936735 C2.10176129,15.9978894 2.05089159,16 2,16 L2,16 C0.983438251,16 0.15935213,15.1759139 0.15935213,14.1593521 C0.15935213,14.1084605 0.161462762,14.0575908 0.165678585,14.0068742 L1.27449767,0.667697156 C1.30586765,0.29031399 1.62131526,6.95632574e-17 2,0 Z" id="Rectangle-9-Copy-5" fill="#5EB4E9" fill-rule="nonzero"></path>
                            </g>
                        </g>
                        <g id="Rain-–-C2" transform="translate(27.000000, 165.000000)" fill="#5EB4E9">
                            <g id="C2">
                                <rect id="Rectangle-9-Copy-13" fill-rule="nonzero" x="0" y="0" width="2" height="16" rx="1"></rect>
                            </g>
                        </g>
                        <g id="Rain-–-C2" transform="translate(118.000000, 125.000000)" fill="#5EB4E9">
                            <g id="C2">
                                <rect id="Rectangle-9-Copy-13" fill-rule="nonzero" x="0" y="0" width="2" height="16" rx="1"></rect>
                            </g>
                        </g>
                        <g id="Rain-–-C2" transform="translate(92.000000, 109.000000)" fill="#5EB4E9">
                            <g id="C2">
                                <rect id="Rectangle-9-Copy-13" fill-rule="nonzero" x="0" y="0" width="2" height="16" rx="1"></rect>
                            </g>
                        </g>
                        <g id="Rain-–-C2" transform="translate(183.000000, 70.000000)" fill="#5EB4E9">
                            <g id="C2">
                                <rect id="Rectangle-9-Copy-13" fill-rule="nonzero" x="0" y="0" width="2" height="16" rx="1"></rect>
                            </g>
                        </g>
                        <g id="Rain-–-B2" transform="translate(130.000000, 69.000000)">
                            <g id="B2">
                                <rect id="Rectangle-Copy-6" fill-rule="nonzero" x="0" y="0" width="4" height="16"></rect>
                                <path d="M2,0 L2,0 C2.37868474,-6.95632574e-17 2.69413235,0.29031399 2.72550233,0.667697156 L3.83432141,14.0068742 C3.91853267,15.0199419 3.16554571,15.9094623 2.15247797,15.9936735 C2.10176129,15.9978894 2.05089159,16 2,16 L2,16 C0.983438251,16 0.15935213,15.1759139 0.15935213,14.1593521 C0.15935213,14.1084605 0.161462762,14.0575908 0.165678585,14.0068742 L1.27449767,0.667697156 C1.30586765,0.29031399 1.62131526,6.95632574e-17 2,0 Z" id="Rectangle-9-Copy-5" fill="#5EB4E9" fill-rule="nonzero"></path>
                            </g>
                        </g>
                        <g id="Rain-–-B2" transform="translate(13.000000, 158.000000)">
                            <g id="B2">
                                <rect id="Rectangle-Copy-6" fill-rule="nonzero" x="0" y="0" width="4" height="16"></rect>
                                <path d="M2,0 L2,0 C2.37868474,-6.95632574e-17 2.69413235,0.29031399 2.72550233,0.667697156 L3.83432141,14.0068742 C3.91853267,15.0199419 3.16554571,15.9094623 2.15247797,15.9936735 C2.10176129,15.9978894 2.05089159,16 2,16 L2,16 C0.983438251,16 0.15935213,15.1759139 0.15935213,14.1593521 C0.15935213,14.1084605 0.161462762,14.0575908 0.165678585,14.0068742 L1.27449767,0.667697156 C1.30586765,0.29031399 1.62131526,6.95632574e-17 2,0 Z" id="Rectangle-9-Copy-5" fill="#5EB4E9" fill-rule="nonzero"></path>
                            </g>
                        </g>
                        <g id="Rain-–-B2" transform="translate(52.000000, 81.000000)">
                            <g id="B2">
                                <rect id="Rectangle-Copy-6" fill-rule="nonzero" x="0" y="0" width="4" height="16"></rect>
                                <path d="M2,0 L2,0 C2.37868474,-6.95632574e-17 2.69413235,0.29031399 2.72550233,0.667697156 L3.83432141,14.0068742 C3.91853267,15.0199419 3.16554571,15.9094623 2.15247797,15.9936735 C2.10176129,15.9978894 2.05089159,16 2,16 L2,16 C0.983438251,16 0.15935213,15.1759139 0.15935213,14.1593521 C0.15935213,14.1084605 0.161462762,14.0575908 0.165678585,14.0068742 L1.27449767,0.667697156 C1.30586765,0.29031399 1.62131526,6.95632574e-17 2,0 Z" id="Rectangle-9-Copy-5" fill="#5EB4E9" fill-rule="nonzero"></path>
                            </g>
                        </g>
                        <g id="Rain-–-B2" transform="translate(143.000000, 11.000000)">
                            <g id="B2">
                                <rect id="Rectangle-Copy-6" fill-rule="nonzero" x="0" y="0" width="4" height="16"></rect>
                                <path d="M2,0 L2,0 C2.37868474,-6.95632574e-17 2.69413235,0.29031399 2.72550233,0.667697156 L3.83432141,14.0068742 C3.91853267,15.0199419 3.16554571,15.9094623 2.15247797,15.9936735 C2.10176129,15.9978894 2.05089159,16 2,16 L2,16 C0.983438251,16 0.15935213,15.1759139 0.15935213,14.1593521 C0.15935213,14.1084605 0.161462762,14.0575908 0.165678585,14.0068742 L1.27449767,0.667697156 C1.30586765,0.29031399 1.62131526,6.95632574e-17 2,0 Z" id="Rectangle-9-Copy-5" fill="#5EB4E9" fill-rule="nonzero"></path>
                            </g>
                        </g>
                        <g id="Rain-–-B2" transform="translate(52.000000, 140.000000)">
                            <g id="B2">
                                <rect id="Rectangle-Copy-6" fill-rule="nonzero" x="0" y="0" width="4" height="16"></rect>
                                <path d="M2,0 L2,0 C2.37868474,-6.95632574e-17 2.69413235,0.29031399 2.72550233,0.667697156 L3.83432141,14.0068742 C3.91853267,15.0199419 3.16554571,15.9094623 2.15247797,15.9936735 C2.10176129,15.9978894 2.05089159,16 2,16 L2,16 C0.983438251,16 0.15935213,15.1759139 0.15935213,14.1593521 C0.15935213,14.1084605 0.161462762,14.0575908 0.165678585,14.0068742 L1.27449767,0.667697156 C1.30586765,0.29031399 1.62131526,6.95632574e-17 2,0 Z" id="Rectangle-9-Copy-5" fill="#5EB4E9" fill-rule="nonzero"></path>
                            </g>
                        </g>
                        <g id="Rain-–-B2" transform="translate(143.000000, 65.000000)">
                            <g id="B2">
                                <rect id="Rectangle-Copy-6" fill-rule="nonzero" x="0" y="0" width="4" height="16"></rect>
                                <path d="M2,0 L2,0 C2.37868474,-6.95632574e-17 2.69413235,0.29031399 2.72550233,0.667697156 L3.83432141,14.0068742 C3.91853267,15.0199419 3.16554571,15.9094623 2.15247797,15.9936735 C2.10176129,15.9978894 2.05089159,16 2,16 L2,16 C0.983438251,16 0.15935213,15.1759139 0.15935213,14.1593521 C0.15935213,14.1084605 0.161462762,14.0575908 0.165678585,14.0068742 L1.27449767,0.667697156 C1.30586765,0.29031399 1.62131526,6.95632574e-17 2,0 Z" id="Rectangle-9-Copy-5" fill="#5EB4E9" fill-rule="nonzero"></path>
                            </g>
                        </g>
                        <g id="Rain-–-B3" transform="translate(26.000000, 104.000000)">
                            <g id="B3">
                                <rect id="Rectangle-Copy-5" fill-rule="nonzero" x="0" y="0" width="4" height="16"></rect>
                                <path d="M2,-2.22044605e-13 L2,-2.22044605e-13 C2.3768214,-2.22113826e-13 2.69073701,0.288844074 2.72203032,0.664363839 L3.83390904,14.0069085 C3.91831237,15.0197485 3.16566575,15.9092399 2.15282575,15.9936433 C2.10199395,15.9978793 2.051008,16 2,16 L2,16 C0.983649283,16 0.159734237,15.176085 0.159734237,14.1597342 C0.159734237,14.1087262 0.161854976,14.0577403 0.16609096,14.0069085 L1.27796968,0.664363839 C1.30926299,0.288844074 1.6231786,-2.21975384e-13 2,-2.22044605e-13 Z" id="Rectangle-9-Copy-6" fill="#5EB4E9" fill-rule="nonzero"></path>
                            </g>
                        </g>
                        <g id="Rain-–-B3" transform="translate(117.000000, 56.000000)">
                            <g id="B3">
                                <rect id="Rectangle-Copy-5" fill-rule="nonzero" x="0" y="0" width="4" height="16"></rect>
                                <path d="M2,-2.22044605e-13 L2,-2.22044605e-13 C2.3768214,-2.22113826e-13 2.69073701,0.288844074 2.72203032,0.664363839 L3.83390904,14.0069085 C3.91831237,15.0197485 3.16566575,15.9092399 2.15282575,15.9936433 C2.10199395,15.9978793 2.051008,16 2,16 L2,16 C0.983649283,16 0.159734237,15.176085 0.159734237,14.1597342 C0.159734237,14.1087262 0.161854976,14.0577403 0.16609096,14.0069085 L1.27796968,0.664363839 C1.30926299,0.288844074 1.6231786,-2.21975384e-13 2,-2.22044605e-13 Z" id="Rectangle-9-Copy-6" fill="#5EB4E9" fill-rule="nonzero"></path>
                            </g>
                        </g>
                        <g id="40" opacity="0.3" transform="translate(26.000000, 0.000000)">
                            <g id="Rain-–-C3" transform="translate(40.000000, 54.000000)" fill="#5EB4E9">
                                <g id="C3">
                                    <rect id="Rectangle-9-Copy-14" fill-rule="nonzero" x="0" y="0" width="2" height="24" rx="1"></rect>
                                </g>
                            </g>
                            <g id="Rain-–-C3" transform="translate(131.000000, 6.000000)" fill="#5EB4E9">
                                <g id="C3">
                                    <rect id="Rectangle-9-Copy-14" fill-rule="nonzero" x="0" y="0" width="2" height="24" rx="1"></rect>
                                </g>
                            </g>
                            <g id="Rain-–-C2" transform="translate(92.000000, 105.000000)" fill="#5EB4E9">
                                <g id="C2">
                                    <rect id="Rectangle-9-Copy-13" fill-rule="nonzero" x="0" y="0" width="2" height="16" rx="1"></rect>
                                </g>
                            </g>
                            <g id="Rain-–-B4" transform="translate(52.000000, 64.000000)">
                                <g id="B4">
                                    <rect id="Rectangle" fill-rule="nonzero" x="0" y="0" width="4" height="40"></rect>
                                    <path d="M2,-2.20268248e-13 L2,-2.20268248e-13 C2.37172886,-2.20336534e-13 2.67649247,0.294774086 2.68887655,0.666296605 L3.93337034,38.0011102 C3.9689627,39.0688811 3.13221663,39.9633338 2.06444568,39.9989262 C2.04297124,39.999642 2.02148637,40 2,40 L2,40 C0.931636004,40 0.065555864,39.1339199 0.065555864,38.0655559 C0.065555864,38.0440695 0.0659138459,38.0225846 0.0666296605,38.0011102 L1.31112345,0.666296605 C1.32350753,0.294774086 1.62827114,-2.20199963e-13 2,-2.20268248e-13 Z" id="Rectangle-9-Copy-7" fill="#5EB4E9" fill-rule="nonzero"></path>
                                </g>
                            </g>
                            <g id="Rain-–-D2" transform="translate(13.000000, 101.000000)" fill="#5EB4E9" fill-rule="nonzero">
                                <path d="M2,6.88984597 C3.1045695,6.88984597 4,5.99441547 4,4.88984597 C4,4.24120104 3.4827277,2.87073857 2.44818311,0.778458561 L2.44815153,0.778474174 C2.32576422,0.530956066 2.02589663,0.429517511 1.77837853,0.55190482 C1.68004452,0.600526856 1.60043111,0.680140293 1.5518091,0.778474313 C0.517269701,2.87074545 0,4.24120267 0,4.88984597 C0,5.99441547 0.8954305,6.88984597 2,6.88984597 Z" id="Oval-4-Copy-8"></path>
                            </g>
                            <g id="Rain-–-D2" transform="translate(130.000000, 84.000000)" fill="#5EB4E9" fill-rule="nonzero">
                                <path d="M2,6.88984597 C3.1045695,6.88984597 4,5.99441547 4,4.88984597 C4,4.24120104 3.4827277,2.87073857 2.44818311,0.778458561 L2.44815153,0.778474174 C2.32576422,0.530956066 2.02589663,0.429517511 1.77837853,0.55190482 C1.68004452,0.600526856 1.60043111,0.680140293 1.5518091,0.778474313 C0.517269701,2.87074545 0,4.24120267 0,4.88984597 C0,5.99441547 0.8954305,6.88984597 2,6.88984597 Z" id="Oval-4-Copy-8"></path>
                            </g>
                            <g id="Rain-–-B4" transform="translate(143.000000, 0.000000)">
                                <g id="B4">
                                    <rect id="Rectangle" fill-rule="nonzero" x="0" y="0" width="4" height="40"></rect>
                                    <path d="M2,-2.20268248e-13 L2,-2.20268248e-13 C2.37172886,-2.20336534e-13 2.67649247,0.294774086 2.68887655,0.666296605 L3.93337034,38.0011102 C3.9689627,39.0688811 3.13221663,39.9633338 2.06444568,39.9989262 C2.04297124,39.999642 2.02148637,40 2,40 L2,40 C0.931636004,40 0.065555864,39.1339199 0.065555864,38.0655559 C0.065555864,38.0440695 0.0659138459,38.0225846 0.0666296605,38.0011102 L1.31112345,0.666296605 C1.32350753,0.294774086 1.62827114,-2.20199963e-13 2,-2.20268248e-13 Z" id="Rectangle-9-Copy-7" fill="#5EB4E9" fill-rule="nonzero"></path>
                                </g>
                            </g>
                            <g id="Rain-–-B3" transform="translate(0.000000, 76.000000)">
                                <g id="B3">
                                    <rect id="Rectangle-Copy-5" fill-rule="nonzero" x="0" y="0" width="4" height="24"></rect>
                                    <path d="M2,-2.22044605e-13 L2,-2.22044605e-13 C2.37402488,-2.22113312e-13 2.68289951,0.292191224 2.70364668,0.665640235 L3.88905996,22.0030793 C3.94702102,23.0463783 3.14824678,23.939126 2.10494778,23.997087 C2.06999886,23.9990286 2.0350028,24 2,24 L2,24 C0.955092203,24 0.108027069,23.1529349 0.108027069,22.1080271 C0.108027069,22.0730243 0.108998433,22.0380282 0.110940039,22.0030793 L1.29635332,0.665640235 C1.31710049,0.292191224 1.62597512,-2.21975898e-13 2,-2.22044605e-13 Z" id="Rectangle-9-Copy-6" fill="#5EB4E9" fill-rule="nonzero"></path>
                                </g>
                            </g>
                            <g id="Rain-–-B3" transform="translate(91.000000, 28.000000)">
                                <g id="B3">
                                    <rect id="Rectangle-Copy-5" fill-rule="nonzero" x="0" y="0" width="4" height="24"></rect>
                                    <path d="M2,-2.22044605e-13 L2,-2.22044605e-13 C2.37402488,-2.22113312e-13 2.68289951,0.292191224 2.70364668,0.665640235 L3.88905996,22.0030793 C3.94702102,23.0463783 3.14824678,23.939126 2.10494778,23.997087 C2.06999886,23.9990286 2.0350028,24 2,24 L2,24 C0.955092203,24 0.108027069,23.1529349 0.108027069,22.1080271 C0.108027069,22.0730243 0.108998433,22.0380282 0.110940039,22.0030793 L1.29635332,0.665640235 C1.31710049,0.292191224 1.62597512,-2.21975898e-13 2,-2.22044605e-13 Z" id="Rectangle-9-Copy-6" fill="#5EB4E9" fill-rule="nonzero"></path>
                                </g>
                            </g>
                            <g id="Rain-–-B3" transform="translate(65.000000, 128.000000)">
                                <g id="B3">
                                    <rect id="Rectangle-Copy-5" fill-rule="nonzero" x="0" y="0" width="4" height="24"></rect>
                                    <path d="M2,-2.22044605e-13 L2,-2.22044605e-13 C2.37402488,-2.22113312e-13 2.68289951,0.292191224 2.70364668,0.665640235 L3.88905996,22.0030793 C3.94702102,23.0463783 3.14824678,23.939126 2.10494778,23.997087 C2.06999886,23.9990286 2.0350028,24 2,24 L2,24 C0.955092203,24 0.108027069,23.1529349 0.108027069,22.1080271 C0.108027069,22.0730243 0.108998433,22.0380282 0.110940039,22.0030793 L1.29635332,0.665640235 C1.31710049,0.292191224 1.62597512,-2.21975898e-13 2,-2.22044605e-13 Z" id="Rectangle-9-Copy-6" fill="#5EB4E9" fill-rule="nonzero"></path>
                                </g>
                            </g>
                            <g id="Rain-–-B3" transform="translate(156.000000, 89.000000)">
                                <g id="B3">
                                    <rect id="Rectangle-Copy-5" fill-rule="nonzero" x="0" y="0" width="4" height="24"></rect>
                                    <path d="M2,-2.22044605e-13 L2,-2.22044605e-13 C2.37402488,-2.22113312e-13 2.68289951,0.292191224 2.70364668,0.665640235 L3.88905996,22.0030793 C3.94702102,23.0463783 3.14824678,23.939126 2.10494778,23.997087 C2.06999886,23.9990286 2.0350028,24 2,24 L2,24 C0.955092203,24 0.108027069,23.1529349 0.108027069,22.1080271 C0.108027069,22.0730243 0.108998433,22.0380282 0.110940039,22.0030793 L1.29635332,0.665640235 C1.31710049,0.292191224 1.62597512,-2.21975898e-13 2,-2.22044605e-13 Z" id="Rectangle-9-Copy-6" fill="#5EB4E9" fill-rule="nonzero"></path>
                                </g>
                            </g>
                            <g id="Rain-–-C1" transform="translate(144.000000, 97.000000)" fill="#5EB4E9">
                                <g id="C1">
                                    <rect id="Rectangle-9-Copy-12" fill-rule="nonzero" x="0" y="0" width="2" height="8" rx="1"></rect>
                                </g>
                            </g>
                            <g id="Rain-–-B3" transform="translate(26.000000, 112.000000)">
                                <g id="B3">
                                    <rect id="Rectangle-Copy-5" fill-rule="nonzero" x="0" y="0" width="4" height="24"></rect>
                                    <path d="M2,-2.22044605e-13 L2,-2.22044605e-13 C2.37402488,-2.22113312e-13 2.68289951,0.292191224 2.70364668,0.665640235 L3.88905996,22.0030793 C3.94702102,23.0463783 3.14824678,23.939126 2.10494778,23.997087 C2.06999886,23.9990286 2.0350028,24 2,24 L2,24 C0.955092203,24 0.108027069,23.1529349 0.108027069,22.1080271 C0.108027069,22.0730243 0.108998433,22.0380282 0.110940039,22.0030793 L1.29635332,0.665640235 C1.31710049,0.292191224 1.62597512,-2.21975898e-13 2,-2.22044605e-13 Z" id="Rectangle-9-Copy-6" fill="#5EB4E9" fill-rule="nonzero"></path>
                                </g>
                            </g>
                            <g id="Rain-–-B3" transform="translate(117.000000, 37.000000)">
                                <g id="B3">
                                    <rect id="Rectangle-Copy-5" fill-rule="nonzero" x="0" y="0" width="4" height="24"></rect>
                                    <path d="M2,-2.22044605e-13 L2,-2.22044605e-13 C2.37402488,-2.22113312e-13 2.68289951,0.292191224 2.70364668,0.665640235 L3.88905996,22.0030793 C3.94702102,23.0463783 3.14824678,23.939126 2.10494778,23.997087 C2.06999886,23.9990286 2.0350028,24 2,24 L2,24 C0.955092203,24 0.108027069,23.1529349 0.108027069,22.1080271 C0.108027069,22.0730243 0.108998433,22.0380282 0.110940039,22.0030793 L1.29635332,0.665640235 C1.31710049,0.292191224 1.62597512,-2.21975898e-13 2,-2.22044605e-13 Z" id="Rectangle-9-Copy-6" fill="#5EB4E9" fill-rule="nonzero"></path>
                                </g>
                            </g>
                            <g id="Rain-–-B3" transform="translate(78.000000, 102.000000)">
                                <g id="B3">
                                    <rect id="Rectangle-Copy-5" fill-rule="nonzero" x="0" y="0" width="4" height="24"></rect>
                                    <path d="M2,-2.22044605e-13 L2,-2.22044605e-13 C2.37402488,-2.22113312e-13 2.68289951,0.292191224 2.70364668,0.665640235 L3.88905996,22.0030793 C3.94702102,23.0463783 3.14824678,23.939126 2.10494778,23.997087 C2.06999886,23.9990286 2.0350028,24 2,24 L2,24 C0.955092203,24 0.108027069,23.1529349 0.108027069,22.1080271 C0.108027069,22.0730243 0.108998433,22.0380282 0.110940039,22.0030793 L1.29635332,0.665640235 C1.31710049,0.292191224 1.62597512,-2.21975898e-13 2,-2.22044605e-13 Z" id="Rectangle-9-Copy-6" fill="#5EB4E9" fill-rule="nonzero"></path>
                                </g>
                            </g>
                            <g id="Rain-–-B3" transform="translate(169.000000, 11.000000)">
                                <g id="B3">
                                    <rect id="Rectangle-Copy-5" fill-rule="nonzero" x="0" y="0" width="4" height="24"></rect>
                                    <path d="M2,-2.22044605e-13 L2,-2.22044605e-13 C2.37402488,-2.22113312e-13 2.68289951,0.292191224 2.70364668,0.665640235 L3.88905996,22.0030793 C3.94702102,23.0463783 3.14824678,23.939126 2.10494778,23.997087 C2.06999886,23.9990286 2.0350028,24 2,24 L2,24 C0.955092203,24 0.108027069,23.1529349 0.108027069,22.1080271 C0.108027069,22.0730243 0.108998433,22.0380282 0.110940039,22.0030793 L1.29635332,0.665640235 C1.31710049,0.292191224 1.62597512,-2.21975898e-13 2,-2.22044605e-13 Z" id="Rectangle-9-Copy-6" fill="#5EB4E9" fill-rule="nonzero"></path>
                                </g>
                            </g>
                        </g>
                        <g id="70" opacity="0.596316964" transform="translate(0.000000, 18.000000)">
                            <g id="Rain-–-C3" transform="translate(53.000000, 145.000000)" fill="#5EB4E9">
                                <g id="C3">
                                    <rect id="Rectangle-9-Copy-14" fill-rule="nonzero" x="0" y="0" width="2" height="24" rx="1"></rect>
                                </g>
                            </g>
                            <g id="Rain-–-C3" transform="translate(144.000000, 71.000000)" fill="#5EB4E9">
                                <g id="C3">
                                    <rect id="Rectangle-9-Copy-14" fill-rule="nonzero" x="0" y="0" width="2" height="24" rx="1"></rect>
                                </g>
                            </g>
                            <g id="Rain-–-B4" transform="translate(78.000000, 90.000000)">
                                <g id="B4">
                                    <rect id="Rectangle" fill-rule="nonzero" x="0" y="0" width="4" height="40"></rect>
                                    <path d="M2,-2.20268248e-13 L2,-2.20268248e-13 C2.37172886,-2.20336534e-13 2.67649247,0.294774086 2.68887655,0.666296605 L3.93337034,38.0011102 C3.9689627,39.0688811 3.13221663,39.9633338 2.06444568,39.9989262 C2.04297124,39.999642 2.02148637,40 2,40 L2,40 C0.931636004,40 0.065555864,39.1339199 0.065555864,38.0655559 C0.065555864,38.0440695 0.0659138459,38.0225846 0.0666296605,38.0011102 L1.31112345,0.666296605 C1.32350753,0.294774086 1.62827114,-2.20199963e-13 2,-2.20268248e-13 Z" id="Rectangle-9-Copy-7" fill="#5EB4E9" fill-rule="nonzero"></path>
                                </g>
                            </g>
                            <g id="Rain-–-B4" transform="translate(169.000000, 26.000000)">
                                <g id="B4">
                                    <rect id="Rectangle" fill-rule="nonzero" x="0" y="0" width="4" height="40"></rect>
                                    <path d="M2,-2.20268248e-13 L2,-2.20268248e-13 C2.37172886,-2.20336534e-13 2.67649247,0.294774086 2.68887655,0.666296605 L3.93337034,38.0011102 C3.9689627,39.0688811 3.13221663,39.9633338 2.06444568,39.9989262 C2.04297124,39.999642 2.02148637,40 2,40 L2,40 C0.931636004,40 0.065555864,39.1339199 0.065555864,38.0655559 C0.065555864,38.0440695 0.0659138459,38.0225846 0.0666296605,38.0011102 L1.31112345,0.666296605 C1.32350753,0.294774086 1.62827114,-2.20199963e-13 2,-2.20268248e-13 Z" id="Rectangle-9-Copy-7" fill="#5EB4E9" fill-rule="nonzero"></path>
                                </g>
                            </g>
                            <g id="Rain-–-B2" transform="translate(78.000000, 24.000000)">
                                <g id="B2">
                                    <rect id="Rectangle-Copy-6" fill-rule="nonzero" x="0" y="0" width="4" height="16"></rect>
                                    <path d="M2,0 L2,0 C2.37868474,-6.95632574e-17 2.69413235,0.29031399 2.72550233,0.667697156 L3.83432141,14.0068742 C3.91853267,15.0199419 3.16554571,15.9094623 2.15247797,15.9936735 C2.10176129,15.9978894 2.05089159,16 2,16 L2,16 C0.983438251,16 0.15935213,15.1759139 0.15935213,14.1593521 C0.15935213,14.1084605 0.161462762,14.0575908 0.165678585,14.0068742 L1.27449767,0.667697156 C1.30586765,0.29031399 1.62131526,6.95632574e-17 2,0 Z" id="Rectangle-9-Copy-5" fill="#5EB4E9" fill-rule="nonzero"></path>
                                </g>
                            </g>
                            <g id="Rain-–-B2" transform="translate(169.000000, 90.000000)">
                                <g id="B2">
                                    <rect id="Rectangle-Copy-6" fill-rule="nonzero" x="0" y="0" width="4" height="16"></rect>
                                    <path d="M2,0 L2,0 C2.37868474,-6.95632574e-17 2.69413235,0.29031399 2.72550233,0.667697156 L3.83432141,14.0068742 C3.91853267,15.0199419 3.16554571,15.9094623 2.15247797,15.9936735 C2.10176129,15.9978894 2.05089159,16 2,16 L2,16 C0.983438251,16 0.15935213,15.1759139 0.15935213,14.1593521 C0.15935213,14.1084605 0.161462762,14.0575908 0.165678585,14.0068742 L1.27449767,0.667697156 C1.30586765,0.29031399 1.62131526,6.95632574e-17 2,0 Z" id="Rectangle-9-Copy-5" fill="#5EB4E9" fill-rule="nonzero"></path>
                                </g>
                            </g>
                            <g id="Rain-–-B2" transform="translate(65.000000, 92.000000)">
                                <g id="B2">
                                    <rect id="Rectangle-Copy-6" fill-rule="nonzero" x="0" y="0" width="4" height="16"></rect>
                                    <path d="M2,0 L2,0 C2.37868474,-6.95632574e-17 2.69413235,0.29031399 2.72550233,0.667697156 L3.83432141,14.0068742 C3.91853267,15.0199419 3.16554571,15.9094623 2.15247797,15.9936735 C2.10176129,15.9978894 2.05089159,16 2,16 L2,16 C0.983438251,16 0.15935213,15.1759139 0.15935213,14.1593521 C0.15935213,14.1084605 0.161462762,14.0575908 0.165678585,14.0068742 L1.27449767,0.667697156 C1.30586765,0.29031399 1.62131526,6.95632574e-17 2,0 Z" id="Rectangle-9-Copy-5" fill="#5EB4E9" fill-rule="nonzero"></path>
                                </g>
                            </g>
                            <g id="Rain-–-B2" transform="translate(156.000000, 36.000000)">
                                <g id="B2">
                                    <rect id="Rectangle-Copy-6" fill-rule="nonzero" x="0" y="0" width="4" height="16"></rect>
                                    <path d="M2,0 L2,0 C2.37868474,-6.95632574e-17 2.69413235,0.29031399 2.72550233,0.667697156 L3.83432141,14.0068742 C3.91853267,15.0199419 3.16554571,15.9094623 2.15247797,15.9936735 C2.10176129,15.9978894 2.05089159,16 2,16 L2,16 C0.983438251,16 0.15935213,15.1759139 0.15935213,14.1593521 C0.15935213,14.1084605 0.161462762,14.0575908 0.165678585,14.0068742 L1.27449767,0.667697156 C1.30586765,0.29031399 1.62131526,6.95632574e-17 2,0 Z" id="Rectangle-9-Copy-5" fill="#5EB4E9" fill-rule="nonzero"></path>
                                </g>
                            </g>
                            <g id="Rain-–-C2" transform="translate(40.000000, 94.000000)" fill="#5EB4E9">
                                <g id="C2">
                                    <rect id="Rectangle-9-Copy-13" fill-rule="nonzero" x="0" y="0" width="2" height="16" rx="1"></rect>
                                </g>
                            </g>
                            <g id="Rain-–-C4" transform="translate(131.000000, 78.000000)" fill="#5EB4E9">
                                <g id="C4">
                                    <rect id="Rectangle-9-Copy-15" fill-rule="nonzero" x="0" y="0" width="2" height="40" rx="1"></rect>
                                </g>
                            </g>
                            <g id="Rain-–-B3" transform="translate(26.000000, 105.000000)">
                                <g id="B3">
                                    <rect id="Rectangle-Copy-5" fill-rule="nonzero" x="0" y="0" width="4" height="24"></rect>
                                    <path d="M2,-2.22044605e-13 L2,-2.22044605e-13 C2.37402488,-2.22113312e-13 2.68289951,0.292191224 2.70364668,0.665640235 L3.88905996,22.0030793 C3.94702102,23.0463783 3.14824678,23.939126 2.10494778,23.997087 C2.06999886,23.9990286 2.0350028,24 2,24 L2,24 C0.955092203,24 0.108027069,23.1529349 0.108027069,22.1080271 C0.108027069,22.0730243 0.108998433,22.0380282 0.110940039,22.0030793 L1.29635332,0.665640235 C1.31710049,0.292191224 1.62597512,-2.21975898e-13 2,-2.22044605e-13 Z" id="Rectangle-9-Copy-6" fill="#5EB4E9" fill-rule="nonzero"></path>
                                </g>
                            </g>
                            <g id="Rain-–-B3" transform="translate(117.000000, 57.000000)">
                                <g id="B3">
                                    <rect id="Rectangle-Copy-5" fill-rule="nonzero" x="0" y="0" width="4" height="24"></rect>
                                    <path d="M2,-2.22044605e-13 L2,-2.22044605e-13 C2.37402488,-2.22113312e-13 2.68289951,0.292191224 2.70364668,0.665640235 L3.88905996,22.0030793 C3.94702102,23.0463783 3.14824678,23.939126 2.10494778,23.997087 C2.06999886,23.9990286 2.0350028,24 2,24 L2,24 C0.955092203,24 0.108027069,23.1529349 0.108027069,22.1080271 C0.108027069,22.0730243 0.108998433,22.0380282 0.110940039,22.0030793 L1.29635332,0.665640235 C1.31710049,0.292191224 1.62597512,-2.21975898e-13 2,-2.22044605e-13 Z" id="Rectangle-9-Copy-6" fill="#5EB4E9" fill-rule="nonzero"></path>
                                </g>
                            </g>
                            <g id="Rain-–-B4" transform="translate(13.000000, 95.000000)">
                                <g id="B4">
                                    <rect id="Rectangle" fill-rule="nonzero" x="0" y="0" width="4" height="40"></rect>
                                    <path d="M2,-2.20268248e-13 L2,-2.20268248e-13 C2.37172886,-2.20336534e-13 2.67649247,0.294774086 2.68887655,0.666296605 L3.93337034,38.0011102 C3.9689627,39.0688811 3.13221663,39.9633338 2.06444568,39.9989262 C2.04297124,39.999642 2.02148637,40 2,40 L2,40 C0.931636004,40 0.065555864,39.1339199 0.065555864,38.0655559 C0.065555864,38.0440695 0.0659138459,38.0225846 0.0666296605,38.0011102 L1.31112345,0.666296605 C1.32350753,0.294774086 1.62827114,-2.20199963e-13 2,-2.20268248e-13 Z" id="Rectangle-9-Copy-7" fill="#5EB4E9" fill-rule="nonzero"></path>
                                </g>
                            </g>
                            <g id="Rain-–-B4" transform="translate(104.000000, 35.000000)">
                                <g id="B4">
                                    <rect id="Rectangle" fill-rule="nonzero" x="0" y="0" width="4" height="40"></rect>
                                    <path d="M2,-2.20268248e-13 L2,-2.20268248e-13 C2.37172886,-2.20336534e-13 2.67649247,0.294774086 2.68887655,0.666296605 L3.93337034,38.0011102 C3.9689627,39.0688811 3.13221663,39.9633338 2.06444568,39.9989262 C2.04297124,39.999642 2.02148637,40 2,40 L2,40 C0.931636004,40 0.065555864,39.1339199 0.065555864,38.0655559 C0.065555864,38.0440695 0.0659138459,38.0225846 0.0666296605,38.0011102 L1.31112345,0.666296605 C1.32350753,0.294774086 1.62827114,-2.20199963e-13 2,-2.20268248e-13 Z" id="Rectangle-9-Copy-7" fill="#5EB4E9" fill-rule="nonzero"></path>
                                </g>
                            </g>
                            <g id="Rain-–-B4" transform="translate(39.000000, 120.000000)">
                                <g id="B4">
                                    <rect id="Rectangle" fill-rule="nonzero" x="0" y="0" width="4" height="40"></rect>
                                    <path d="M2,-2.20268248e-13 L2,-2.20268248e-13 C2.37172886,-2.20336534e-13 2.67649247,0.294774086 2.68887655,0.666296605 L3.93337034,38.0011102 C3.9689627,39.0688811 3.13221663,39.9633338 2.06444568,39.9989262 C2.04297124,39.999642 2.02148637,40 2,40 L2,40 C0.931636004,40 0.065555864,39.1339199 0.065555864,38.0655559 C0.065555864,38.0440695 0.0659138459,38.0225846 0.0666296605,38.0011102 L1.31112345,0.666296605 C1.32350753,0.294774086 1.62827114,-2.20199963e-13 2,-2.20268248e-13 Z" id="Rectangle-9-Copy-7" fill="#5EB4E9" fill-rule="nonzero"></path>
                                </g>
                            </g>
                            <g id="Rain-–-B4" transform="translate(130.000000, 0.000000)">
                                <g id="B4">
                                    <rect id="Rectangle" fill-rule="nonzero" x="0" y="0" width="4" height="40"></rect>
                                    <path d="M2,-2.20268248e-13 L2,-2.20268248e-13 C2.37172886,-2.20336534e-13 2.67649247,0.294774086 2.68887655,0.666296605 L3.93337034,38.0011102 C3.9689627,39.0688811 3.13221663,39.9633338 2.06444568,39.9989262 C2.04297124,39.999642 2.02148637,40 2,40 L2,40 C0.931636004,40 0.065555864,39.1339199 0.065555864,38.0655559 C0.065555864,38.0440695 0.0659138459,38.0225846 0.0666296605,38.0011102 L1.31112345,0.666296605 C1.32350753,0.294774086 1.62827114,-2.20199963e-13 2,-2.20268248e-13 Z" id="Rectangle-9-Copy-7" fill="#5EB4E9" fill-rule="nonzero"></path>
                                </g>
                            </g>
                            <g id="Rain-–-B4" transform="translate(195.000000, 32.000000)">
                                <g id="B4">
                                    <rect id="Rectangle" fill-rule="nonzero" x="0" y="0" width="4" height="40"></rect>
                                    <path d="M2,-2.20268248e-13 L2,-2.20268248e-13 C2.37172886,-2.20336534e-13 2.67649247,0.294774086 2.68887655,0.666296605 L3.93337034,38.0011102 C3.9689627,39.0688811 3.13221663,39.9633338 2.06444568,39.9989262 C2.04297124,39.999642 2.02148637,40 2,40 L2,40 C0.931636004,40 0.065555864,39.1339199 0.065555864,38.0655559 C0.065555864,38.0440695 0.0659138459,38.0225846 0.0666296605,38.0011102 L1.31112345,0.666296605 C1.32350753,0.294774086 1.62827114,-2.20199963e-13 2,-2.20268248e-13 Z" id="Rectangle-9-Copy-7" fill="#5EB4E9" fill-rule="nonzero"></path>
                                </g>
                            </g>
                            <g id="Rain-–-B3" transform="translate(91.000000, 35.000000)">
                                <g id="B3">
                                    <rect id="Rectangle-Copy-5" fill-rule="nonzero" x="0" y="0" width="4" height="24"></rect>
                                    <path d="M2,-2.22044605e-13 L2,-2.22044605e-13 C2.37402488,-2.22113312e-13 2.68289951,0.292191224 2.70364668,0.665640235 L3.88905996,22.0030793 C3.94702102,23.0463783 3.14824678,23.939126 2.10494778,23.997087 C2.06999886,23.9990286 2.0350028,24 2,24 L2,24 C0.955092203,24 0.108027069,23.1529349 0.108027069,22.1080271 C0.108027069,22.0730243 0.108998433,22.0380282 0.110940039,22.0030793 L1.29635332,0.665640235 C1.31710049,0.292191224 1.62597512,-2.21975898e-13 2,-2.22044605e-13 Z" id="Rectangle-9-Copy-6" fill="#5EB4E9" fill-rule="nonzero"></path>
                                </g>
                            </g>
                            <g id="Rain-–-B3" transform="translate(182.000000, 11.000000)">
                                <g id="B3">
                                    <rect id="Rectangle-Copy-5" fill-rule="nonzero" x="0" y="0" width="4" height="24"></rect>
                                    <path d="M2,-2.22044605e-13 L2,-2.22044605e-13 C2.37402488,-2.22113312e-13 2.68289951,0.292191224 2.70364668,0.665640235 L3.88905996,22.0030793 C3.94702102,23.0463783 3.14824678,23.939126 2.10494778,23.997087 C2.06999886,23.9990286 2.0350028,24 2,24 L2,24 C0.955092203,24 0.108027069,23.1529349 0.108027069,22.1080271 C0.108027069,22.0730243 0.108998433,22.0380282 0.110940039,22.0030793 L1.29635332,0.665640235 C1.31710049,0.292191224 1.62597512,-2.21975898e-13 2,-2.22044605e-13 Z" id="Rectangle-9-Copy-6" fill="#5EB4E9" fill-rule="nonzero"></path>
                                </g>
                            </g>
                            <g id="Rain-–-B4" transform="translate(0.000000, 64.000000)">
                                <g id="B4">
                                    <rect id="Rectangle" fill-rule="nonzero" x="0" y="0" width="4" height="40"></rect>
                                    <path d="M2,-2.20268248e-13 L2,-2.20268248e-13 C2.37172886,-2.20336534e-13 2.67649247,0.294774086 2.68887655,0.666296605 L3.93337034,38.0011102 C3.9689627,39.0688811 3.13221663,39.9633338 2.06444568,39.9989262 C2.04297124,39.999642 2.02148637,40 2,40 L2,40 C0.931636004,40 0.065555864,39.1339199 0.065555864,38.0655559 C0.065555864,38.0440695 0.0659138459,38.0225846 0.0666296605,38.0011102 L1.31112345,0.666296605 C1.32350753,0.294774086 1.62827114,-2.20199963e-13 2,-2.20268248e-13 Z" id="Rectangle-9-Copy-7" fill="#5EB4E9" fill-rule="nonzero"></path>
                                </g>
                            </g>
                            <g id="Rain-–-C3" transform="translate(66.000000, 112.000000)" fill="#5EB4E9">
                                <g id="C3">
                                    <rect id="Rectangle-9-Copy-14" fill-rule="nonzero" x="0" y="0" width="2" height="24" rx="1"></rect>
                                </g>
                            </g>
                            <g id="Rain-–-C3" transform="translate(157.000000, 78.000000)" fill="#5EB4E9">
                                <g id="C3">
                                    <rect id="Rectangle-9-Copy-14" fill-rule="nonzero" x="0" y="0" width="2" height="24" rx="1"></rect>
                                </g>
                            </g>
                            <g id="Rain-–-D2" transform="translate(91.000000, 67.000000)" fill="#5EB4E9" fill-rule="nonzero">
                                <path d="M2,6.88984597 C3.1045695,6.88984597 4,5.99441547 4,4.88984597 C4,4.24120104 3.4827277,2.87073857 2.44818311,0.778458561 L2.44815153,0.778474174 C2.32576422,0.530956066 2.02589663,0.429517511 1.77837853,0.55190482 C1.68004452,0.600526856 1.60043111,0.680140293 1.5518091,0.778474313 C0.517269701,2.87074545 0,4.24120267 0,4.88984597 C0,5.99441547 0.8954305,6.88984597 2,6.88984597 Z" id="Oval-4-Copy-8"></path>
                            </g>
                            <g id="Rain-–-D2" transform="translate(182.000000, 43.000000)" fill="#5EB4E9" fill-rule="nonzero">
                                <path d="M2,6.88984597 C3.1045695,6.88984597 4,5.99441547 4,4.88984597 C4,4.24120104 3.4827277,2.87073857 2.44818311,0.778458561 L2.44815153,0.778474174 C2.32576422,0.530956066 2.02589663,0.429517511 1.77837853,0.55190482 C1.68004452,0.600526856 1.60043111,0.680140293 1.5518091,0.778474313 C0.517269701,2.87074545 0,4.24120267 0,4.88984597 C0,5.99441547 0.8954305,6.88984597 2,6.88984597 Z" id="Oval-4-Copy-8"></path>
                            </g>
                        </g>
                        <g id="Rain-–-C3" transform="translate(1.000000, 158.000000)" fill="#5EB4E9">
                            <g id="C3">
                                <rect id="Rectangle-9-Copy-14" fill-rule="nonzero" x="0" y="0" width="2" height="24" rx="1"></rect>
                            </g>
                        </g>
                    </g>
                </g>
            </g>
        </g>
    </g>
</svg>