<?xml version="1.0" encoding="UTF-8"?>
<svg width="85px" height="56px" viewBox="0 0 85 56" version="1.1" xmlns="http://www.w3.org/2000/svg" xmlns:xlink="http://www.w3.org/1999/xlink">
    <!-- Generator: Sketch 51.2 (57519) - http://www.bohemiancoding.com/sketch -->
    <title>Group 2</title>
    <desc>Created with Sketch.</desc>
    <defs>
        <linearGradient x1="14.6771599%" y1="58.5707721%" x2="82.4541928%" y2="21.5832565%" id="linearGradient-1">
            <stop stop-color="#CCCCCC" offset="0%"></stop>
            <stop stop-color="#D8D8D8" offset="100%"></stop>
        </linearGradient>
        <linearGradient x1="58.6962891%" y1="76.8701172%" x2="83.7158203%" y2="14.9072266%" id="linearGradient-2">
            <stop stop-color="#CCCCCC" offset="0%"></stop>
            <stop stop-color="#D8D8D8" offset="100%"></stop>
        </linearGradient>
        <linearGradient x1="61.6143588%" y1="93.9518229%" x2="100%" y2="18.1022135%" id="linearGradient-3">
            <stop stop-color="#CCCCCC" offset="0%"></stop>
            <stop stop-color="#D8D8D8" offset="100%"></stop>
        </linearGradient>
    </defs>
    <g id="Symbols" stroke="none" stroke-width="1" fill="none" fill-rule="evenodd">
        <g id="Rain-Nowcast-/-S-mobile-NO-RAIN" transform="translate(0.000000, -16.000000)">
            <g id="Group-2" transform="translate(-38.000000, -19.500000)">
                <g id="Group" opacity="0.879966518" transform="translate(0.000000, 35.500000)" fill="#FFFFFF">
                    <path d="M13.6666667,66.9888516 C6.0682658,66.690813 0,60.4545579 0,52.8050847 C0,45.1329534 6.1042681,38.8824246 13.7342275,38.6188259 C14.5996545,27.8086634 23.6719422,19.3050847 34.7361111,19.3050847 C38.4012022,19.3050847 41.8477209,20.2381966 44.8497561,21.8791628 C47.1200796,9.43510176 58.0452768,0 71.1805556,0 C85.4045563,0 97.0369257,11.063984 97.8938384,25.0318088 C98.2862266,24.9995094 98.6829237,24.9830508 99.0833333,24.9830508 C107.260216,24.9830508 113.888889,31.8467533 113.888889,40.3135593 C113.888889,42.5382946 113.431228,44.6523474 112.608073,46.5602818 C112.655306,46.5596426 112.702615,46.559322 112.75,46.559322 C118.410919,46.559322 123,51.1351237 123,56.779661 C123,62.4241984 118.410919,67 112.75,67 C111.967141,67 111.204781,66.9124896 110.472222,66.7467441 L110.472222,67 L13.6666667,67 L13.6666667,66.9888516 Z M54.4683441,47.6949153 L54.6746074,47.6949153 C54.6213052,47.6532204 54.5681657,47.6113283 54.5151898,47.5692399 C54.4997049,47.6111947 54.4840894,47.6530867 54.4683441,47.6949153 Z" id="Combined-Shape" opacity="0.7"></path>
                </g>
                <g id="Group-17" opacity="0.560546875" transform="translate(19.000000, 64.500000)">
                    <path d="M53.5263158,20.68 L54.9473684,20.68 C59.394714,20.68 63,24.3333564 63,28.84 C63,33.3466436 59.394714,37 54.9473684,37 L10.8947368,37 L10.8947368,36.9892851 C10.7377212,36.996403 10.5798014,37 10.4210526,37 C4.66566419,37 0,32.272127 0,26.44 C0,20.607873 4.66566419,15.88 10.4210526,15.88 C10.5798027,15.88 10.7377237,15.883597 10.8947406,15.8907151 C10.8947381,15.8871437 10.8947368,15.883572 10.8947368,15.88 C10.8947368,7.66200292 17.4690818,1 25.5789474,1 C32.1625562,1 37.7342213,5.39041473 39.5981883,11.4395464 C40.8171437,10.8995669 42.163522,10.6 43.5789474,10.6 C49.0727272,10.6 53.5263158,15.1129697 53.5263158,20.68 Z" id="Combined-Shape" fill="#CCCCCC"></path>
                    <circle id="Oval-5-Copy-3" fill="url(#linearGradient-1)" cx="55.5" cy="28.5" r="8.5"></circle>
                    <circle id="Oval-5" fill="url(#linearGradient-2)" cx="44" cy="20" r="10"></circle>
                    <ellipse id="Oval-5-Copy" fill="url(#linearGradient-3)" cx="25.5" cy="15" rx="14.5" ry="15"></ellipse>
                </g>
            </g>
        </g>
    </g>
</svg>