<?xml version="1.0" encoding="UTF-8"?>
<svg width="40px" height="120px" viewBox="0 0 40 120" version="1.1" xmlns="http://www.w3.org/2000/svg" xmlns:xlink="http://www.w3.org/1999/xlink">
    <!-- Generator: Sketch 51.2 (57519) - http://www.bohemiancoding.com/sketch -->
    <title>Rain Nowcast Icon / XS Very Heavy</title>
    <desc>Created with Sketch.</desc>
    <defs>
        <rect id="path-1" x="0" y="-3.60822483e-14" width="40" height="120"></rect>
    </defs>
    <g id="Rain-Nowcast-Icon-/-XS-Very-Heavy" stroke="none" stroke-width="1" fill="none" fill-rule="evenodd">
        <mask id="mask-2" fill="white">
            <use xlink:href="#path-1"></use>
        </mask>
        <g id="Mask" fill-rule="nonzero"></g>
        <g id="Rain-Nowcaast-/-Icon-4-Very-Heavy-" mask="url(#mask-2)">
            <g transform="translate(-77.000000, 75.931379) rotate(30.000000) translate(77.000000, -75.931379) translate(-180.000000, -49.068621)" id="Group-+-Group-2-Mask">
                <g transform="translate(2.000000, 0.000000)">
                    <g id="Group-2" transform="translate(1.000000, 15.000000)">
                        <g id="Rain-–-C4" transform="translate(166.000000, 79.000000)" fill="#5EB4E9">
                            <g id="C4">
                                <rect id="Rectangle-9-Copy-15" fill-rule="nonzero" x="0" y="0" width="2" height="40" rx="1"></rect>
                            </g>
                        </g>
                        <g id="Rain-–-C3" transform="translate(89.000000, 35.000000)" fill="#5EB4E9">
                            <g id="C3">
                                <rect id="Rectangle-9-Copy-14" fill-rule="nonzero" x="0" y="0" width="2" height="24" rx="1"></rect>
                            </g>
                        </g>
                        <g id="Rain-–-C3" transform="translate(12.000000, 77.000000)" fill="#5EB4E9">
                            <g id="C3">
                                <rect id="Rectangle-9-Copy-14" fill-rule="nonzero" x="0" y="0" width="2" height="24" rx="1"></rect>
                            </g>
                        </g>
                        <g id="Rain-–-B2" transform="translate(143.000000, 49.000000)">
                            <g id="B2">
                                <rect id="Rectangle-Copy-6" fill-rule="nonzero" x="0" y="0" width="4" height="16"></rect>
                                <path d="M2,0 L2,0 C2.37868474,-6.95632574e-17 2.69413235,0.29031399 2.72550233,0.667697156 L3.83432141,14.0068742 C3.91853267,15.0199419 3.16554571,15.9094623 2.15247797,15.9936735 C2.10176129,15.9978894 2.05089159,16 2,16 L2,16 C0.983438251,16 0.15935213,15.1759139 0.15935213,14.1593521 C0.15935213,14.1084605 0.161462762,14.0575908 0.165678585,14.0068742 L1.27449767,0.667697156 C1.30586765,0.29031399 1.62131526,6.95632574e-17 2,0 Z" id="Rectangle-9-Copy-5" fill="#5EB4E9" fill-rule="nonzero"></path>
                            </g>
                        </g>
                        <g id="Rain-–-B2" transform="translate(66.000000, 91.000000)">
                            <g id="B2">
                                <rect id="Rectangle-Copy-6" fill-rule="nonzero" x="0" y="0" width="4" height="16"></rect>
                                <path d="M2,0 L2,0 C2.37868474,-6.95632574e-17 2.69413235,0.29031399 2.72550233,0.667697156 L3.83432141,14.0068742 C3.91853267,15.0199419 3.16554571,15.9094623 2.15247797,15.9936735 C2.10176129,15.9978894 2.05089159,16 2,16 L2,16 C0.983438251,16 0.15935213,15.1759139 0.15935213,14.1593521 C0.15935213,14.1084605 0.161462762,14.0575908 0.165678585,14.0068742 L1.27449767,0.667697156 C1.30586765,0.29031399 1.62131526,6.95632574e-17 2,0 Z" id="Rectangle-9-Copy-5" fill="#5EB4E9" fill-rule="nonzero"></path>
                            </g>
                        </g>
                        <g id="Rain-–-B2" transform="translate(77.000000, 96.000000)">
                            <g id="B2">
                                <rect id="Rectangle-Copy-6" fill-rule="nonzero" x="0" y="0" width="4" height="16"></rect>
                                <path d="M2,0 L2,0 C2.37868474,-6.95632574e-17 2.69413235,0.29031399 2.72550233,0.667697156 L3.83432141,14.0068742 C3.91853267,15.0199419 3.16554571,15.9094623 2.15247797,15.9936735 C2.10176129,15.9978894 2.05089159,16 2,16 L2,16 C0.983438251,16 0.15935213,15.1759139 0.15935213,14.1593521 C0.15935213,14.1084605 0.161462762,14.0575908 0.165678585,14.0068742 L1.27449767,0.667697156 C1.30586765,0.29031399 1.62131526,6.95632574e-17 2,0 Z" id="Rectangle-9-Copy-5" fill="#5EB4E9" fill-rule="nonzero"></path>
                            </g>
                        </g>
                        <g id="Rain-–-B2" transform="translate(0.000000, 138.000000)">
                            <g id="B2">
                                <rect id="Rectangle-Copy-6" fill-rule="nonzero" x="0" y="0" width="4" height="16"></rect>
                                <path d="M2,0 L2,0 C2.37868474,-6.95632574e-17 2.69413235,0.29031399 2.72550233,0.667697156 L3.83432141,14.0068742 C3.91853267,15.0199419 3.16554571,15.9094623 2.15247797,15.9936735 C2.10176129,15.9978894 2.05089159,16 2,16 L2,16 C0.983438251,16 0.15935213,15.1759139 0.15935213,14.1593521 C0.15935213,14.1084605 0.161462762,14.0575908 0.165678585,14.0068742 L1.27449767,0.667697156 C1.30586765,0.29031399 1.62131526,6.95632574e-17 2,0 Z" id="Rectangle-9-Copy-5" fill="#5EB4E9" fill-rule="nonzero"></path>
                            </g>
                        </g>
                        <g id="Rain-–-B4" transform="translate(132.000000, 97.000000)">
                            <g id="B4">
                                <rect id="Rectangle" fill-rule="nonzero" x="0" y="0" width="4" height="40"></rect>
                                <path d="M2,-2.20268248e-13 L2,-2.20268248e-13 C2.37172886,-2.20336534e-13 2.67649247,0.294774086 2.68887655,0.666296605 L3.93337034,38.0011102 C3.9689627,39.0688811 3.13221663,39.9633338 2.06444568,39.9989262 C2.04297124,39.999642 2.02148637,40 2,40 L2,40 C0.931636004,40 0.065555864,39.1339199 0.065555864,38.0655559 C0.065555864,38.0440695 0.0659138459,38.0225846 0.0666296605,38.0011102 L1.31112345,0.666296605 C1.32350753,0.294774086 1.62827114,-2.20199963e-13 2,-2.20268248e-13 Z" id="Rectangle-9-Copy-7" fill="#5EB4E9" fill-rule="nonzero"></path>
                            </g>
                        </g>
                        <g id="Rain-–-B4" transform="translate(55.000000, 139.000000)">
                            <g id="B4">
                                <rect id="Rectangle" fill-rule="nonzero" x="0" y="0" width="4" height="40"></rect>
                                <path d="M2,-2.20268248e-13 L2,-2.20268248e-13 C2.37172886,-2.20336534e-13 2.67649247,0.294774086 2.68887655,0.666296605 L3.93337034,38.0011102 C3.9689627,39.0688811 3.13221663,39.9633338 2.06444568,39.9989262 C2.04297124,39.999642 2.02148637,40 2,40 L2,40 C0.931636004,40 0.065555864,39.1339199 0.065555864,38.0655559 C0.065555864,38.0440695 0.0659138459,38.0225846 0.0666296605,38.0011102 L1.31112345,0.666296605 C1.32350753,0.294774086 1.62827114,-2.20199963e-13 2,-2.20268248e-13 Z" id="Rectangle-9-Copy-7" fill="#5EB4E9" fill-rule="nonzero"></path>
                            </g>
                        </g>
                        <g id="Rain-–-B3" transform="translate(99.000000, 78.000000)">
                            <g id="B3">
                                <rect id="Rectangle-Copy-5" fill-rule="nonzero" x="0" y="0" width="4" height="24"></rect>
                                <path d="M2,-2.22044605e-13 L2,-2.22044605e-13 C2.37402488,-2.22113312e-13 2.68289951,0.292191224 2.70364668,0.665640235 L3.88905996,22.0030793 C3.94702102,23.0463783 3.14824678,23.939126 2.10494778,23.997087 C2.06999886,23.9990286 2.0350028,24 2,24 L2,24 C0.955092203,24 0.108027069,23.1529349 0.108027069,22.1080271 C0.108027069,22.0730243 0.108998433,22.0380282 0.110940039,22.0030793 L1.29635332,0.665640235 C1.31710049,0.292191224 1.62597512,-2.21975898e-13 2,-2.22044605e-13 Z" id="Rectangle-9-Copy-6" fill="#5EB4E9" fill-rule="nonzero"></path>
                            </g>
                        </g>
                        <g id="Rain-–-B3" transform="translate(22.000000, 120.000000)">
                            <g id="B3">
                                <rect id="Rectangle-Copy-5" fill-rule="nonzero" x="0" y="0" width="4" height="24"></rect>
                                <path d="M2,-2.22044605e-13 L2,-2.22044605e-13 C2.37402488,-2.22113312e-13 2.68289951,0.292191224 2.70364668,0.665640235 L3.88905996,22.0030793 C3.94702102,23.0463783 3.14824678,23.939126 2.10494778,23.997087 C2.06999886,23.9990286 2.0350028,24 2,24 L2,24 C0.955092203,24 0.108027069,23.1529349 0.108027069,22.1080271 C0.108027069,22.0730243 0.108998433,22.0380282 0.110940039,22.0030793 L1.29635332,0.665640235 C1.31710049,0.292191224 1.62597512,-2.21975898e-13 2,-2.22044605e-13 Z" id="Rectangle-9-Copy-6" fill="#5EB4E9" fill-rule="nonzero"></path>
                            </g>
                        </g>
                        <g id="Rain-–-B2" transform="translate(176.000000, 63.000000)">
                            <g id="B2">
                                <rect id="Rectangle-Copy-6" fill-rule="nonzero" x="0" y="0" width="4" height="16"></rect>
                                <path d="M2,0 L2,0 C2.37868474,-6.95632574e-17 2.69413235,0.29031399 2.72550233,0.667697156 L3.83432141,14.0068742 C3.91853267,15.0199419 3.16554571,15.9094623 2.15247797,15.9936735 C2.10176129,15.9978894 2.05089159,16 2,16 L2,16 C0.983438251,16 0.15935213,15.1759139 0.15935213,14.1593521 C0.15935213,14.1084605 0.161462762,14.0575908 0.165678585,14.0068742 L1.27449767,0.667697156 C1.30586765,0.29031399 1.62131526,6.95632574e-17 2,0 Z" id="Rectangle-9-Copy-5" fill="#5EB4E9" fill-rule="nonzero"></path>
                            </g>
                        </g>
                        <g id="Rain-–-B4" transform="translate(132.000000, 27.000000)">
                            <g id="B4">
                                <rect id="Rectangle" fill-rule="nonzero" x="0" y="0" width="4" height="40"></rect>
                                <path d="M2,-2.20268248e-13 L2,-2.20268248e-13 C2.37172886,-2.20336534e-13 2.67649247,0.294774086 2.68887655,0.666296605 L3.93337034,38.0011102 C3.9689627,39.0688811 3.13221663,39.9633338 2.06444568,39.9989262 C2.04297124,39.999642 2.02148637,40 2,40 L2,40 C0.931636004,40 0.065555864,39.1339199 0.065555864,38.0655559 C0.065555864,38.0440695 0.0659138459,38.0225846 0.0666296605,38.0011102 L1.31112345,0.666296605 C1.32350753,0.294774086 1.62827114,-2.20199963e-13 2,-2.20268248e-13 Z" id="Rectangle-9-Copy-7" fill="#5EB4E9" fill-rule="nonzero"></path>
                            </g>
                        </g>
                        <g id="Rain-–-B4" transform="translate(55.000000, 69.000000)">
                            <g id="B4">
                                <rect id="Rectangle" fill-rule="nonzero" x="0" y="0" width="4" height="40"></rect>
                                <path d="M2,-2.20268248e-13 L2,-2.20268248e-13 C2.37172886,-2.20336534e-13 2.67649247,0.294774086 2.68887655,0.666296605 L3.93337034,38.0011102 C3.9689627,39.0688811 3.13221663,39.9633338 2.06444568,39.9989262 C2.04297124,39.999642 2.02148637,40 2,40 L2,40 C0.931636004,40 0.065555864,39.1339199 0.065555864,38.0655559 C0.065555864,38.0440695 0.0659138459,38.0225846 0.0666296605,38.0011102 L1.31112345,0.666296605 C1.32350753,0.294774086 1.62827114,-2.20199963e-13 2,-2.20268248e-13 Z" id="Rectangle-9-Copy-7" fill="#5EB4E9" fill-rule="nonzero"></path>
                            </g>
                        </g>
                        <g id="Rain-–-C2" transform="translate(100.000000, 147.000000)" fill="#5EB4E9">
                            <g id="C2">
                                <rect id="Rectangle-9-Copy-13" fill-rule="nonzero" x="0" y="0" width="2" height="16" rx="1"></rect>
                            </g>
                        </g>
                        <g id="Rain-–-B2" transform="translate(143.000000, 3.000000)">
                            <g id="B2">
                                <rect id="Rectangle-Copy-6" fill-rule="nonzero" x="0" y="0" width="4" height="16"></rect>
                                <path d="M2,0 L2,0 C2.37868474,-6.95632574e-17 2.69413235,0.29031399 2.72550233,0.667697156 L3.83432141,14.0068742 C3.91853267,15.0199419 3.16554571,15.9094623 2.15247797,15.9936735 C2.10176129,15.9978894 2.05089159,16 2,16 L2,16 C0.983438251,16 0.15935213,15.1759139 0.15935213,14.1593521 C0.15935213,14.1084605 0.161462762,14.0575908 0.165678585,14.0068742 L1.27449767,0.667697156 C1.30586765,0.29031399 1.62131526,6.95632574e-17 2,0 Z" id="Rectangle-9-Copy-5" fill="#5EB4E9" fill-rule="nonzero"></path>
                            </g>
                        </g>
                        <g id="Rain-–-B2" transform="translate(66.000000, 45.000000)">
                            <g id="B2">
                                <rect id="Rectangle-Copy-6" fill-rule="nonzero" x="0" y="0" width="4" height="16"></rect>
                                <path d="M2,0 L2,0 C2.37868474,-6.95632574e-17 2.69413235,0.29031399 2.72550233,0.667697156 L3.83432141,14.0068742 C3.91853267,15.0199419 3.16554571,15.9094623 2.15247797,15.9936735 C2.10176129,15.9978894 2.05089159,16 2,16 L2,16 C0.983438251,16 0.15935213,15.1759139 0.15935213,14.1593521 C0.15935213,14.1084605 0.161462762,14.0575908 0.165678585,14.0068742 L1.27449767,0.667697156 C1.30586765,0.29031399 1.62131526,6.95632574e-17 2,0 Z" id="Rectangle-9-Copy-5" fill="#5EB4E9" fill-rule="nonzero"></path>
                            </g>
                        </g>
                        <g id="Rain-–-B1" transform="translate(154.000000, 27.000000)">
                            <g id="B1">
                                <rect id="Rectangle-Copy-7" fill-rule="nonzero" x="0" y="0" width="4" height="8"></rect>
                                <path d="M2,0 L2,0 C2.38658937,-7.10153145e-17 2.71647908,0.279573394 2.77987937,0.660928532 L3.67200189,6.02707901 C3.82552065,6.95050015 3.20139146,7.82353244 2.27797031,7.97705121 C2.18610136,7.99232442 2.09312989,8 2,8 L2,8 C1.06390459,8 0.305049322,7.24114473 0.305049322,6.30504932 C0.305049322,6.21191943 0.312724901,6.11894796 0.327998115,6.02707901 L1.22012063,0.660928532 C1.28352092,0.279573394 1.61341063,7.10153145e-17 2,0 Z" id="Rectangle-9-Copy-4" fill="#5EB4E9" fill-rule="nonzero"></path>
                            </g>
                        </g>
                        <g id="Rain-–-D2" transform="translate(99.000000, 23.000000)" fill="#5EB4E9" fill-rule="nonzero">
                            <path d="M2,6.88984597 C3.1045695,6.88984597 4,5.99441547 4,4.88984597 C4,4.24120104 3.4827277,2.87073857 2.44818311,0.778458561 L2.44815153,0.778474174 C2.32576422,0.530956066 2.02589663,0.429517511 1.77837853,0.55190482 C1.68004452,0.600526856 1.60043111,0.680140293 1.5518091,0.778474313 C0.517269701,2.87074545 0,4.24120267 0,4.88984597 C0,5.99441547 0.8954305,6.88984597 2,6.88984597 Z" id="Oval-4-Copy-8"></path>
                        </g>
                        <g id="Rain-–-D2" transform="translate(22.000000, 65.000000)" fill="#5EB4E9" fill-rule="nonzero">
                            <path d="M2,6.88984597 C3.1045695,6.88984597 4,5.99441547 4,4.88984597 C4,4.24120104 3.4827277,2.87073857 2.44818311,0.778458561 L2.44815153,0.778474174 C2.32576422,0.530956066 2.02589663,0.429517511 1.77837853,0.55190482 C1.68004452,0.600526856 1.60043111,0.680140293 1.5518091,0.778474313 C0.517269701,2.87074545 0,4.24120267 0,4.88984597 C0,5.99441547 0.8954305,6.88984597 2,6.88984597 Z" id="Oval-4-Copy-8"></path>
                        </g>
                        <g id="Rain-–-D2" transform="translate(88.000000, 61.000000)" fill="#5EB4E9" fill-rule="nonzero">
                            <path d="M2,6.88984597 C3.1045695,6.88984597 4,5.99441547 4,4.88984597 C4,4.24120104 3.4827277,2.87073857 2.44818311,0.778458561 L2.44815153,0.778474174 C2.32576422,0.530956066 2.02589663,0.429517511 1.77837853,0.55190482 C1.68004452,0.600526856 1.60043111,0.680140293 1.5518091,0.778474313 C0.517269701,2.87074545 0,4.24120267 0,4.88984597 C0,5.99441547 0.8954305,6.88984597 2,6.88984597 Z" id="Oval-4-Copy-8"></path>
                        </g>
                        <g id="Rain-–-D2" transform="translate(11.000000, 103.000000)" fill="#5EB4E9" fill-rule="nonzero">
                            <path d="M2,6.88984597 C3.1045695,6.88984597 4,5.99441547 4,4.88984597 C4,4.24120104 3.4827277,2.87073857 2.44818311,0.778458561 L2.44815153,0.778474174 C2.32576422,0.530956066 2.02589663,0.429517511 1.77837853,0.55190482 C1.68004452,0.600526856 1.60043111,0.680140293 1.5518091,0.778474313 C0.517269701,2.87074545 0,4.24120267 0,4.88984597 C0,5.99441547 0.8954305,6.88984597 2,6.88984597 Z" id="Oval-4-Copy-8"></path>
                        </g>
                        <g id="Rain-–-B1" transform="translate(187.000000, 75.000000)">
                            <g id="B1">
                                <rect id="Rectangle-Copy-7" fill-rule="nonzero" x="0" y="0" width="4" height="8"></rect>
                                <path d="M2,0 L2,0 C2.38658937,-7.10153145e-17 2.71647908,0.279573394 2.77987937,0.660928532 L3.67200189,6.02707901 C3.82552065,6.95050015 3.20139146,7.82353244 2.27797031,7.97705121 C2.18610136,7.99232442 2.09312989,8 2,8 L2,8 C1.06390459,8 0.305049322,7.24114473 0.305049322,6.30504932 C0.305049322,6.21191943 0.312724901,6.11894796 0.327998115,6.02707901 L1.22012063,0.660928532 C1.28352092,0.279573394 1.61341063,7.10153145e-17 2,0 Z" id="Rectangle-9-Copy-4" fill="#5EB4E9" fill-rule="nonzero"></path>
                            </g>
                        </g>
                        <g id="Rain-–-C3" transform="translate(155.000000, 63.000000)" fill="#5EB4E9">
                            <g id="C3">
                                <rect id="Rectangle-9-Copy-14" fill-rule="nonzero" x="0" y="0" width="2" height="24" rx="1"></rect>
                            </g>
                        </g>
                        <g id="Rain-–-B2" transform="translate(110.000000, 44.000000)">
                            <g id="B2">
                                <rect id="Rectangle-Copy-6" fill-rule="nonzero" x="0" y="0" width="4" height="16"></rect>
                                <path d="M2,0 L2,0 C2.37868474,-6.95632574e-17 2.69413235,0.29031399 2.72550233,0.667697156 L3.83432141,14.0068742 C3.91853267,15.0199419 3.16554571,15.9094623 2.15247797,15.9936735 C2.10176129,15.9978894 2.05089159,16 2,16 L2,16 C0.983438251,16 0.15935213,15.1759139 0.15935213,14.1593521 C0.15935213,14.1084605 0.161462762,14.0575908 0.165678585,14.0068742 L1.27449767,0.667697156 C1.30586765,0.29031399 1.62131526,6.95632574e-17 2,0 Z" id="Rectangle-9-Copy-5" fill="#5EB4E9" fill-rule="nonzero"></path>
                            </g>
                        </g>
                        <g id="Rain-–-B2" transform="translate(33.000000, 86.000000)">
                            <g id="B2">
                                <rect id="Rectangle-Copy-6" fill-rule="nonzero" x="0" y="0" width="4" height="16"></rect>
                                <path d="M2,0 L2,0 C2.37868474,-6.95632574e-17 2.69413235,0.29031399 2.72550233,0.667697156 L3.83432141,14.0068742 C3.91853267,15.0199419 3.16554571,15.9094623 2.15247797,15.9936735 C2.10176129,15.9978894 2.05089159,16 2,16 L2,16 C0.983438251,16 0.15935213,15.1759139 0.15935213,14.1593521 C0.15935213,14.1084605 0.161462762,14.0575908 0.165678585,14.0068742 L1.27449767,0.667697156 C1.30586765,0.29031399 1.62131526,6.95632574e-17 2,0 Z" id="Rectangle-9-Copy-5" fill="#5EB4E9" fill-rule="nonzero"></path>
                            </g>
                        </g>
                        <g id="Rain-–-B2" transform="translate(88.000000, 113.000000)">
                            <g id="B2">
                                <rect id="Rectangle-Copy-6" fill-rule="nonzero" x="0" y="0" width="4" height="16"></rect>
                                <path d="M2,0 L2,0 C2.37868474,-6.95632574e-17 2.69413235,0.29031399 2.72550233,0.667697156 L3.83432141,14.0068742 C3.91853267,15.0199419 3.16554571,15.9094623 2.15247797,15.9936735 C2.10176129,15.9978894 2.05089159,16 2,16 L2,16 C0.983438251,16 0.15935213,15.1759139 0.15935213,14.1593521 C0.15935213,14.1084605 0.161462762,14.0575908 0.165678585,14.0068742 L1.27449767,0.667697156 C1.30586765,0.29031399 1.62131526,6.95632574e-17 2,0 Z" id="Rectangle-9-Copy-5" fill="#5EB4E9" fill-rule="nonzero"></path>
                            </g>
                        </g>
                        <g id="Rain-–-B2" transform="translate(11.000000, 155.000000)">
                            <g id="B2">
                                <rect id="Rectangle-Copy-6" fill-rule="nonzero" x="0" y="0" width="4" height="16"></rect>
                                <path d="M2,0 L2,0 C2.37868474,-6.95632574e-17 2.69413235,0.29031399 2.72550233,0.667697156 L3.83432141,14.0068742 C3.91853267,15.0199419 3.16554571,15.9094623 2.15247797,15.9936735 C2.10176129,15.9978894 2.05089159,16 2,16 L2,16 C0.983438251,16 0.15935213,15.1759139 0.15935213,14.1593521 C0.15935213,14.1084605 0.161462762,14.0575908 0.165678585,14.0068742 L1.27449767,0.667697156 C1.30586765,0.29031399 1.62131526,6.95632574e-17 2,0 Z" id="Rectangle-9-Copy-5" fill="#5EB4E9" fill-rule="nonzero"></path>
                            </g>
                        </g>
                        <g id="Rain-–-B4" transform="translate(88.000000, 71.000000)">
                            <g id="B4">
                                <rect id="Rectangle" fill-rule="nonzero" x="0" y="0" width="4" height="40"></rect>
                                <path d="M2,-2.20268248e-13 L2,-2.20268248e-13 C2.37172886,-2.20336534e-13 2.67649247,0.294774086 2.68887655,0.666296605 L3.93337034,38.0011102 C3.9689627,39.0688811 3.13221663,39.9633338 2.06444568,39.9989262 C2.04297124,39.999642 2.02148637,40 2,40 L2,40 C0.931636004,40 0.065555864,39.1339199 0.065555864,38.0655559 C0.065555864,38.0440695 0.0659138459,38.0225846 0.0666296605,38.0011102 L1.31112345,0.666296605 C1.32350753,0.294774086 1.62827114,-2.20199963e-13 2,-2.20268248e-13 Z" id="Rectangle-9-Copy-7" fill="#5EB4E9" fill-rule="nonzero"></path>
                            </g>
                        </g>
                        <g id="Rain-–-B4" transform="translate(11.000000, 113.000000)">
                            <g id="B4">
                                <rect id="Rectangle" fill-rule="nonzero" x="0" y="0" width="4" height="40"></rect>
                                <path d="M2,-2.20268248e-13 L2,-2.20268248e-13 C2.37172886,-2.20336534e-13 2.67649247,0.294774086 2.68887655,0.666296605 L3.93337034,38.0011102 C3.9689627,39.0688811 3.13221663,39.9633338 2.06444568,39.9989262 C2.04297124,39.999642 2.02148637,40 2,40 L2,40 C0.931636004,40 0.065555864,39.1339199 0.065555864,38.0655559 C0.065555864,38.0440695 0.0659138459,38.0225846 0.0666296605,38.0011102 L1.31112345,0.666296605 C1.32350753,0.294774086 1.62827114,-2.20199963e-13 2,-2.20268248e-13 Z" id="Rectangle-9-Copy-7" fill="#5EB4E9" fill-rule="nonzero"></path>
                            </g>
                        </g>
                        <g id="Rain-–-C3" transform="translate(133.000000, 0.000000)" fill="#5EB4E9">
                            <g id="C3">
                                <rect id="Rectangle-9-Copy-14" fill-rule="nonzero" x="0" y="0" width="2" height="24" rx="1"></rect>
                            </g>
                        </g>
                        <g id="Rain-–-C3" transform="translate(56.000000, 42.000000)" fill="#5EB4E9">
                            <g id="C3">
                                <rect id="Rectangle-9-Copy-14" fill-rule="nonzero" x="0" y="0" width="2" height="24" rx="1"></rect>
                            </g>
                        </g>
                        <g id="Rain-–-B3" transform="translate(154.000000, 89.000000)">
                            <g id="B3">
                                <rect id="Rectangle-Copy-5" fill-rule="nonzero" x="0" y="0" width="4" height="24"></rect>
                                <path d="M2,-2.22044605e-13 L2,-2.22044605e-13 C2.37402488,-2.22113312e-13 2.68289951,0.292191224 2.70364668,0.665640235 L3.88905996,22.0030793 C3.94702102,23.0463783 3.14824678,23.939126 2.10494778,23.997087 C2.06999886,23.9990286 2.0350028,24 2,24 L2,24 C0.955092203,24 0.108027069,23.1529349 0.108027069,22.1080271 C0.108027069,22.0730243 0.108998433,22.0380282 0.110940039,22.0030793 L1.29635332,0.665640235 C1.31710049,0.292191224 1.62597512,-2.21975898e-13 2,-2.22044605e-13 Z" id="Rectangle-9-Copy-6" fill="#5EB4E9" fill-rule="nonzero"></path>
                            </g>
                        </g>
                        <g id="Rain-–-B3" transform="translate(121.000000, 49.000000)">
                            <g id="B3">
                                <rect id="Rectangle-Copy-5" fill-rule="nonzero" x="0" y="0" width="4" height="24"></rect>
                                <path d="M2,-2.22044605e-13 L2,-2.22044605e-13 C2.37402488,-2.22113312e-13 2.68289951,0.292191224 2.70364668,0.665640235 L3.88905996,22.0030793 C3.94702102,23.0463783 3.14824678,23.939126 2.10494778,23.997087 C2.06999886,23.9990286 2.0350028,24 2,24 L2,24 C0.955092203,24 0.108027069,23.1529349 0.108027069,22.1080271 C0.108027069,22.0730243 0.108998433,22.0380282 0.110940039,22.0030793 L1.29635332,0.665640235 C1.31710049,0.292191224 1.62597512,-2.21975898e-13 2,-2.22044605e-13 Z" id="Rectangle-9-Copy-6" fill="#5EB4E9" fill-rule="nonzero"></path>
                            </g>
                        </g>
                        <g id="Rain-–-B3" transform="translate(44.000000, 91.000000)">
                            <g id="B3">
                                <rect id="Rectangle-Copy-5" fill-rule="nonzero" x="0" y="0" width="4" height="24"></rect>
                                <path d="M2,-2.22044605e-13 L2,-2.22044605e-13 C2.37402488,-2.22113312e-13 2.68289951,0.292191224 2.70364668,0.665640235 L3.88905996,22.0030793 C3.94702102,23.0463783 3.14824678,23.939126 2.10494778,23.997087 C2.06999886,23.9990286 2.0350028,24 2,24 L2,24 C0.955092203,24 0.108027069,23.1529349 0.108027069,22.1080271 C0.108027069,22.0730243 0.108998433,22.0380282 0.110940039,22.0030793 L1.29635332,0.665640235 C1.31710049,0.292191224 1.62597512,-2.21975898e-13 2,-2.22044605e-13 Z" id="Rectangle-9-Copy-6" fill="#5EB4E9" fill-rule="nonzero"></path>
                            </g>
                        </g>
                        <g id="Rain-–-B3" transform="translate(176.000000, 23.000000)">
                            <g id="B3">
                                <rect id="Rectangle-Copy-5" fill-rule="nonzero" x="0" y="0" width="4" height="24"></rect>
                                <path d="M2,-2.22044605e-13 L2,-2.22044605e-13 C2.37402488,-2.22113312e-13 2.68289951,0.292191224 2.70364668,0.665640235 L3.88905996,22.0030793 C3.94702102,23.0463783 3.14824678,23.939126 2.10494778,23.997087 C2.06999886,23.9990286 2.0350028,24 2,24 L2,24 C0.955092203,24 0.108027069,23.1529349 0.108027069,22.1080271 C0.108027069,22.0730243 0.108998433,22.0380282 0.110940039,22.0030793 L1.29635332,0.665640235 C1.31710049,0.292191224 1.62597512,-2.21975898e-13 2,-2.22044605e-13 Z" id="Rectangle-9-Copy-6" fill="#5EB4E9" fill-rule="nonzero"></path>
                            </g>
                        </g>
                        <g id="Rain-–-B4" transform="translate(165.000000, 35.000000)">
                            <g id="B4">
                                <rect id="Rectangle" fill-rule="nonzero" x="0" y="0" width="4" height="40"></rect>
                                <path d="M2,-2.20268248e-13 L2,-2.20268248e-13 C2.37172886,-2.20336534e-13 2.67649247,0.294774086 2.68887655,0.666296605 L3.93337034,38.0011102 C3.9689627,39.0688811 3.13221663,39.9633338 2.06444568,39.9989262 C2.04297124,39.999642 2.02148637,40 2,40 L2,40 C0.931636004,40 0.065555864,39.1339199 0.065555864,38.0655559 C0.065555864,38.0440695 0.0659138459,38.0225846 0.0666296605,38.0011102 L1.31112345,0.666296605 C1.32350753,0.294774086 1.62827114,-2.20199963e-13 2,-2.20268248e-13 Z" id="Rectangle-9-Copy-7" fill="#5EB4E9" fill-rule="nonzero"></path>
                            </g>
                        </g>
                        <g id="40" opacity="0.7" transform="translate(1.000000, 9.000000)">
                            <g id="Rain-–-C2" transform="translate(77.000000, 25.000000)" fill="#5EB4E9">
                                <g id="C2">
                                    <rect id="Rectangle-9-Copy-13" fill-rule="nonzero" x="0" y="0" width="2" height="16" rx="1"></rect>
                                </g>
                            </g>
                            <g id="Rain-–-C2" transform="translate(0.000000, 67.000000)" fill="#5EB4E9">
                                <g id="C2">
                                    <rect id="Rectangle-9-Copy-13" fill-rule="nonzero" x="0" y="0" width="2" height="16" rx="1"></rect>
                                </g>
                            </g>
                            <g id="Rain-–-C3" transform="translate(176.000000, 73.000000)" fill="#5EB4E9">
                                <g id="C3">
                                    <rect id="Rectangle-9-Copy-14" fill-rule="nonzero" x="0" y="0" width="2" height="24" rx="1"></rect>
                                </g>
                            </g>
                            <g id="Rain-–-B4" transform="translate(98.000000, 27.000000)">
                                <g id="B4">
                                    <rect id="Rectangle" fill-rule="nonzero" x="0" y="0" width="4" height="40"></rect>
                                    <path d="M2,-2.20268248e-13 L2,-2.20268248e-13 C2.37172886,-2.20336534e-13 2.67649247,0.294774086 2.68887655,0.666296605 L3.93337034,38.0011102 C3.9689627,39.0688811 3.13221663,39.9633338 2.06444568,39.9989262 C2.04297124,39.999642 2.02148637,40 2,40 L2,40 C0.931636004,40 0.065555864,39.1339199 0.065555864,38.0655559 C0.065555864,38.0440695 0.0659138459,38.0225846 0.0666296605,38.0011102 L1.31112345,0.666296605 C1.32350753,0.294774086 1.62827114,-2.20199963e-13 2,-2.20268248e-13 Z" id="Rectangle-9-Copy-7" fill="#5EB4E9" fill-rule="nonzero"></path>
                                </g>
                            </g>
                            <g id="Rain-–-B4" transform="translate(21.000000, 69.000000)">
                                <g id="B4">
                                    <rect id="Rectangle" fill-rule="nonzero" x="0" y="0" width="4" height="40"></rect>
                                    <path d="M2,-2.20268248e-13 L2,-2.20268248e-13 C2.37172886,-2.20336534e-13 2.67649247,0.294774086 2.68887655,0.666296605 L3.93337034,38.0011102 C3.9689627,39.0688811 3.13221663,39.9633338 2.06444568,39.9989262 C2.04297124,39.999642 2.02148637,40 2,40 L2,40 C0.931636004,40 0.065555864,39.1339199 0.065555864,38.0655559 C0.065555864,38.0440695 0.0659138459,38.0225846 0.0666296605,38.0011102 L1.31112345,0.666296605 C1.32350753,0.294774086 1.62827114,-2.20199963e-13 2,-2.20268248e-13 Z" id="Rectangle-9-Copy-7" fill="#5EB4E9" fill-rule="nonzero"></path>
                                </g>
                            </g>
                            <g id="Rain-–-B1" transform="translate(175.000000, 44.000000)">
                                <g id="B1">
                                    <rect id="Rectangle-Copy-7" fill-rule="nonzero" x="0" y="0" width="4" height="8"></rect>
                                    <path d="M2,0 L2,0 C2.38658937,-7.10153145e-17 2.71647908,0.279573394 2.77987937,0.660928532 L3.67200189,6.02707901 C3.82552065,6.95050015 3.20139146,7.82353244 2.27797031,7.97705121 C2.18610136,7.99232442 2.09312989,8 2,8 L2,8 C1.06390459,8 0.305049322,7.24114473 0.305049322,6.30504932 C0.305049322,6.21191943 0.312724901,6.11894796 0.327998115,6.02707901 L1.22012063,0.660928532 C1.28352092,0.279573394 1.61341063,7.10153145e-17 2,0 Z" id="Rectangle-9-Copy-4" fill="#5EB4E9" fill-rule="nonzero"></path>
                                </g>
                            </g>
                            <g id="Rain-–-B3" transform="translate(164.000000, 0.000000)">
                                <g id="B3">
                                    <rect id="Rectangle-Copy-5" fill-rule="nonzero" x="0" y="0" width="4" height="24"></rect>
                                    <path d="M2,-2.22044605e-13 L2,-2.22044605e-13 C2.37402488,-2.22113312e-13 2.68289951,0.292191224 2.70364668,0.665640235 L3.88905996,22.0030793 C3.94702102,23.0463783 3.14824678,23.939126 2.10494778,23.997087 C2.06999886,23.9990286 2.0350028,24 2,24 L2,24 C0.955092203,24 0.108027069,23.1529349 0.108027069,22.1080271 C0.108027069,22.0730243 0.108998433,22.0380282 0.110940039,22.0030793 L1.29635332,0.665640235 C1.31710049,0.292191224 1.62597512,-2.21975898e-13 2,-2.22044605e-13 Z" id="Rectangle-9-Copy-6" fill="#5EB4E9" fill-rule="nonzero"></path>
                                </g>
                            </g>
                            <g id="Rain-–-C3" transform="translate(187.000000, 78.000000)" fill="#5EB4E9">
                                <g id="C3">
                                    <rect id="Rectangle-9-Copy-14" fill-rule="nonzero" x="0" y="0" width="2" height="24" rx="1"></rect>
                                </g>
                            </g>
                            <g id="Rain-–-C3" transform="translate(143.000000, 108.000000)" fill="#5EB4E9">
                                <g id="C3">
                                    <rect id="Rectangle-9-Copy-14" fill-rule="nonzero" x="0" y="0" width="2" height="24" rx="1"></rect>
                                </g>
                            </g>
                            <g id="Rain-–-C3" transform="translate(66.000000, 150.000000)" fill="#5EB4E9">
                                <g id="C3">
                                    <rect id="Rectangle-9-Copy-14" fill-rule="nonzero" x="0" y="0" width="2" height="24" rx="1"></rect>
                                </g>
                            </g>
                        </g>
                        <g id="70" opacity="0.8" transform="translate(0.000000, 7.000000)">
                            <g id="Rain-–-C4" transform="translate(100.000000, 97.000000)" fill="#5EB4E9">
                                <g id="C4">
                                    <rect id="Rectangle-9-Copy-15" fill-rule="nonzero" x="0" y="0" width="2" height="40" rx="1"></rect>
                                </g>
                            </g>
                            <g id="Rain-–-C4" transform="translate(23.000000, 139.000000)" fill="#5EB4E9">
                                <g id="C4">
                                    <rect id="Rectangle-9-Copy-15" fill-rule="nonzero" x="0" y="0" width="2" height="40" rx="1"></rect>
                                </g>
                            </g>
                            <g id="Rain-–-C4" transform="translate(111.000000, 56.000000)" fill="#5EB4E9">
                                <g id="C4">
                                    <rect id="Rectangle-9-Copy-15" fill-rule="nonzero" x="0" y="0" width="2" height="40" rx="1"></rect>
                                </g>
                            </g>
                            <g id="Rain-–-C4" transform="translate(34.000000, 98.000000)" fill="#5EB4E9">
                                <g id="C4">
                                    <rect id="Rectangle-9-Copy-15" fill-rule="nonzero" x="0" y="0" width="2" height="40" rx="1"></rect>
                                </g>
                            </g>
                            <g id="Rain-–-B3" transform="translate(132.000000, 63.000000)">
                                <g id="B3">
                                    <rect id="Rectangle-Copy-5" fill-rule="nonzero" x="0" y="0" width="4" height="24"></rect>
                                    <path d="M2,-2.22044605e-13 L2,-2.22044605e-13 C2.37402488,-2.22113312e-13 2.68289951,0.292191224 2.70364668,0.665640235 L3.88905996,22.0030793 C3.94702102,23.0463783 3.14824678,23.939126 2.10494778,23.997087 C2.06999886,23.9990286 2.0350028,24 2,24 L2,24 C0.955092203,24 0.108027069,23.1529349 0.108027069,22.1080271 C0.108027069,22.0730243 0.108998433,22.0380282 0.110940039,22.0030793 L1.29635332,0.665640235 C1.31710049,0.292191224 1.62597512,-2.21975898e-13 2,-2.22044605e-13 Z" id="Rectangle-9-Copy-6" fill="#5EB4E9" fill-rule="nonzero"></path>
                                </g>
                            </g>
                            <g id="Rain-–-B3" transform="translate(55.000000, 105.000000)">
                                <g id="B3">
                                    <rect id="Rectangle-Copy-5" fill-rule="nonzero" x="0" y="0" width="4" height="24"></rect>
                                    <path d="M2,-2.22044605e-13 L2,-2.22044605e-13 C2.37402488,-2.22113312e-13 2.68289951,0.292191224 2.70364668,0.665640235 L3.88905996,22.0030793 C3.94702102,23.0463783 3.14824678,23.939126 2.10494778,23.997087 C2.06999886,23.9990286 2.0350028,24 2,24 L2,24 C0.955092203,24 0.108027069,23.1529349 0.108027069,22.1080271 C0.108027069,22.0730243 0.108998433,22.0380282 0.110940039,22.0030793 L1.29635332,0.665640235 C1.31710049,0.292191224 1.62597512,-2.21975898e-13 2,-2.22044605e-13 Z" id="Rectangle-9-Copy-6" fill="#5EB4E9" fill-rule="nonzero"></path>
                                </g>
                            </g>
                            <g id="Rain-–-B4" transform="translate(110.000000, 99.000000)">
                                <g id="B4">
                                    <rect id="Rectangle" fill-rule="nonzero" x="0" y="0" width="4" height="40"></rect>
                                    <path d="M2,-2.20268248e-13 L2,-2.20268248e-13 C2.37172886,-2.20336534e-13 2.67649247,0.294774086 2.68887655,0.666296605 L3.93337034,38.0011102 C3.9689627,39.0688811 3.13221663,39.9633338 2.06444568,39.9989262 C2.04297124,39.999642 2.02148637,40 2,40 L2,40 C0.931636004,40 0.065555864,39.1339199 0.065555864,38.0655559 C0.065555864,38.0440695 0.0659138459,38.0225846 0.0666296605,38.0011102 L1.31112345,0.666296605 C1.32350753,0.294774086 1.62827114,-2.20199963e-13 2,-2.20268248e-13 Z" id="Rectangle-9-Copy-7" fill="#5EB4E9" fill-rule="nonzero"></path>
                                </g>
                            </g>
                            <g id="Rain-–-B4" transform="translate(33.000000, 141.000000)">
                                <g id="B4">
                                    <rect id="Rectangle" fill-rule="nonzero" x="0" y="0" width="4" height="40"></rect>
                                    <path d="M2,-2.20268248e-13 L2,-2.20268248e-13 C2.37172886,-2.20336534e-13 2.67649247,0.294774086 2.68887655,0.666296605 L3.93337034,38.0011102 C3.9689627,39.0688811 3.13221663,39.9633338 2.06444568,39.9989262 C2.04297124,39.999642 2.02148637,40 2,40 L2,40 C0.931636004,40 0.065555864,39.1339199 0.065555864,38.0655559 C0.065555864,38.0440695 0.0659138459,38.0225846 0.0666296605,38.0011102 L1.31112345,0.666296605 C1.32350753,0.294774086 1.62827114,-2.20199963e-13 2,-2.20268248e-13 Z" id="Rectangle-9-Copy-7" fill="#5EB4E9" fill-rule="nonzero"></path>
                                </g>
                            </g>
                            <g id="Rain-–-C3" transform="translate(144.000000, 16.000000)" fill="#5EB4E9">
                                <g id="C3">
                                    <rect id="Rectangle-9-Copy-14" fill-rule="nonzero" x="0" y="0" width="2" height="24" rx="1"></rect>
                                </g>
                            </g>
                            <g id="Rain-–-C3" transform="translate(67.000000, 58.000000)" fill="#5EB4E9">
                                <g id="C3">
                                    <rect id="Rectangle-9-Copy-14" fill-rule="nonzero" x="0" y="0" width="2" height="24" rx="1"></rect>
                                </g>
                            </g>
                            <g id="Rain-–-B3" transform="translate(154.000000, 30.000000)">
                                <g id="B3">
                                    <rect id="Rectangle-Copy-5" fill-rule="nonzero" x="0" y="0" width="4" height="24"></rect>
                                    <path d="M2,-2.22044605e-13 L2,-2.22044605e-13 C2.37402488,-2.22113312e-13 2.68289951,0.292191224 2.70364668,0.665640235 L3.88905996,22.0030793 C3.94702102,23.0463783 3.14824678,23.939126 2.10494778,23.997087 C2.06999886,23.9990286 2.0350028,24 2,24 L2,24 C0.955092203,24 0.108027069,23.1529349 0.108027069,22.1080271 C0.108027069,22.0730243 0.108998433,22.0380282 0.110940039,22.0030793 L1.29635332,0.665640235 C1.31710049,0.292191224 1.62597512,-2.21975898e-13 2,-2.22044605e-13 Z" id="Rectangle-9-Copy-6" fill="#5EB4E9" fill-rule="nonzero"></path>
                                </g>
                            </g>
                            <g id="Rain-–-B3" transform="translate(187.000000, 49.000000)">
                                <g id="B3">
                                    <rect id="Rectangle-Copy-5" fill-rule="nonzero" x="0" y="0" width="4" height="16"></rect>
                                    <path d="M2,-2.22044605e-13 L2,-2.22044605e-13 C2.3768214,-2.22113826e-13 2.69073701,0.288844074 2.72203032,0.664363839 L3.83390904,14.0069085 C3.91831237,15.0197485 3.16566575,15.9092399 2.15282575,15.9936433 C2.10199395,15.9978793 2.051008,16 2,16 L2,16 C0.983649283,16 0.159734237,15.176085 0.159734237,14.1597342 C0.159734237,14.1087262 0.161854976,14.0577403 0.16609096,14.0069085 L1.27796968,0.664363839 C1.30926299,0.288844074 1.6231786,-2.21975384e-13 2,-2.22044605e-13 Z" id="Rectangle-9-Copy-6" fill="#5EB4E9" fill-rule="nonzero"></path>
                                </g>
                            </g>
                            <g id="Rain-–-B4" transform="translate(143.000000, 68.000000)">
                                <g id="B4">
                                    <rect id="Rectangle" fill-rule="nonzero" x="0" y="0" width="4" height="40"></rect>
                                    <path d="M2,-2.20268248e-13 L2,-2.20268248e-13 C2.37172886,-2.20336534e-13 2.67649247,0.294774086 2.68887655,0.666296605 L3.93337034,38.0011102 C3.9689627,39.0688811 3.13221663,39.9633338 2.06444568,39.9989262 C2.04297124,39.999642 2.02148637,40 2,40 L2,40 C0.931636004,40 0.065555864,39.1339199 0.065555864,38.0655559 C0.065555864,38.0440695 0.0659138459,38.0225846 0.0666296605,38.0011102 L1.31112345,0.666296605 C1.32350753,0.294774086 1.62827114,-2.20199963e-13 2,-2.20268248e-13 Z" id="Rectangle-9-Copy-7" fill="#5EB4E9" fill-rule="nonzero"></path>
                                </g>
                            </g>
                            <g id="Rain-–-B4" transform="translate(66.000000, 110.000000)">
                                <g id="B4">
                                    <rect id="Rectangle" fill-rule="nonzero" x="0" y="0" width="4" height="40"></rect>
                                    <path d="M2,-2.20268248e-13 L2,-2.20268248e-13 C2.37172886,-2.20336534e-13 2.67649247,0.294774086 2.68887655,0.666296605 L3.93337034,38.0011102 C3.9689627,39.0688811 3.13221663,39.9633338 2.06444568,39.9989262 C2.04297124,39.999642 2.02148637,40 2,40 L2,40 C0.931636004,40 0.065555864,39.1339199 0.065555864,38.0655559 C0.065555864,38.0440695 0.0659138459,38.0225846 0.0666296605,38.0011102 L1.31112345,0.666296605 C1.32350753,0.294774086 1.62827114,-2.20199963e-13 2,-2.20268248e-13 Z" id="Rectangle-9-Copy-7" fill="#5EB4E9" fill-rule="nonzero"></path>
                                </g>
                            </g>
                            <g id="Rain-–-B4" transform="translate(77.000000, 47.000000)">
                                <g id="B4">
                                    <rect id="Rectangle" fill-rule="nonzero" x="0" y="0" width="4" height="40"></rect>
                                    <path d="M2,-2.20268248e-13 L2,-2.20268248e-13 C2.37172886,-2.20336534e-13 2.67649247,0.294774086 2.68887655,0.666296605 L3.93337034,38.0011102 C3.9689627,39.0688811 3.13221663,39.9633338 2.06444568,39.9989262 C2.04297124,39.999642 2.02148637,40 2,40 L2,40 C0.931636004,40 0.065555864,39.1339199 0.065555864,38.0655559 C0.065555864,38.0440695 0.0659138459,38.0225846 0.0666296605,38.0011102 L1.31112345,0.666296605 C1.32350753,0.294774086 1.62827114,-2.20199963e-13 2,-2.20268248e-13 Z" id="Rectangle-9-Copy-7" fill="#5EB4E9" fill-rule="nonzero"></path>
                                </g>
                            </g>
                            <g id="Rain-–-B4" transform="translate(0.000000, 89.000000)">
                                <g id="B4">
                                    <rect id="Rectangle" fill-rule="nonzero" x="0" y="0" width="4" height="40"></rect>
                                    <path d="M2,-2.20268248e-13 L2,-2.20268248e-13 C2.37172886,-2.20336534e-13 2.67649247,0.294774086 2.68887655,0.666296605 L3.93337034,38.0011102 C3.9689627,39.0688811 3.13221663,39.9633338 2.06444568,39.9989262 C2.04297124,39.999642 2.02148637,40 2,40 L2,40 C0.931636004,40 0.065555864,39.1339199 0.065555864,38.0655559 C0.065555864,38.0440695 0.0659138459,38.0225846 0.0666296605,38.0011102 L1.31112345,0.666296605 C1.32350753,0.294774086 1.62827114,-2.20199963e-13 2,-2.20268248e-13 Z" id="Rectangle-9-Copy-7" fill="#5EB4E9" fill-rule="nonzero"></path>
                                </g>
                            </g>
                            <g id="Rain-–-B4" transform="translate(121.000000, 0.000000)">
                                <g id="B4">
                                    <rect id="Rectangle" fill-rule="nonzero" x="0" y="0" width="4" height="40"></rect>
                                    <path d="M2,-2.20268248e-13 L2,-2.20268248e-13 C2.37172886,-2.20336534e-13 2.67649247,0.294774086 2.68887655,0.666296605 L3.93337034,38.0011102 C3.9689627,39.0688811 3.13221663,39.9633338 2.06444568,39.9989262 C2.04297124,39.999642 2.02148637,40 2,40 L2,40 C0.931636004,40 0.065555864,39.1339199 0.065555864,38.0655559 C0.065555864,38.0440695 0.0659138459,38.0225846 0.0666296605,38.0011102 L1.31112345,0.666296605 C1.32350753,0.294774086 1.62827114,-2.20199963e-13 2,-2.20268248e-13 Z" id="Rectangle-9-Copy-7" fill="#5EB4E9" fill-rule="nonzero"></path>
                                </g>
                            </g>
                            <g id="Rain-–-B4" transform="translate(44.000000, 42.000000)">
                                <g id="B4">
                                    <rect id="Rectangle" fill-rule="nonzero" x="0" y="0" width="4" height="40"></rect>
                                    <path d="M2,-2.20268248e-13 L2,-2.20268248e-13 C2.37172886,-2.20336534e-13 2.67649247,0.294774086 2.68887655,0.666296605 L3.93337034,38.0011102 C3.9689627,39.0688811 3.13221663,39.9633338 2.06444568,39.9989262 C2.04297124,39.999642 2.02148637,40 2,40 L2,40 C0.931636004,40 0.065555864,39.1339199 0.065555864,38.0655559 C0.065555864,38.0440695 0.0659138459,38.0225846 0.0666296605,38.0011102 L1.31112345,0.666296605 C1.32350753,0.294774086 1.62827114,-2.20199963e-13 2,-2.20268248e-13 Z" id="Rectangle-9-Copy-7" fill="#5EB4E9" fill-rule="nonzero"></path>
                                </g>
                            </g>
                            <g id="Rain-–-C3" transform="translate(89.000000, 136.000000)" fill="#5EB4E9">
                                <g id="C3">
                                    <rect id="Rectangle-9-Copy-14" fill-rule="nonzero" x="0" y="0" width="2" height="24" rx="1"></rect>
                                </g>
                            </g>
                        </g>
                        <g id="Rain-–-C4" transform="translate(122.000000, 76.000000)" fill="#5EB4E9">
                            <g id="C4">
                                <rect id="Rectangle-9-Copy-15" fill-rule="nonzero" x="0" y="0" width="2" height="40" rx="1"></rect>
                            </g>
                        </g>
                        <g id="Rain-–-C4" transform="translate(45.000000, 118.000000)" fill="#5EB4E9">
                            <g id="C4">
                                <rect id="Rectangle-9-Copy-15" fill-rule="nonzero" x="0" y="0" width="2" height="40" rx="1"></rect>
                            </g>
                        </g>
                        <g id="Rain-–-C4" transform="translate(111.000000, 2.000000)" fill="#5EB4E9">
                            <g id="C4">
                                <rect id="Rectangle-9-Copy-15" fill-rule="nonzero" x="0" y="0" width="2" height="40" rx="1"></rect>
                            </g>
                        </g>
                        <g id="Rain-–-C4" transform="translate(34.000000, 44.000000)" fill="#5EB4E9">
                            <g id="C4">
                                <rect id="Rectangle-9-Copy-15" fill-rule="nonzero" x="0" y="0" width="2" height="40" rx="1"></rect>
                            </g>
                        </g>
                        <g id="Rain-–-C4" transform="translate(78.000000, 124.000000)" fill="#5EB4E9">
                            <g id="C4">
                                <rect id="Rectangle-9-Copy-15" fill-rule="nonzero" x="0" y="0" width="2" height="40" rx="1"></rect>
                            </g>
                        </g>
                        <g id="Rain-–-C3" transform="translate(1.000000, 166.000000)" fill="#5EB4E9">
                            <g id="C3">
                                <rect id="Rectangle-9-Copy-14" fill-rule="nonzero" x="0" y="0" width="2" height="24" rx="1"></rect>
                            </g>
                        </g>
                    </g>
                </g>
            </g>
        </g>
    </g>
</svg>