<?xml version="1.0" encoding="utf-8"?>
<!-- Generator: Adobe Illustrator 22.1.0, SVG Export Plug-In . SVG Version: 6.00 Build 0)  -->
<svg version="1.1" id="Layer_1" xmlns="http://www.w3.org/2000/svg" xmlns:xlink="http://www.w3.org/1999/xlink" x="0px" y="0px"
	 viewBox="0 0 40 120" style="enable-background:new 0 0 40 120;" xml:space="preserve">
<style type="text/css">
	.st0{filter:url(#Adobe_OpacityMaskFilter);}
	.st1{fill:#FFFFFF;}
	.st2{mask:url(#mask-2_1_);}
	.st3{fill:#046EAF;}
	.st4{fill:none;}
	.st5{opacity:0.7;}
	.st6{opacity:0.8;}
</style>
<title>Rain Nowcast Icon / XS Very Heavy</title>
<desc>Created with Sketch.</desc>
<g id="Rain-Nowcast-Icon-_x2F_-XS-Very-Heavy">
	<g id="Mask">
	</g>
	<defs>
		<filter id="Adobe_OpacityMaskFilter" filterUnits="userSpaceOnUse" x="-202.4" y="-13.9" width="238.2" height="139.3">
			<feColorMatrix  type="matrix" values="1 0 0 0 0  0 1 0 0 0  0 0 1 0 0  0 0 0 1 0"/>
		</filter>
	</defs>
	<mask maskUnits="userSpaceOnUse" x="-202.4" y="-13.9" width="238.2" height="139.3" id="mask-2_1_">
		<g class="st0">
			<rect id="path-1_1_" class="st1" width="40" height="120"/>
		</g>
	</mask>
	<g id="Rain-Nowcaast-_x2F_-Icon-4-Very-Heavy-" class="st2">
		
			<g id="Group-_x2B_-Group-2-Mask" transform="translate(-77.000000, 75.931379) rotate(30.000000) translate(77.000000, -75.931379) translate(-180.000000, -49.068621)">
			<g transform="translate(2.000000, 0.000000)">
				<g id="Group-2" transform="translate(1.000000, 15.000000)">
					<g id="Rain-_x2013_-C4" transform="translate(166.000000, 79.000000)">
						<g id="C4">
							<path id="Rectangle-9-Copy-15" class="st3" d="M1,0L1,0c0.6,0,1,0.4,1,1l0,38c0,0.6-0.4,1-1,1l0,0c-0.6,0-1-0.4-1-1L0,1
								C0,0.4,0.4,0,1,0z"/>
						</g>
					</g>
					<g id="Rain-_x2013_-C3" transform="translate(89.000000, 35.000000)">
						<g id="C3">
							<path id="Rectangle-9-Copy-14" class="st3" d="M1,0L1,0c0.6,0,1,0.4,1,1l0,22c0,0.6-0.4,1-1,1l0,0c-0.6,0-1-0.4-1-1L0,1
								C0,0.4,0.4,0,1,0z"/>
						</g>
					</g>
					<g id="Rain-_x2013_-C3_1_" transform="translate(12.000000, 77.000000)">
						<g id="C3_1_">
							<path id="Rectangle-9-Copy-14_1_" class="st3" d="M1,0L1,0c0.6,0,1,0.4,1,1l0,22c0,0.6-0.4,1-1,1l0,0c-0.6,0-1-0.4-1-1L0,1
								C0,0.4,0.4,0,1,0z"/>
						</g>
					</g>
					<g id="Rain-_x2013_-B2" transform="translate(143.000000, 49.000000)">
						<g id="B2">
							
								<rect id="Rectangle-Copy-6" x="-6" y="6" transform="matrix(2.729302e-06 1 -1 2.729302e-06 10.0001 5.9999)" class="st4" width="16" height="4"/>
							<path id="Rectangle-9-Copy-5" class="st3" d="M2,0L2,0c0.4,0,0.7,0.3,0.7,0.7L3.8,14c0.1,1-0.7,1.9-1.7,2c-0.1,0-0.1,0-0.2,0
								l0,0c-1,0-1.8-0.8-1.8-1.8c0-0.1,0-0.1,0-0.2L1.3,0.7C1.3,0.3,1.6,0,2,0z"/>
						</g>
					</g>
					<g id="Rain-_x2013_-B2_1_" transform="translate(66.000000, 91.000000)">
						<g id="B2_1_">
							
								<rect id="Rectangle-Copy-6_1_" x="-6" y="6" transform="matrix(2.729302e-06 1 -1 2.729302e-06 10.0001 6)" class="st4" width="16" height="4"/>
							<path id="Rectangle-9-Copy-5_1_" class="st3" d="M2,0L2,0c0.4,0,0.7,0.3,0.7,0.7L3.8,14c0.1,1-0.7,1.9-1.7,2
								c-0.1,0-0.1,0-0.2,0l0,0c-1,0-1.8-0.8-1.8-1.8c0-0.1,0-0.1,0-0.2L1.3,0.7C1.3,0.3,1.6,0,2,0z"/>
						</g>
					</g>
					<g id="Rain-_x2013_-B2_2_" transform="translate(77.000000, 96.000000)">
						<g id="B2_2_">
							
								<rect id="Rectangle-Copy-6_2_" x="-6" y="6" transform="matrix(2.729302e-06 1 -1 2.729302e-06 10.0001 6)" class="st4" width="16" height="4"/>
							<path id="Rectangle-9-Copy-5_2_" class="st3" d="M2,0L2,0c0.4,0,0.7,0.3,0.7,0.7L3.8,14c0.1,1-0.7,1.9-1.7,2
								c-0.1,0-0.1,0-0.2,0l0,0c-1,0-1.8-0.8-1.8-1.8c0-0.1,0-0.1,0-0.2L1.3,0.7C1.3,0.3,1.6,0,2,0z"/>
						</g>
					</g>
					<g id="Rain-_x2013_-B2_3_" transform="translate(0.000000, 138.000000)">
						<g id="B2_3_">
							
								<rect id="Rectangle-Copy-6_3_" x="-6" y="6" transform="matrix(2.729302e-06 1 -1 2.729302e-06 10.0001 6)" class="st4" width="16" height="4"/>
							<path id="Rectangle-9-Copy-5_3_" class="st3" d="M2,0L2,0c0.4,0,0.7,0.3,0.7,0.7L3.8,14c0.1,1-0.7,1.9-1.7,2
								c-0.1,0-0.1,0-0.2,0l0,0c-1,0-1.8-0.8-1.8-1.8c0-0.1,0-0.1,0-0.2L1.3,0.7C1.3,0.3,1.6,0,2,0z"/>
						</g>
					</g>
					<g id="Rain-_x2013_-B4" transform="translate(132.000000, 97.000000)">
						<g id="B4">
							
								<rect id="Rectangle" x="-18" y="18" transform="matrix(2.729302e-06 1 -1 2.729302e-06 22.0001 17.9999)" class="st4" width="40" height="4"/>
							<path id="Rectangle-9-Copy-7" class="st3" d="M2,0L2,0c0.4,0,0.7,0.3,0.7,0.7L3.9,38c0,1.1-0.8,2-1.9,2c0,0,0,0-0.1,0l0,0
								c-1.1,0-1.9-0.9-1.9-1.9c0,0,0,0,0-0.1L1.3,0.7C1.3,0.3,1.6,0,2,0z"/>
						</g>
					</g>
					<g id="Rain-_x2013_-B4_1_" transform="translate(55.000000, 139.000000)">
						<g id="B4_1_">
							
								<rect id="Rectangle_1_" x="-18" y="18" transform="matrix(2.729302e-06 1 -1 2.729302e-06 22.0001 17.9999)" class="st4" width="40" height="4"/>
							<path id="Rectangle-9-Copy-7_1_" class="st3" d="M2,0L2,0c0.4,0,0.7,0.3,0.7,0.7L3.9,38c0,1.1-0.8,2-1.9,2c0,0,0,0-0.1,0l0,0
								c-1.1,0-1.9-0.9-1.9-1.9c0,0,0,0,0-0.1L1.3,0.7C1.3,0.3,1.6,0,2,0z"/>
						</g>
					</g>
					<g id="Rain-_x2013_-B3" transform="translate(99.000000, 78.000000)">
						<g id="B3">
							
								<rect id="Rectangle-Copy-5" x="-10" y="10" transform="matrix(2.729302e-06 1 -1 2.729302e-06 14.0001 9.9999)" class="st4" width="24" height="4"/>
							<path id="Rectangle-9-Copy-6" class="st3" d="M2,0L2,0c0.4,0,0.7,0.3,0.7,0.7L3.9,22c0.1,1-0.7,1.9-1.8,2c0,0-0.1,0-0.1,0
								l0,0c-1,0-1.9-0.8-1.9-1.9c0,0,0-0.1,0-0.1L1.3,0.7C1.3,0.3,1.6,0,2,0z"/>
						</g>
					</g>
					<g id="Rain-_x2013_-B3_1_" transform="translate(22.000000, 120.000000)">
						<g id="B3_1_">
							
								<rect id="Rectangle-Copy-5_1_" x="-10" y="10" transform="matrix(2.729302e-06 1 -1 2.729302e-06 14.0001 10)" class="st4" width="24" height="4"/>
							<path id="Rectangle-9-Copy-6_1_" class="st3" d="M2,0L2,0c0.4,0,0.7,0.3,0.7,0.7L3.9,22c0.1,1-0.7,1.9-1.8,2c0,0-0.1,0-0.1,0
								l0,0c-1,0-1.9-0.8-1.9-1.9c0,0,0-0.1,0-0.1L1.3,0.7C1.3,0.3,1.6,0,2,0z"/>
						</g>
					</g>
					<g id="Rain-_x2013_-B2_4_" transform="translate(176.000000, 63.000000)">
						<g id="B2_4_">
							
								<rect id="Rectangle-Copy-6_4_" x="-6" y="6" transform="matrix(2.729302e-06 1 -1 2.729302e-06 10.0001 5.9999)" class="st4" width="16" height="4"/>
							<path id="Rectangle-9-Copy-5_4_" class="st3" d="M2,0L2,0c0.4,0,0.7,0.3,0.7,0.7L3.8,14c0.1,1-0.7,1.9-1.7,2
								c-0.1,0-0.1,0-0.2,0l0,0c-1,0-1.8-0.8-1.8-1.8c0-0.1,0-0.1,0-0.2L1.3,0.7C1.3,0.3,1.6,0,2,0z"/>
						</g>
					</g>
					<g id="Rain-_x2013_-B4_2_" transform="translate(132.000000, 27.000000)">
						<g id="B4_2_">
							
								<rect id="Rectangle_2_" x="-18" y="18" transform="matrix(2.729302e-06 1 -1 2.729302e-06 22 17.9999)" class="st4" width="40" height="4"/>
							<path id="Rectangle-9-Copy-7_2_" class="st3" d="M2,0L2,0c0.4,0,0.7,0.3,0.7,0.7L3.9,38c0,1.1-0.8,2-1.9,2c0,0,0,0-0.1,0l0,0
								c-1.1,0-1.9-0.9-1.9-1.9c0,0,0,0,0-0.1L1.3,0.7C1.3,0.3,1.6,0,2,0z"/>
						</g>
					</g>
					<g id="Rain-_x2013_-B4_3_" transform="translate(55.000000, 69.000000)">
						<g id="B4_3_">
							
								<rect id="Rectangle_3_" x="-18" y="18" transform="matrix(2.729302e-06 1 -1 2.729302e-06 22.0001 17.9999)" class="st4" width="40" height="4"/>
							<path id="Rectangle-9-Copy-7_3_" class="st3" d="M2,0L2,0c0.4,0,0.7,0.3,0.7,0.7L3.9,38c0,1.1-0.8,2-1.9,2c0,0,0,0-0.1,0l0,0
								c-1.1,0-1.9-0.9-1.9-1.9c0,0,0,0,0-0.1L1.3,0.7C1.3,0.3,1.6,0,2,0z"/>
						</g>
					</g>
					<g id="Rain-_x2013_-C2" transform="translate(100.000000, 147.000000)">
						<g id="C2">
							<path id="Rectangle-9-Copy-13" class="st3" d="M1,0L1,0c0.6,0,1,0.4,1,1l0,14c0,0.6-0.4,1-1,1l0,0c-0.6,0-1-0.4-1-1L0,1
								C0,0.4,0.4,0,1,0z"/>
						</g>
					</g>
					<g id="Rain-_x2013_-B2_5_" transform="translate(143.000000, 3.000000)">
						<g id="B2_5_">
							
								<rect id="Rectangle-Copy-6_5_" x="-6" y="6" transform="matrix(2.729302e-06 1 -1 2.729302e-06 10 5.9999)" class="st4" width="16" height="4"/>
							<path id="Rectangle-9-Copy-5_5_" class="st3" d="M2,0L2,0c0.4,0,0.7,0.3,0.7,0.7L3.8,14c0.1,1-0.7,1.9-1.7,2
								c-0.1,0-0.1,0-0.2,0l0,0c-1,0-1.8-0.8-1.8-1.8c0-0.1,0-0.1,0-0.2L1.3,0.7C1.3,0.3,1.6,0,2,0z"/>
						</g>
					</g>
					<g id="Rain-_x2013_-B2_6_" transform="translate(66.000000, 45.000000)">
						<g id="B2_6_">
							
								<rect id="Rectangle-Copy-6_6_" x="-6" y="6" transform="matrix(2.729302e-06 1 -1 2.729302e-06 10 6)" class="st4" width="16" height="4"/>
							<path id="Rectangle-9-Copy-5_6_" class="st3" d="M2,0L2,0c0.4,0,0.7,0.3,0.7,0.7L3.8,14c0.1,1-0.7,1.9-1.7,2
								c-0.1,0-0.1,0-0.2,0l0,0c-1,0-1.8-0.8-1.8-1.8c0-0.1,0-0.1,0-0.2L1.3,0.7C1.3,0.3,1.6,0,2,0z"/>
						</g>
					</g>
					<g id="Rain-_x2013_-B1" transform="translate(154.000000, 27.000000)">
						<g id="B1">
							
								<rect id="Rectangle-Copy-7" x="-2" y="2" transform="matrix(2.729302e-06 1 -1 2.729302e-06 6 1.9999)" class="st4" width="8" height="4"/>
							<path id="Rectangle-9-Copy-4" class="st3" d="M2,0L2,0c0.4,0,0.7,0.3,0.8,0.7L3.7,6C3.8,7,3.2,7.8,2.3,8C2.2,8,2.1,8,2,8l0,0
								C1.1,8,0.3,7.2,0.3,6.3c0-0.1,0-0.2,0-0.3l0.9-5.4C1.3,0.3,1.6,0,2,0z"/>
						</g>
					</g>
					<g id="Rain-_x2013_-D2" transform="translate(99.000000, 23.000000)">
						<path id="Oval-4-Copy-8" class="st3" d="M2,6.9c1.1,0,2-0.9,2-2c0-0.6-0.5-2-1.6-4.1l0,0C2.3,0.5,2,0.4,1.8,0.6
							c-0.1,0-0.2,0.1-0.2,0.2C0.5,2.9,0,4.2,0,4.9C0,6,0.9,6.9,2,6.9z"/>
					</g>
					<g id="Rain-_x2013_-D2_1_" transform="translate(22.000000, 65.000000)">
						<path id="Oval-4-Copy-8_1_" class="st3" d="M2,6.9c1.1,0,2-0.9,2-2c0-0.6-0.5-2-1.6-4.1l0,0C2.3,0.5,2,0.4,1.8,0.6
							c-0.1,0-0.2,0.1-0.2,0.2C0.5,2.9,0,4.2,0,4.9C0,6,0.9,6.9,2,6.9z"/>
					</g>
					<g id="Rain-_x2013_-D2_2_" transform="translate(88.000000, 61.000000)">
						<path id="Oval-4-Copy-8_2_" class="st3" d="M2,6.9c1.1,0,2-0.9,2-2c0-0.6-0.5-2-1.6-4.1l0,0C2.3,0.5,2,0.4,1.8,0.6
							c-0.1,0-0.2,0.1-0.2,0.2C0.5,2.9,0,4.2,0,4.9C0,6,0.9,6.9,2,6.9z"/>
					</g>
					<g id="Rain-_x2013_-D2_3_" transform="translate(11.000000, 103.000000)">
						<path id="Oval-4-Copy-8_3_" class="st3" d="M2,6.9c1.1,0,2-0.9,2-2c0-0.6-0.5-2-1.6-4.1l0,0C2.3,0.5,2,0.4,1.8,0.6
							c-0.1,0-0.2,0.1-0.2,0.2C0.5,2.9,0,4.2,0,4.9C0,6,0.9,6.9,2,6.9z"/>
					</g>
					<g id="Rain-_x2013_-B1_1_" transform="translate(187.000000, 75.000000)">
						<g id="B1_1_">
							
								<rect id="Rectangle-Copy-7_1_" x="-2" y="2" transform="matrix(2.729302e-06 1 -1 2.729302e-06 6.0001 1.9999)" class="st4" width="8" height="4"/>
							<path id="Rectangle-9-Copy-4_1_" class="st3" d="M2,0L2,0c0.4,0,0.7,0.3,0.8,0.7L3.7,6C3.8,7,3.2,7.8,2.3,8C2.2,8,2.1,8,2,8
								l0,0C1.1,8,0.3,7.2,0.3,6.3c0-0.1,0-0.2,0-0.3l0.9-5.4C1.3,0.3,1.6,0,2,0z"/>
						</g>
					</g>
					<g id="Rain-_x2013_-C3_2_" transform="translate(155.000000, 63.000000)">
						<g id="C3_2_">
							<path id="Rectangle-9-Copy-14_2_" class="st3" d="M1,0L1,0c0.6,0,1,0.4,1,1l0,22c0,0.6-0.4,1-1,1l0,0c-0.6,0-1-0.4-1-1L0,1
								C0,0.4,0.4,0,1,0z"/>
						</g>
					</g>
					<g id="Rain-_x2013_-B2_7_" transform="translate(110.000000, 44.000000)">
						<g id="B2_7_">
							
								<rect id="Rectangle-Copy-6_7_" x="-6" y="6" transform="matrix(2.729302e-06 1 -1 2.729302e-06 10 5.9999)" class="st4" width="16" height="4"/>
							<path id="Rectangle-9-Copy-5_7_" class="st3" d="M2,0L2,0c0.4,0,0.7,0.3,0.7,0.7L3.8,14c0.1,1-0.7,1.9-1.7,2
								c-0.1,0-0.1,0-0.2,0l0,0c-1,0-1.8-0.8-1.8-1.8c0-0.1,0-0.1,0-0.2L1.3,0.7C1.3,0.3,1.6,0,2,0z"/>
						</g>
					</g>
					<g id="Rain-_x2013_-B2_8_" transform="translate(33.000000, 86.000000)">
						<g id="B2_8_">
							
								<rect id="Rectangle-Copy-6_8_" x="-6" y="6" transform="matrix(2.729302e-06 1 -1 2.729302e-06 10.0001 6)" class="st4" width="16" height="4"/>
							<path id="Rectangle-9-Copy-5_8_" class="st3" d="M2,0L2,0c0.4,0,0.7,0.3,0.7,0.7L3.8,14c0.1,1-0.7,1.9-1.7,2
								c-0.1,0-0.1,0-0.2,0l0,0c-1,0-1.8-0.8-1.8-1.8c0-0.1,0-0.1,0-0.2L1.3,0.7C1.3,0.3,1.6,0,2,0z"/>
						</g>
					</g>
					<g id="Rain-_x2013_-B2_9_" transform="translate(88.000000, 113.000000)">
						<g id="B2_9_">
							
								<rect id="Rectangle-Copy-6_9_" x="-6" y="6" transform="matrix(2.729302e-06 1 -1 2.729302e-06 10.0001 5.9999)" class="st4" width="16" height="4"/>
							<path id="Rectangle-9-Copy-5_9_" class="st3" d="M2,0L2,0c0.4,0,0.7,0.3,0.7,0.7L3.8,14c0.1,1-0.7,1.9-1.7,2
								c-0.1,0-0.1,0-0.2,0l0,0c-1,0-1.8-0.8-1.8-1.8c0-0.1,0-0.1,0-0.2L1.3,0.7C1.3,0.3,1.6,0,2,0z"/>
						</g>
					</g>
					<g id="Rain-_x2013_-B2_10_" transform="translate(11.000000, 155.000000)">
						<g id="B2_10_">
							
								<rect id="Rectangle-Copy-6_10_" x="-6" y="6" transform="matrix(2.729302e-06 1 -1 2.729302e-06 10.0001 6)" class="st4" width="16" height="4"/>
							<path id="Rectangle-9-Copy-5_10_" class="st3" d="M2,0L2,0c0.4,0,0.7,0.3,0.7,0.7L3.8,14c0.1,1-0.7,1.9-1.7,2
								c-0.1,0-0.1,0-0.2,0l0,0c-1,0-1.8-0.8-1.8-1.8c0-0.1,0-0.1,0-0.2L1.3,0.7C1.3,0.3,1.6,0,2,0z"/>
						</g>
					</g>
					<g id="Rain-_x2013_-B4_4_" transform="translate(88.000000, 71.000000)">
						<g id="B4_4_">
							
								<rect id="Rectangle_4_" x="-18" y="18" transform="matrix(2.729302e-06 1 -1 2.729302e-06 22.0001 17.9999)" class="st4" width="40" height="4"/>
							<path id="Rectangle-9-Copy-7_4_" class="st3" d="M2,0L2,0c0.4,0,0.7,0.3,0.7,0.7L3.9,38c0,1.1-0.8,2-1.9,2c0,0,0,0-0.1,0l0,0
								c-1.1,0-1.9-0.9-1.9-1.9c0,0,0,0,0-0.1L1.3,0.7C1.3,0.3,1.6,0,2,0z"/>
						</g>
					</g>
					<g id="Rain-_x2013_-B4_5_" transform="translate(11.000000, 113.000000)">
						<g id="B4_5_">
							
								<rect id="Rectangle_5_" x="-18" y="18" transform="matrix(2.729302e-06 1 -1 2.729302e-06 22.0001 18)" class="st4" width="40" height="4"/>
							<path id="Rectangle-9-Copy-7_5_" class="st3" d="M2,0L2,0c0.4,0,0.7,0.3,0.7,0.7L3.9,38c0,1.1-0.8,2-1.9,2c0,0,0,0-0.1,0l0,0
								c-1.1,0-1.9-0.9-1.9-1.9c0,0,0,0,0-0.1L1.3,0.7C1.3,0.3,1.6,0,2,0z"/>
						</g>
					</g>
					<g id="Rain-_x2013_-C3_3_" transform="translate(133.000000, 0.000000)">
						<g id="C3_3_">
							<path id="Rectangle-9-Copy-14_3_" class="st3" d="M1,0L1,0c0.6,0,1,0.4,1,1l0,22c0,0.6-0.4,1-1,1l0,0c-0.6,0-1-0.4-1-1L0,1
								C0,0.4,0.4,0,1,0z"/>
						</g>
					</g>
					<g id="Rain-_x2013_-C3_4_" transform="translate(56.000000, 42.000000)">
						<g id="C3_4_">
							<path id="Rectangle-9-Copy-14_4_" class="st3" d="M1,0L1,0c0.6,0,1,0.4,1,1l0,22c0,0.6-0.4,1-1,1l0,0c-0.6,0-1-0.4-1-1L0,1
								C0,0.4,0.4,0,1,0z"/>
						</g>
					</g>
					<g id="Rain-_x2013_-B3_2_" transform="translate(154.000000, 89.000000)">
						<g id="B3_2_">
							
								<rect id="Rectangle-Copy-5_2_" x="-10" y="10" transform="matrix(2.729302e-06 1 -1 2.729302e-06 14.0001 9.9999)" class="st4" width="24" height="4"/>
							<path id="Rectangle-9-Copy-6_2_" class="st3" d="M2,0L2,0c0.4,0,0.7,0.3,0.7,0.7L3.9,22c0.1,1-0.7,1.9-1.8,2c0,0-0.1,0-0.1,0
								l0,0c-1,0-1.9-0.8-1.9-1.9c0,0,0-0.1,0-0.1L1.3,0.7C1.3,0.3,1.6,0,2,0z"/>
						</g>
					</g>
					<g id="Rain-_x2013_-B3_3_" transform="translate(121.000000, 49.000000)">
						<g id="B3_3_">
							
								<rect id="Rectangle-Copy-5_3_" x="-10" y="10" transform="matrix(2.729302e-06 1 -1 2.729302e-06 14.0001 9.9999)" class="st4" width="24" height="4"/>
							<path id="Rectangle-9-Copy-6_3_" class="st3" d="M2,0L2,0c0.4,0,0.7,0.3,0.7,0.7L3.9,22c0.1,1-0.7,1.9-1.8,2c0,0-0.1,0-0.1,0
								l0,0c-1,0-1.9-0.8-1.9-1.9c0,0,0-0.1,0-0.1L1.3,0.7C1.3,0.3,1.6,0,2,0z"/>
						</g>
					</g>
					<g id="Rain-_x2013_-B3_4_" transform="translate(44.000000, 91.000000)">
						<g id="B3_4_">
							
								<rect id="Rectangle-Copy-5_4_" x="-10" y="10" transform="matrix(2.729302e-06 1 -1 2.729302e-06 14.0001 10)" class="st4" width="24" height="4"/>
							<path id="Rectangle-9-Copy-6_4_" class="st3" d="M2,0L2,0c0.4,0,0.7,0.3,0.7,0.7L3.9,22c0.1,1-0.7,1.9-1.8,2c0,0-0.1,0-0.1,0
								l0,0c-1,0-1.9-0.8-1.9-1.9c0,0,0-0.1,0-0.1L1.3,0.7C1.3,0.3,1.6,0,2,0z"/>
						</g>
					</g>
					<g id="Rain-_x2013_-B3_5_" transform="translate(176.000000, 23.000000)">
						<g id="B3_5_">
							
								<rect id="Rectangle-Copy-5_5_" x="-10" y="10" transform="matrix(2.729302e-06 1 -1 2.729302e-06 14 9.9999)" class="st4" width="24" height="4"/>
							<path id="Rectangle-9-Copy-6_5_" class="st3" d="M2,0L2,0c0.4,0,0.7,0.3,0.7,0.7L3.9,22c0.1,1-0.7,1.9-1.8,2c0,0-0.1,0-0.1,0
								l0,0c-1,0-1.9-0.8-1.9-1.9c0,0,0-0.1,0-0.1L1.3,0.7C1.3,0.3,1.6,0,2,0z"/>
						</g>
					</g>
					<g id="Rain-_x2013_-B4_6_" transform="translate(165.000000, 35.000000)">
						<g id="B4_6_">
							
								<rect id="Rectangle_6_" x="-18" y="18" transform="matrix(2.729302e-06 1 -1 2.729302e-06 22.0001 17.9999)" class="st4" width="40" height="4"/>
							<path id="Rectangle-9-Copy-7_6_" class="st3" d="M2,0L2,0c0.4,0,0.7,0.3,0.7,0.7L3.9,38c0,1.1-0.8,2-1.9,2c0,0,0,0-0.1,0l0,0
								c-1.1,0-1.9-0.9-1.9-1.9c0,0,0,0,0-0.1L1.3,0.7C1.3,0.3,1.6,0,2,0z"/>
						</g>
					</g>
					<g id="_x34_0" transform="translate(1.000000, 9.000000)" class="st5">
						<g id="Rain-_x2013_-C2_1_" transform="translate(77.000000, 25.000000)">
							<g id="C2_1_">
								<path id="Rectangle-9-Copy-13_1_" class="st3" d="M1,0L1,0c0.6,0,1,0.4,1,1l0,14c0,0.6-0.4,1-1,1l0,0c-0.6,0-1-0.4-1-1L0,1
									C0,0.4,0.4,0,1,0z"/>
							</g>
						</g>
						<g id="Rain-_x2013_-C2_2_" transform="translate(0.000000, 67.000000)">
							<g id="C2_2_">
								<path id="Rectangle-9-Copy-13_2_" class="st3" d="M1,0L1,0c0.6,0,1,0.4,1,1l0,14c0,0.6-0.4,1-1,1l0,0c-0.6,0-1-0.4-1-1L0,1
									C0,0.4,0.4,0,1,0z"/>
							</g>
						</g>
						<g id="Rain-_x2013_-C3_5_" transform="translate(176.000000, 73.000000)">
							<g id="C3_5_">
								<path id="Rectangle-9-Copy-14_5_" class="st3" d="M1,0L1,0c0.6,0,1,0.4,1,1l0,22c0,0.6-0.4,1-1,1l0,0c-0.6,0-1-0.4-1-1L0,1
									C0,0.4,0.4,0,1,0z"/>
							</g>
						</g>
						<g id="Rain-_x2013_-B4_7_" transform="translate(98.000000, 27.000000)">
							<g id="B4_7_">
								
									<rect id="Rectangle_7_" x="-18" y="18" transform="matrix(2.729302e-06 1 -1 2.729302e-06 22 17.9999)" class="st4" width="40" height="4"/>
								<path id="Rectangle-9-Copy-7_7_" class="st3" d="M2,0L2,0c0.4,0,0.7,0.3,0.7,0.7L3.9,38c0,1.1-0.8,2-1.9,2c0,0,0,0-0.1,0
									l0,0c-1.1,0-1.9-0.9-1.9-1.9c0,0,0,0,0-0.1L1.3,0.7C1.3,0.3,1.6,0,2,0z"/>
							</g>
						</g>
						<g id="Rain-_x2013_-B4_8_" transform="translate(21.000000, 69.000000)">
							<g id="B4_8_">
								
									<rect id="Rectangle_8_" x="-18" y="18" transform="matrix(2.729302e-06 1 -1 2.729302e-06 22.0001 17.9999)" class="st4" width="40" height="4"/>
								<path id="Rectangle-9-Copy-7_8_" class="st3" d="M2,0L2,0c0.4,0,0.7,0.3,0.7,0.7L3.9,38c0,1.1-0.8,2-1.9,2c0,0,0,0-0.1,0
									l0,0c-1.1,0-1.9-0.9-1.9-1.9c0,0,0,0,0-0.1L1.3,0.7C1.3,0.3,1.6,0,2,0z"/>
							</g>
						</g>
						<g id="Rain-_x2013_-B1_2_" transform="translate(175.000000, 44.000000)">
							<g id="B1_2_">
								
									<rect id="Rectangle-Copy-7_2_" x="-2" y="2" transform="matrix(2.729302e-06 1 -1 2.729302e-06 6.0001 1.9999)" class="st4" width="8" height="4"/>
								<path id="Rectangle-9-Copy-4_2_" class="st3" d="M2,0L2,0c0.4,0,0.7,0.3,0.8,0.7L3.7,6C3.8,7,3.2,7.8,2.3,8C2.2,8,2.1,8,2,8
									l0,0C1.1,8,0.3,7.2,0.3,6.3c0-0.1,0-0.2,0-0.3l0.9-5.4C1.3,0.3,1.6,0,2,0z"/>
							</g>
						</g>
						<g id="Rain-_x2013_-B3_6_" transform="translate(164.000000, 0.000000)">
							<g id="B3_6_">
								
									<rect id="Rectangle-Copy-5_6_" x="-10" y="10" transform="matrix(2.729302e-06 1 -1 2.729302e-06 14 9.9999)" class="st4" width="24" height="4"/>
								<path id="Rectangle-9-Copy-6_6_" class="st3" d="M2,0L2,0c0.4,0,0.7,0.3,0.7,0.7L3.9,22c0.1,1-0.7,1.9-1.8,2
									c0,0-0.1,0-0.1,0l0,0c-1,0-1.9-0.8-1.9-1.9c0,0,0-0.1,0-0.1L1.3,0.7C1.3,0.3,1.6,0,2,0z"/>
							</g>
						</g>
						<g id="Rain-_x2013_-C3_6_" transform="translate(187.000000, 78.000000)">
							<g id="C3_6_">
								<path id="Rectangle-9-Copy-14_6_" class="st3" d="M1,0L1,0c0.6,0,1,0.4,1,1l0,22c0,0.6-0.4,1-1,1l0,0c-0.6,0-1-0.4-1-1L0,1
									C0,0.4,0.4,0,1,0z"/>
							</g>
						</g>
						<g id="Rain-_x2013_-C3_7_" transform="translate(143.000000, 108.000000)">
							<g id="C3_7_">
								<path id="Rectangle-9-Copy-14_7_" class="st3" d="M1,0L1,0c0.6,0,1,0.4,1,1l0,22c0,0.6-0.4,1-1,1l0,0c-0.6,0-1-0.4-1-1L0,1
									C0,0.4,0.4,0,1,0z"/>
							</g>
						</g>
						<g id="Rain-_x2013_-C3_8_" transform="translate(66.000000, 150.000000)">
							<g id="C3_8_">
								<path id="Rectangle-9-Copy-14_8_" class="st3" d="M1,0L1,0c0.6,0,1,0.4,1,1l0,22c0,0.6-0.4,1-1,1l0,0c-0.6,0-1-0.4-1-1L0,1
									C0,0.4,0.4,0,1,0z"/>
							</g>
						</g>
					</g>
					<g id="_x37_0" transform="translate(0.000000, 7.000000)" class="st6">
						<g id="Rain-_x2013_-C4_1_" transform="translate(100.000000, 97.000000)">
							<g id="C4_1_">
								<path id="Rectangle-9-Copy-15_1_" class="st3" d="M1,0L1,0c0.6,0,1,0.4,1,1l0,38c0,0.6-0.4,1-1,1l0,0c-0.6,0-1-0.4-1-1L0,1
									C0,0.4,0.4,0,1,0z"/>
							</g>
						</g>
						<g id="Rain-_x2013_-C4_2_" transform="translate(23.000000, 139.000000)">
							<g id="C4_2_">
								<path id="Rectangle-9-Copy-15_2_" class="st3" d="M1,0L1,0c0.6,0,1,0.4,1,1l0,38c0,0.6-0.4,1-1,1l0,0c-0.6,0-1-0.4-1-1L0,1
									C0,0.4,0.4,0,1,0z"/>
							</g>
						</g>
						<g id="Rain-_x2013_-C4_3_" transform="translate(111.000000, 56.000000)">
							<g id="C4_3_">
								<path id="Rectangle-9-Copy-15_3_" class="st3" d="M1,0L1,0c0.6,0,1,0.4,1,1l0,38c0,0.6-0.4,1-1,1l0,0c-0.6,0-1-0.4-1-1L0,1
									C0,0.4,0.4,0,1,0z"/>
							</g>
						</g>
						<g id="Rain-_x2013_-C4_4_" transform="translate(34.000000, 98.000000)">
							<g id="C4_4_">
								<path id="Rectangle-9-Copy-15_4_" class="st3" d="M1,0L1,0c0.6,0,1,0.4,1,1l0,38c0,0.6-0.4,1-1,1l0,0c-0.6,0-1-0.4-1-1L0,1
									C0,0.4,0.4,0,1,0z"/>
							</g>
						</g>
						<g id="Rain-_x2013_-B3_7_" transform="translate(132.000000, 63.000000)">
							<g id="B3_7_">
								
									<rect id="Rectangle-Copy-5_7_" x="-10" y="10" transform="matrix(2.729302e-06 1 -1 2.729302e-06 14.0001 9.9999)" class="st4" width="24" height="4"/>
								<path id="Rectangle-9-Copy-6_7_" class="st3" d="M2,0L2,0c0.4,0,0.7,0.3,0.7,0.7L3.9,22c0.1,1-0.7,1.9-1.8,2
									c0,0-0.1,0-0.1,0l0,0c-1,0-1.9-0.8-1.9-1.9c0,0,0-0.1,0-0.1L1.3,0.7C1.3,0.3,1.6,0,2,0z"/>
							</g>
						</g>
						<g id="Rain-_x2013_-B3_8_" transform="translate(55.000000, 105.000000)">
							<g id="B3_8_">
								
									<rect id="Rectangle-Copy-5_8_" x="-10" y="10" transform="matrix(2.729302e-06 1 -1 2.729302e-06 14.0001 10)" class="st4" width="24" height="4"/>
								<path id="Rectangle-9-Copy-6_8_" class="st3" d="M2,0L2,0c0.4,0,0.7,0.3,0.7,0.7L3.9,22c0.1,1-0.7,1.9-1.8,2
									c0,0-0.1,0-0.1,0l0,0c-1,0-1.9-0.8-1.9-1.9c0,0,0-0.1,0-0.1L1.3,0.7C1.3,0.3,1.6,0,2,0z"/>
							</g>
						</g>
						<g id="Rain-_x2013_-B4_9_" transform="translate(110.000000, 99.000000)">
							<g id="B4_9_">
								
									<rect id="Rectangle_9_" x="-18" y="18" transform="matrix(2.729302e-06 1 -1 2.729302e-06 22.0001 17.9999)" class="st4" width="40" height="4"/>
								<path id="Rectangle-9-Copy-7_9_" class="st3" d="M2,0L2,0c0.4,0,0.7,0.3,0.7,0.7L3.9,38c0,1.1-0.8,2-1.9,2c0,0,0,0-0.1,0
									l0,0c-1.1,0-1.9-0.9-1.9-1.9c0,0,0,0,0-0.1L1.3,0.7C1.3,0.3,1.6,0,2,0z"/>
							</g>
						</g>
						<g id="Rain-_x2013_-B4_10_" transform="translate(33.000000, 141.000000)">
							<g id="B4_10_">
								
									<rect id="Rectangle_10_" x="-18" y="18" transform="matrix(2.729302e-06 1 -1 2.729302e-06 22.0001 18)" class="st4" width="40" height="4"/>
								<path id="Rectangle-9-Copy-7_10_" class="st3" d="M2,0L2,0c0.4,0,0.7,0.3,0.7,0.7L3.9,38c0,1.1-0.8,2-1.9,2c0,0,0,0-0.1,0
									l0,0c-1.1,0-1.9-0.9-1.9-1.9c0,0,0,0,0-0.1L1.3,0.7C1.3,0.3,1.6,0,2,0z"/>
							</g>
						</g>
						<g id="Rain-_x2013_-C3_9_" transform="translate(144.000000, 16.000000)">
							<g id="C3_9_">
								<path id="Rectangle-9-Copy-14_9_" class="st3" d="M1,0L1,0c0.6,0,1,0.4,1,1l0,22c0,0.6-0.4,1-1,1l0,0c-0.6,0-1-0.4-1-1L0,1
									C0,0.4,0.4,0,1,0z"/>
							</g>
						</g>
						<g id="Rain-_x2013_-C3_10_" transform="translate(67.000000, 58.000000)">
							<g id="C3_10_">
								<path id="Rectangle-9-Copy-14_10_" class="st3" d="M1,0L1,0c0.6,0,1,0.4,1,1l0,22c0,0.6-0.4,1-1,1l0,0c-0.6,0-1-0.4-1-1L0,1
									C0,0.4,0.4,0,1,0z"/>
							</g>
						</g>
						<g id="Rain-_x2013_-B3_9_" transform="translate(154.000000, 30.000000)">
							<g id="B3_9_">
								
									<rect id="Rectangle-Copy-5_9_" x="-10" y="10" transform="matrix(2.729302e-06 1 -1 2.729302e-06 14.0001 9.9999)" class="st4" width="24" height="4"/>
								<path id="Rectangle-9-Copy-6_9_" class="st3" d="M2,0L2,0c0.4,0,0.7,0.3,0.7,0.7L3.9,22c0.1,1-0.7,1.9-1.8,2
									c0,0-0.1,0-0.1,0l0,0c-1,0-1.9-0.8-1.9-1.9c0,0,0-0.1,0-0.1L1.3,0.7C1.3,0.3,1.6,0,2,0z"/>
							</g>
						</g>
						<g id="Rain-_x2013_-B3_10_" transform="translate(187.000000, 49.000000)">
							<g id="B3_10_">
								
									<rect id="Rectangle-Copy-5_10_" x="-6" y="6" transform="matrix(2.729302e-06 1 -1 2.729302e-06 10.0001 5.9999)" class="st4" width="16" height="4"/>
								<path id="Rectangle-9-Copy-6_10_" class="st3" d="M2,0L2,0c0.4,0,0.7,0.3,0.7,0.7L3.8,14c0.1,1-0.7,1.9-1.7,2
									c-0.1,0-0.1,0-0.2,0l0,0c-1,0-1.8-0.8-1.8-1.8c0-0.1,0-0.1,0-0.2L1.3,0.7C1.3,0.3,1.6,0,2,0z"/>
							</g>
						</g>
						<g id="Rain-_x2013_-B4_11_" transform="translate(143.000000, 68.000000)">
							<g id="B4_11_">
								
									<rect id="Rectangle_11_" x="-18" y="18" transform="matrix(2.729302e-06 1 -1 2.729302e-06 22.0001 17.9999)" class="st4" width="40" height="4"/>
								<path id="Rectangle-9-Copy-7_11_" class="st3" d="M2,0L2,0c0.4,0,0.7,0.3,0.7,0.7L3.9,38c0,1.1-0.8,2-1.9,2c0,0,0,0-0.1,0
									l0,0c-1.1,0-1.9-0.9-1.9-1.9c0,0,0,0,0-0.1L1.3,0.7C1.3,0.3,1.6,0,2,0z"/>
							</g>
						</g>
						<g id="Rain-_x2013_-B4_12_" transform="translate(66.000000, 110.000000)">
							<g id="B4_12_">
								
									<rect id="Rectangle_12_" x="-18" y="18" transform="matrix(2.729302e-06 1 -1 2.729302e-06 22.0001 17.9999)" class="st4" width="40" height="4"/>
								<path id="Rectangle-9-Copy-7_12_" class="st3" d="M2,0L2,0c0.4,0,0.7,0.3,0.7,0.7L3.9,38c0,1.1-0.8,2-1.9,2c0,0,0,0-0.1,0
									l0,0c-1.1,0-1.9-0.9-1.9-1.9c0,0,0,0,0-0.1L1.3,0.7C1.3,0.3,1.6,0,2,0z"/>
							</g>
						</g>
						<g id="Rain-_x2013_-B4_13_" transform="translate(77.000000, 47.000000)">
							<g id="B4_13_">
								
									<rect id="Rectangle_13_" x="-18" y="18" transform="matrix(2.729302e-06 1 -1 2.729302e-06 22.0001 17.9999)" class="st4" width="40" height="4"/>
								<path id="Rectangle-9-Copy-7_13_" class="st3" d="M2,0L2,0c0.4,0,0.7,0.3,0.7,0.7L3.9,38c0,1.1-0.8,2-1.9,2c0,0,0,0-0.1,0
									l0,0c-1.1,0-1.9-0.9-1.9-1.9c0,0,0,0,0-0.1L1.3,0.7C1.3,0.3,1.6,0,2,0z"/>
							</g>
						</g>
						<g id="Rain-_x2013_-B4_14_" transform="translate(0.000000, 89.000000)">
							<g id="B4_14_">
								
									<rect id="Rectangle_14_" x="-18" y="18" transform="matrix(2.729302e-06 1 -1 2.729302e-06 22.0001 18)" class="st4" width="40" height="4"/>
								<path id="Rectangle-9-Copy-7_14_" class="st3" d="M2,0L2,0c0.4,0,0.7,0.3,0.7,0.7L3.9,38c0,1.1-0.8,2-1.9,2c0,0,0,0-0.1,0
									l0,0c-1.1,0-1.9-0.9-1.9-1.9c0,0,0,0,0-0.1L1.3,0.7C1.3,0.3,1.6,0,2,0z"/>
							</g>
						</g>
						<g id="Rain-_x2013_-B4_15_" transform="translate(121.000000, 0.000000)">
							<g id="B4_15_">
								
									<rect id="Rectangle_15_" x="-18" y="18" transform="matrix(2.729302e-06 1 -1 2.729302e-06 22 17.9999)" class="st4" width="40" height="4"/>
								<path id="Rectangle-9-Copy-7_15_" class="st3" d="M2,0L2,0c0.4,0,0.7,0.3,0.7,0.7L3.9,38c0,1.1-0.8,2-1.9,2c0,0,0,0-0.1,0
									l0,0c-1.1,0-1.9-0.9-1.9-1.9c0,0,0,0,0-0.1L1.3,0.7C1.3,0.3,1.6,0,2,0z"/>
							</g>
						</g>
						<g id="Rain-_x2013_-B4_16_" transform="translate(44.000000, 42.000000)">
							<g id="B4_16_">
								
									<rect id="Rectangle_16_" x="-18" y="18" transform="matrix(2.729302e-06 1 -1 2.729302e-06 22 17.9999)" class="st4" width="40" height="4"/>
								<path id="Rectangle-9-Copy-7_16_" class="st3" d="M2,0L2,0c0.4,0,0.7,0.3,0.7,0.7L3.9,38c0,1.1-0.8,2-1.9,2c0,0,0,0-0.1,0
									l0,0c-1.1,0-1.9-0.9-1.9-1.9c0,0,0,0,0-0.1L1.3,0.7C1.3,0.3,1.6,0,2,0z"/>
							</g>
						</g>
						<g id="Rain-_x2013_-C3_11_" transform="translate(89.000000, 136.000000)">
							<g id="C3_11_">
								<path id="Rectangle-9-Copy-14_11_" class="st3" d="M1,0L1,0c0.6,0,1,0.4,1,1l0,22c0,0.6-0.4,1-1,1l0,0c-0.6,0-1-0.4-1-1L0,1
									C0,0.4,0.4,0,1,0z"/>
							</g>
						</g>
					</g>
					<g id="Rain-_x2013_-C4_5_" transform="translate(122.000000, 76.000000)">
						<g id="C4_5_">
							<path id="Rectangle-9-Copy-15_5_" class="st3" d="M1,0L1,0c0.6,0,1,0.4,1,1l0,38c0,0.6-0.4,1-1,1l0,0c-0.6,0-1-0.4-1-1L0,1
								C0,0.4,0.4,0,1,0z"/>
						</g>
					</g>
					<g id="Rain-_x2013_-C4_6_" transform="translate(45.000000, 118.000000)">
						<g id="C4_6_">
							<path id="Rectangle-9-Copy-15_6_" class="st3" d="M1,0L1,0c0.6,0,1,0.4,1,1l0,38c0,0.6-0.4,1-1,1l0,0c-0.6,0-1-0.4-1-1L0,1
								C0,0.4,0.4,0,1,0z"/>
						</g>
					</g>
					<g id="Rain-_x2013_-C4_7_" transform="translate(111.000000, 2.000000)">
						<g id="C4_7_">
							<path id="Rectangle-9-Copy-15_7_" class="st3" d="M1,0L1,0c0.6,0,1,0.4,1,1l0,38c0,0.6-0.4,1-1,1l0,0c-0.6,0-1-0.4-1-1L0,1
								C0,0.4,0.4,0,1,0z"/>
						</g>
					</g>
					<g id="Rain-_x2013_-C4_8_" transform="translate(34.000000, 44.000000)">
						<g id="C4_8_">
							<path id="Rectangle-9-Copy-15_8_" class="st3" d="M1,0L1,0c0.6,0,1,0.4,1,1l0,38c0,0.6-0.4,1-1,1l0,0c-0.6,0-1-0.4-1-1L0,1
								C0,0.4,0.4,0,1,0z"/>
						</g>
					</g>
					<g id="Rain-_x2013_-C4_9_" transform="translate(78.000000, 124.000000)">
						<g id="C4_9_">
							<path id="Rectangle-9-Copy-15_9_" class="st3" d="M1,0L1,0c0.6,0,1,0.4,1,1l0,38c0,0.6-0.4,1-1,1l0,0c-0.6,0-1-0.4-1-1L0,1
								C0,0.4,0.4,0,1,0z"/>
						</g>
					</g>
					<g id="Rain-_x2013_-C3_12_" transform="translate(1.000000, 166.000000)">
						<g id="C3_12_">
							<path id="Rectangle-9-Copy-14_12_" class="st3" d="M1,0L1,0c0.6,0,1,0.4,1,1l0,22c0,0.6-0.4,1-1,1l0,0c-0.6,0-1-0.4-1-1L0,1
								C0,0.4,0.4,0,1,0z"/>
						</g>
					</g>
				</g>
			</g>
		</g>
	</g>
</g>
</svg>
