<?xml version="1.0" encoding="utf-8"?>
<!-- Generator: Adobe Illustrator 22.1.0, SVG Export Plug-In . SVG Version: 6.00 Build 0)  -->
<svg version="1.1" id="Layer_1" xmlns="http://www.w3.org/2000/svg" xmlns:xlink="http://www.w3.org/1999/xlink" x="0px" y="0px"
	 viewBox="0 0 96 96" style="enable-background:new 0 0 96 96;" xml:space="preserve">
<style type="text/css">
	.st0{fill:none;stroke:#CCCCCC;stroke-width:2.5;stroke-linecap:round;stroke-linejoin:round;}
	.st1{fill:none;stroke:#CCCCCC;stroke-width:2.5;stroke-linecap:round;stroke-linejoin:round;stroke-dasharray:0.9533,2.8599;}
	.st2{fill:none;stroke:#CCCCCC;stroke-width:2.5;stroke-linecap:round;stroke-linejoin:round;stroke-dasharray:1.0508,3.1524;}
	.st3{fill:none;stroke:#CCCCCC;stroke-width:2.5;stroke-linecap:round;stroke-linejoin:round;stroke-dasharray:1.0108,3.0325;}
	.st4{fill:none;stroke:#CCCCCC;stroke-width:2.5;stroke-linecap:round;stroke-linejoin:round;stroke-dasharray:0.9864,2.9591;}
	.st5{fill:none;stroke:#CCCCCC;stroke-width:2.5;stroke-linecap:round;stroke-linejoin:round;stroke-dasharray:0.9155,2.7466;}
	.st6{fill:none;stroke:#CCCCCC;stroke-width:2;stroke-linecap:round;stroke-miterlimit:10;}
</style>
<title>03 Partly Cloudy Day Left</title>
<desc>Created with Sketch.</desc>
<g id="_x30_3-Partly-Cloudy-Day-Left">
	<g id="Group" transform="translate(0.000000, 19.000000)">
		<g id="Cloud" transform="translate(9.000000, 13.000000)">
			<g>
				<g>
					<path class="st0" d="M46.5,25c-0.2,0-0.3,0-0.5,0C46.2,25,46.3,25,46.5,25"/>
					<path class="st1" d="M49.3,24.4c3.3-1.3,5.7-4.6,5.7-8.4c0-5-4-9-9-9c-0.1,0-0.2,0-0.4,0"/>
					<path class="st0" d="M44.2,7.2c-0.2,0-0.3,0.1-0.5,0.1c0-0.2-0.1-0.3-0.1-0.5"/>
					<path class="st2" d="M42.2,4c-1.7-2.4-4.5-4-7.7-4c-5.1,0-9.3,4.1-9.5,9.2"/>
					<path class="st0" d="M25.1,10.8c0,0.2,0,0.3,0.1,0.5c-0.2,0-0.3-0.1-0.5-0.1"/>
					<path class="st3" d="M21.7,11.1c-3.6,0.5-6.5,3.2-7.4,6.8"/>
					<path class="st0" d="M14,19.3c0,0.2,0,0.3,0,0.5c-0.2-0.1-0.3-0.1-0.5-0.2"/>
					<path class="st4" d="M10.7,19c-0.2,0-0.4,0-0.7,0C4.5,19,0,23.5,0,29s4.5,10,10,10h46c5.5,0,10-4.5,10-10c0-5.4-4.2-9.7-9.5-10
						"/>
					<path class="st0" d="M55,19c-0.2,0-0.4,0-0.5,0c0,0.1-0.1,0.3-0.2,0.5"/>
					<path class="st5" d="M52.9,21.8c-1.1,1.3-2.8,2.6-5,3"/>
				</g>
			</g>
		</g>
	</g>
</g>
<line class="st6" x1="34.7" y1="50.2" x2="47.3" y2="62.8"/>
<line class="st6" x1="34.7" y1="62.8" x2="47.3" y2="50.2"/>
</svg>
