<?xml version="1.0" encoding="UTF-8"?>
<svg width="96px" height="96px" viewBox="0 0 96 96" version="1.1" xmlns="http://www.w3.org/2000/svg" xmlns:xlink="http://www.w3.org/1999/xlink">
    <!-- Generator: Sketch 49.3 (51167) - http://www.bohemiancoding.com/sketch -->
    <title>01 Sunny Left</title>
    <desc>Created with Sketch.</desc>
    <defs></defs>
    <g id="01-Sunny-Left" stroke="none" stroke-width="1" fill="none" fill-rule="evenodd">
        <g id="Sunny" transform="translate(0.000000, 12.000000)" stroke="#000000" stroke-width="2.5">
            <g id="Sun" transform="translate(20.000000, 20.000000)">
                <circle id="Oval" cx="16" cy="16" r="17.25"></circle>
            </g>
            <g id="Rays" stroke-linecap="round">
                <path d="M36,64 L36,72" id="Path-2"></path>
                <path d="M36,0 L36,8" id="Path-2-Copy"></path>
                <path d="M0,36 L8,36" id="Path-3"></path>
                <path d="M64,36 L72,36" id="Path-3-Copy"></path>
                <path d="M13.372583,54.627417 L13.372583,62.627417" id="Path-2" transform="translate(13.372583, 58.627417) rotate(45.000000) translate(-13.372583, -58.627417) "></path>
                <path d="M58.627417,9.372583 L58.627417,17.372583" id="Path-2-Copy" transform="translate(58.627417, 13.372583) rotate(45.000000) translate(-58.627417, -13.372583) "></path>
                <path d="M9.372583,13.372583 L17.372583,13.372583" id="Path-3" transform="translate(13.372583, 13.372583) rotate(45.000000) translate(-13.372583, -13.372583) "></path>
                <path d="M54.627417,58.627417 L62.627417,58.627417" id="Path-3-Copy" transform="translate(58.627417, 58.627417) rotate(45.000000) translate(-58.627417, -58.627417) "></path>
            </g>
        </g>
    </g>
</svg>