<?xml version="1.0" encoding="UTF-8"?>
<svg width="96px" height="96px" viewBox="0 0 96 96" version="1.1" xmlns="http://www.w3.org/2000/svg" xmlns:xlink="http://www.w3.org/1999/xlink">
    <!-- Generator: Sketch 49.3 (51167) - http://www.bohemiancoding.com/sketch -->
    <title>03 Partly Cloudy Day Left</title>
    <desc>Created with Sketch.</desc>
    <defs></defs>
    <g id="03-Partly-Cloudy-Day-Left" stroke="none" stroke-width="1" fill="none" fill-rule="evenodd">
        <g id="Group" transform="translate(0.000000, 19.000000)">
            <g id="Cloud" transform="translate(9.000000, 13.000000)" stroke="#000000" stroke-linecap="round" stroke-linejoin="round" stroke-width="2.5">
                <path d="M46,25 C50.9705627,25 55,20.9705627 55,16 C55,11.0294373 50.9705627,7 46,7 C45.2184707,7 44.4602077,7.09961479 43.7372153,7.28683997 C42.741664,3.10596292 38.9835503,0 34.5,0 C29.2532949,0 25,4.25329488 25,9.5 C25,10.1044605 25.0564531,10.6957357 25.1643746,11.2688407 C24.4737156,11.0911288 23.7474999,11 23,11 C18.0817818,11 14.0849716,14.9450169 14.001337,19.8432831 C12.7779224,19.2975202 11.423706,19 10,19 C4.4771525,19 0,23.4771525 0,29 C0,34.5228475 4.4771525,39 10,39 L56,39 C61.5228475,39 66,34.5228475 66,29 C66,23.4771525 61.5228475,19 56,19 C55.8813924,19 55,19 54.5,19 C53.9000015,21 51.0408623,25 46,25 Z"></path>
            </g>
            <g id="Sun">
                <g transform="translate(12.000000, 11.000000)">
                    <g id="Hidden-Sun-Circle"></g>
                    <path d="M22.9219264,7.02186993 C21.0306187,2.87906921 16.8515307,0 12,0 C5.372583,0 0,5.372583 0,12 C0,15.5882938 1.57496362,18.8087351 4.07132259,21.0077557" stroke="#000000" stroke-width="2.5" stroke-linecap="round"></path>
                </g>
                <g id="Rays" stroke="#000000" stroke-linecap="round" stroke-width="2.5">
                    <g>
                        <path d="M2.23630127,30.0114129 L6.23630127,30.0114129" id="Path-4" transform="translate(4.236301, 30.011413) rotate(-20.000000) translate(-4.236301, -30.011413) "></path>
                        <path d="M16.7874233,1.09544489 L16.7874233,5.09544489" id="Path-4-Copy" transform="translate(16.787423, 3.095445) rotate(-20.000000) translate(-16.787423, -3.095445) "></path>
                        <path d="M1.10807479,13.4910891 L5.10807479,13.4910891" id="Path-4" transform="translate(3.108075, 13.491089) rotate(25.000000) translate(-3.108075, -13.491089) "></path>
                        <path d="M33.6733739,0.366230029 L33.6733739,4.36623003" id="Path-4-Copy" transform="translate(33.673374, 2.366230) rotate(25.000000) translate(-33.673374, -2.366230) "></path>
                    </g>
                </g>
            </g>
        </g>
    </g>
</svg>