<?xml version="1.0" encoding="UTF-8"?>
<svg width="96px" height="96px" viewBox="0 0 96 96" version="1.1" xmlns="http://www.w3.org/2000/svg" xmlns:xlink="http://www.w3.org/1999/xlink">
    <!-- Generator: Sketch 49.2 (51160) - http://www.bohemiancoding.com/sketch -->
    <title>06 Haze Day ol</title>
    <desc>Created with Sketch.</desc>
    <defs></defs>
    <g id="06-Haze-Day-ol" stroke="none" stroke-width="1" fill="none" fill-rule="evenodd">
        <g id="Rays" transform="translate(12.000000, 22.000000)" stroke="#000000" stroke-linecap="round" stroke-width="2">
            <g transform="translate(9.000000, 0.000000)">
                <path d="M49.627417,9.372583 L49.627417,17.372583" id="Path-2-Copy" transform="translate(49.627417, 13.372583) rotate(45.000000) translate(-49.627417, -13.372583) "></path>
                <path d="M0.372583002,13.372583 L8.372583,13.372583" id="Path-3" transform="translate(4.372583, 13.372583) rotate(45.000000) translate(-4.372583, -13.372583) "></path>
                <path d="M27,0 L27,8" id="Path-2-Copy"></path>
            </g>
        </g>
        <g id="Haze" transform="translate(12.000000, 57.000000)" stroke="#000000" stroke-linecap="round" stroke-width="2">
            <path d="M0,11 L72,11" id="Path-5-Copy"></path>
            <path d="M0,0 L30,0 M42,0 L72,0" id="Path-5"></path>
            <path d="M0,22 L12,22 M24,22 L30,22 M42,22 L49,22 M60,22 L72,22" id="Path-5-Copy-2"></path>
        </g>
        <g id="Sun" transform="translate(28.000000, 37.000000)" stroke="#000000" stroke-width="2">
            <path d="M36.7057311,31.0003381 C38.7879908,27.8444778 40,24.0637789 40,20 C40,8.954305 31.045695,0 20,0 C8.954305,0 0,8.954305 0,20 C0,24.0941321 1.23018237,27.9009398 3.34107296,31.0709488"></path>
        </g>
    </g>
</svg>