<?xml version="1.0" encoding="UTF-8"?>
<svg width="96px" height="96px" viewBox="0 0 96 96" version="1.1" xmlns="http://www.w3.org/2000/svg" xmlns:xlink="http://www.w3.org/1999/xlink">
    <!-- Generator: Sketch 49.3 (51167) - http://www.bohemiancoding.com/sketch -->
    <title>06 Haze Night Left</title>
    <desc>Created with Sketch.</desc>
    <defs></defs>
    <g id="06-Haze-Night-Left" stroke="none" stroke-width="1" fill="none" fill-rule="evenodd">
        <g id="Mon" transform="translate(2.000000, 19.000000)" stroke="#000000" stroke-linecap="round" stroke-width="2.5">
            <path d="M13.2735651,28.5844111 C15.9834127,29.8423784 18.9437603,30.5027634 22,30.5027634 C33.4599086,30.5027634 42.75,21.2126719 42.75,9.75276338 C42.75,6.69652366 42.0896151,3.73617605 40.8316477,1.0263285 L39.721965,-1.36409204 L42.2751967,-0.711011557 C53.3595575,2.12421088 61.25,12.1507646 61.25,23.7527634 C61.25,37.6979533 49.9451899,49.0027634 36,49.0027634 C24.3980012,49.0027634 14.3714475,41.1123208 11.5362251,30.02796 L10.8831446,27.4747284 L13.2735651,28.5844111 Z" id="Oval-2" stroke-linejoin="round"></path>
            <path d="M0,49 L72,49" id="Path-5-Copy"></path>
            <path d="M0,38 L30,38 M42,38 L72,38" id="Path-5"></path>
            <path d="M0,60 L12,60 M24,60 L30,60 M42,60 L49,60 M60,60 L72,60" id="Path-5-Copy-2"></path>
        </g>
        <g id="Haze" transform="translate(1.000000, 57.000000)"></g>
    </g>
</svg>