<?xml version="1.0" encoding="UTF-8"?>
<svg width="96px" height="96px" viewBox="0 0 96 96" version="1.1" xmlns="http://www.w3.org/2000/svg" xmlns:xlink="http://www.w3.org/1999/xlink">
    <!-- Generator: Sketch 49.3 (51167) - http://www.bohemiancoding.com/sketch -->
    <title>08 Light Rain Left</title>
    <desc>Created with Sketch.</desc>
    <defs></defs>
    <g id="08-Light-Rain-Left" stroke="none" stroke-width="1" fill="none" fill-rule="evenodd" stroke-linecap="round">
        <g id="Group" transform="translate(2.000000, 32.000000)" stroke="#000000" stroke-width="2.5">
            <g id="Cloud" stroke-linejoin="round">
                <path d="M46,25 C50.9705627,25 55,20.9705627 55,16 C55,11.0294373 50.9705627,7 46,7 C45.2184707,7 44.4602077,7.09961479 43.7372153,7.28683997 C42.741664,3.10596292 38.9835503,0 34.5,0 C29.2532949,0 25,4.25329488 25,9.5 C25,10.1044605 25.0564531,10.6957357 25.1643746,11.2688407 C24.4737156,11.0911288 23.7474999,11 23,11 C18.0817818,11 14.0849716,14.9450169 14.001337,19.8432831 C12.7779224,19.2975202 11.423706,19 10,19 C4.4771525,19 0,23.4771525 0,29 C0,34.5228475 4.4771525,39 10,39 L56,39 C61.5228475,39 66,34.5228475 66,29 C66,23.4771525 61.5228475,19 56,19 C55.8813924,19 55,19 54.5,19 C53.9000015,21 51.0408623,25 46,25 Z"></path>
            </g>
            <g id="Light-Rain" transform="translate(17.000000, 46.000000)">
                <path d="M12,8.01560977 L20.0156098,0" id="Rain"></path>
                <path d="M0,8.01560977 L8.01560977,0" id="Rain-Copy"></path>
                <path d="M24,8.01560977 L32.0156098,0" id="Rain-Copy-2"></path>
            </g>
        </g>
    </g>
</svg>