<?xml version="1.0" encoding="UTF-8"?>
<svg width="96px" height="96px" viewBox="0 0 96 96" version="1.1" xmlns="http://www.w3.org/2000/svg" xmlns:xlink="http://www.w3.org/1999/xlink">
    <!-- Generator: Sketch 49.3 (51167) - http://www.bohemiancoding.com/sketch -->
    <title>10 Fog Day Left</title>
    <desc>Created with Sketch.</desc>
    <defs></defs>
    <g id="10-Fog-Day-Left" stroke="none" stroke-width="1" fill="none" fill-rule="evenodd">
        <g id="Group" transform="translate(2.000000, 22.000000)" stroke="#000000" stroke-width="2.5">
            <g id="Rays" stroke-linecap="round">
                <g transform="translate(9.000000, 0.000000)">
                    <path d="M49.627417,9.372583 L49.627417,17.372583" id="Path-2-Copy" transform="translate(49.627417, 13.372583) rotate(45.000000) translate(-49.627417, -13.372583) "></path>
                    <path d="M0.372583002,13.372583 L8.372583,13.372583" id="Path-3" transform="translate(4.372583, 13.372583) rotate(45.000000) translate(-4.372583, -13.372583) "></path>
                    <path d="M27,0 L27,8" id="Path-2-Copy"></path>
                </g>
            </g>
            <g id="Fog" transform="translate(0.000000, 34.000000)" stroke-linecap="round">
                <path d="M0,23 L72,23" id="Path-5-Copy"></path>
                <path d="M0,12 L72,12" id="Path-5-Copy-3"></path>
                <path d="M0,1 L72,1" id="Path-5-Copy-4"></path>
            </g>
            <g id="Sun" transform="translate(16.000000, 15.000000)">
                <path d="M36.7057311,31.0003381 C38.7879908,27.8444778 40,24.0637789 40,20 C40,8.954305 31.045695,0 20,0 C8.954305,0 0,8.954305 0,20 C0,24.0941321 1.23018237,27.9009398 3.34107296,31.0709488"></path>
            </g>
        </g>
    </g>
</svg>