<?xml version="1.0" encoding="UTF-8"?>
<svg width="96px" height="96px" viewBox="0 0 96 96" version="1.1" xmlns="http://www.w3.org/2000/svg" xmlns:xlink="http://www.w3.org/1999/xlink">
    <!-- Generator: Sketch 49.3 (51167) - http://www.bohemiancoding.com/sketch -->
    <title>12 Rain Left</title>
    <desc>Created with Sketch.</desc>
    <defs></defs>
    <g id="12-Rain-Left" stroke="none" stroke-width="1" fill="none" fill-rule="evenodd" stroke-linecap="round">
        <g id="Cloud" transform="translate(1.000000, 25.000000)" stroke="#000000" stroke-linejoin="round" stroke-width="2.5">
            <path d="M56,39 C61.5228475,39 66,34.5228475 66,29 C66,23.4771525 61.5228475,19 56,19 C55.8813924,19 55,19 54.5,19 M48.5652543,24.629134 C52.2860553,23.5246907 55,20.0792832 55,16 C55,11.0294373 50.9705627,7 46,7 C45.2184707,7 44.4602077,7.09961479 43.7372153,7.28683997 C42.741664,3.10596292 38.9835503,0 34.5,0 C29.2532949,0 25,4.25329488 25,9.5 C25,10.1044605 25.0564531,10.6957357 25.1643746,11.2688407 C24.4737156,11.0911288 23.7474999,11 23,11 C18.0817818,11 14.0849716,14.9450169 14.001337,19.8432831 C12.7779224,19.2975202 11.423706,19 10,19 C4.4771525,19 0,23.4771525 0,29 C0,34.5228475 4.4771525,39 10,39"></path>
        </g>
        <g id="Little-Cloud" transform="translate(12.000000, 42.000000)" stroke="#000000" stroke-linejoin="round" stroke-width="2.5">
            <path d="M8,13 C3.581722,13 0,16.581722 0,21 C0,25.418278 3.581722,29 8,29 L36,29 C41.418278,29 45,25.418278 45,21 C45,16.7483834 41.6833933,13.2714019 37.4962661,13.0151416 C37.8194135,12.246332 38,11.3942551 38,10.5 C38,6.91014913 35.0898509,4 31.5,4 C30.8434767,4 30.2096869,4.09733358 29.6122736,4.27835764 C28.7046432,1.78392289 26.3106504,0 23.5,0 C19.9101491,0 17,2.91014913 17,6.5 C17,6.67595116 17.0069911,6.85026947 17.0207107,7.02269228 C16.8549682,7.00718085 16.6783227,7 16.5,7 C13.0091276,7 10.1609926,9.75188558 10.0065902,13.2046614 C9.13181314,13.0682205 8.46294976,13 8,13 Z" id="Cloud"></path>
        </g>
        <g id="Light-Rain" transform="translate(12.000000, 78.000000)" stroke="#000000" stroke-width="2.5">
            <path d="M24,8.01560977 L32.0156098,0" id="Rain"></path>
            <path d="M12,8.01560977 L20.0156098,0" id="Rain-Copy"></path>
            <path d="M0,8.01560977 L8.01560977,0" id="Rain-Copy"></path>
            <path d="M36,8.01560977 L44.0156098,0" id="Rain-Copy-2"></path>
        </g>
    </g>
</svg>