<?xml version="1.0" encoding="UTF-8"?>
<svg width="96px" height="96px" viewBox="0 0 96 96" version="1.1" xmlns="http://www.w3.org/2000/svg" xmlns:xlink="http://www.w3.org/1999/xlink">
    <!-- Generator: Sketch 49.3 (51167) - http://www.bohemiancoding.com/sketch -->
    <title>13 Dust Left</title>
    <desc>Created with Sketch.</desc>
    <defs></defs>
    <g id="13-Dust-Left" stroke="none" stroke-width="1" fill="none" fill-rule="evenodd" stroke-linecap="round" stroke-linejoin="round">
        <g id="Dust" transform="translate(0.000000, 15.000000)" stroke="#000000" stroke-width="2.5">
            <path d="M0.88,42.63 C3.75,41.81 14.79,40.86 21.57,41.55 C25.63,41.96 29.87,42.65 33.48,44.66 C37.53,46.92 40.1,50.78 40.1,55.4 C40.1,60.45 36.45,64.94 31.5,65.96 C26.56,66.97 21.46,64.32 19.45,59.71 C18.51,57.56 18.41,55.35 18.95,53.13 C18.65,55.64 20.17,58.26 22.65,59.15 C25.53,60.18 28.7,58.69 29.73,55.81 C30.6,53.39 29.68,50.77 27.66,49.38 C24.52,47.07 18.68,45.15 15.64,44.49 C11.63,43.61 4.94,43.09 0.88,42.63" id="swoosh-bottom" stroke-dasharray="3,5"></path>
            <path d="M11.88,26.92 C15.15,27.85 27.71,28.93 35.42,28.15 C40.04,27.68 44.87,26.9 48.98,24.62 C53.59,22.05 56.51,17.65 56.51,12.4 C56.51,6.66 52.35,1.54 46.72,0.39 C41.1,-0.76 35.3,2.26 33.01,7.51 C31.94,9.96 31.82,12.47 32.44,15 C32.1,12.15 33.83,9.16 36.65,8.15 C39.92,6.98 43.53,8.68 44.7,11.95 C45.69,14.7 44.64,17.68 42.34,19.26 C38.77,21.89 32.12,24.07 28.67,24.82 C24.12,25.8 16.5,26.38 11.88,26.92" id="swoosh-middle"></path>
            <path d="M65.97,22.56 C62.87,29.31 54.53,34.79 44.18,36.05 C39.51,36.62 35.04,36.25 31.1,35.15 C34.23,38.01 38.54,40.25 43.53,41.35 C55.01,43.86 65.76,39.33 67.54,31.21 C68.18,28.3 67.55,25.31 65.97,22.56 Z" id="swoosh-top" stroke-dasharray="3,5"></path>
        </g>
    </g>
</svg>