<?xml version="1.0" encoding="UTF-8"?>
<svg width="96px" height="96px" viewBox="0 0 96 96" version="1.1" xmlns="http://www.w3.org/2000/svg" xmlns:xlink="http://www.w3.org/1999/xlink">
    <!-- Generator: Sketch 49.3 (51167) - http://www.bohemiancoding.com/sketch -->
    <title>14 Frost Left</title>
    <desc>Created with Sketch.</desc>
    <defs></defs>
    <g id="14-Frost-Left" stroke="none" stroke-width="1" fill="none" fill-rule="evenodd" stroke-linecap="round">
        <g id="Frost" transform="translate(2.000000, 16.000000)" stroke="#000000" stroke-width="2.5">
            <g id="Ground" transform="translate(0.000000, 40.000000)">
                <path d="M14,23 L50,23" id="Path-5-Copy"></path>
                <path d="M5,12 L59,12" id="Path-5-Copy-3"></path>
                <path d="M0,1 L64,1" id="Path-5-Copy-4"></path>
            </g>
            <g id="Tree" transform="translate(32.000000, 20.000000) scale(-1, 1) translate(-32.000000, -20.000000) translate(10.000000, 0.000000)" stroke-linejoin="round">
                <path d="M22,0 L22,40" id="Shape"></path>
                <path d="M22,8 L14.5,3.5" id="Shape"></path>
                <path d="M22,8 L29.4884526,3.50769823" id="Shape"></path>
                <path d="M0,15 L22,27.43" id="Shape"></path>
                <path d="M6.59,19 L0,23" id="Shape"></path>
                <path d="M7,19 L7,10.5" id="Shape"></path>
                <path d="M44,15 L22,27.43" id="Shape"></path>
                <path d="M37,19 L44,23" id="Shape"></path>
                <path d="M37,19 L37,10.5" id="Shape"></path>
            </g>
        </g>
    </g>
</svg>