<?xml version="1.0" encoding="UTF-8"?>
<svg width="96px" height="96px" viewBox="0 0 96 96" version="1.1" xmlns="http://www.w3.org/2000/svg" xmlns:xlink="http://www.w3.org/1999/xlink">
    <!-- Generator: Sketch 49.3 (51167) - http://www.bohemiancoding.com/sketch -->
    <title>15 Snow Left</title>
    <desc>Created with Sketch.</desc>
    <defs></defs>
    <g id="15-Snow-Left" stroke="none" stroke-width="1" fill="none" fill-rule="evenodd" stroke-linecap="round" stroke-linejoin="round">
        <g id="snow-col" transform="translate(2.000000, 20.000000)" stroke="#000000" stroke-width="2.5">
            <g id="snowflake-arms">
                <polyline id="Shape" points="4 21 8.17 28.13 4 35.25"></polyline>
                <polyline id="Shape" points="23.34 0 19.25 7.17 11 7.12"></polyline>
                <polyline id="Shape" points="53.34 7.12 45.08 7.17 41 0"></polyline>
                <polyline id="Shape" points="61.17 35.25 57 28.13 61.17 21"></polyline>
                <polyline id="Shape" points="41 56.17 45.09 49 53.34 49.05"></polyline>
                <polyline id="Shape" points="11 49.05 19.26 49 23.34 56.17"></polyline>
                <path d="M0,28 L64,28" id="Shape"></path>
                <path d="M15.59,0.31 L49.09,55.4" id="Shape"></path>
                <path d="M49.26,0.31 L15.76,55.4" id="Shape"></path>
            </g>
            <polygon id="snowflake-body" points="23.99 44 15.64 29.5 23.99 15 40.69 15 49.03 29.5 40.69 44"></polygon>
        </g>
    </g>
</svg>