<?xml version="1.0" encoding="UTF-8"?>
<svg width="96px" height="96px" viewBox="0 0 96 96" version="1.1" xmlns="http://www.w3.org/2000/svg" xmlns:xlink="http://www.w3.org/1999/xlink">
    <!-- Generator: Sketch 49.3 (51167) - http://www.bohemiancoding.com/sketch -->
    <title>19 Tropical Cyclone Left</title>
    <desc>Created with Sketch.</desc>
    <defs></defs>
    <g id="19-Tropical-Cyclone-Left" stroke="none" stroke-width="1" fill="none" fill-rule="evenodd">
        <g id="tropical-cyclone-ol-copy" transform="translate(2.000000, 16.000000)" stroke="#000000" stroke-width="2.5">
            <path d="M67.819375,30.976 C68.286875,41.1733333 64.005,50.4853333 56.92875,56.7466667" id="swoosh-2" stroke-linecap="round" stroke-linejoin="round"></path>
            <path d="M0.19125,34.0906667 C-0.286875,23.6693333 4.2075,14.176 11.56,7.904" id="swoosh-1" stroke-linecap="round" stroke-linejoin="round"></path>
            <path d="M10.3275,33.9093333 L10.3275,34.464 C10.3275,49.728 23.640625,63.008 38.93,63.008 C40.99125,63.008 42.999375,62.784 44.933125,62.3573333 C38.56875,60.96 33.033125,57.376 29.144375,52.4266667 C30.70625,52.768 32.3425,52.9493333 34.010625,52.9493333 C46.590625,52.9493333 57.683125,43.6373333 57.683125,31.008 L57.683125,29.3333333 C57.683125,14.1866667 44.54,0.992 29.4525,0.992 C27.423125,0.992 25.43625,1.216 23.534375,1.632 C29.8775,3.04 35.4025,6.66666667 39.238125,11.648 C37.559375,11.2533333 35.816875,11.04 34.010625,11.04 C21.42,11.0506667 10.3275,21.28 10.3275,33.9093333 Z" id="cyclone"></path>
        </g>
    </g>
</svg>